<svg width="202" height="204" viewBox="0 0 202 204" fill="none" xmlns="http://www.w3.org/2000/svg">
<path d="M72.3791 35.2611C72.5533 31.5976 74.2342 24.9061 79.5644 27.448L72.3791 35.2611Z" fill="#3AA6A6"/>
<path d="M83.2783 4.56123C98.5653 6.59919 101.289 17.0741 96.2425 35.0449L94.5751 34.8665C92.1886 31.6826 86.2057 25.4804 76.3355 26.4712C75.3846 28.6412 74.1972 30.6704 72.8449 32.5402L68.4323 32.0684L78.4363 4.41732C80.0605 4.30607 81.6797 4.34814 83.2783 4.56123Z" fill="#F28518"/>
<path d="M67.9606 6.46261C51.2468 10.8051 39.9339 33.2339 65.7883 67.1555C105.001 106.893 178.266 191.499 202 199.978C164.335 207.46 139.569 203.47 115.836 186.012C22.2388 206.994 -48.7715 67.584 42.0541 17.3953C33.7989 15.8947 23.8964 5.40003 19.9408 0L29.6713 1.81338L74.026 5.69168C71.8262 6.03693 69.8031 6.2782 67.9606 6.46261Z" fill="#000E8C"/>
<path d="M71.8687 12.4873C73.9923 12.4873 75.6929 14.1857 75.6929 16.2549C75.6927 18.3239 73.9922 20.0215 71.8687 20.0215C69.7452 20.0214 68.0446 18.3239 68.0444 16.2549C68.0444 14.1857 69.7451 12.4873 71.8687 12.4873Z" fill="#0D3A59" stroke="#FFCC19" stroke-width="2.05061"/>
<path d="M65.0244 33.1656C67.9948 34.9629 70.2319 36.8048 73.5551 36.8614C76.8782 36.918 80.2364 37.1277 82.4897 34.3311L72 22L65.0244 33.1656Z" fill="#F25549"/>
</svg>
