<svg width="464" height="175" viewBox="0 0 464 175" fill="none" xmlns="http://www.w3.org/2000/svg">
<path d="M62.2201 30.3137C62.3698 27.1648 63.8146 21.4131 68.3962 23.598L62.2201 30.3137Z" fill="#3AA6A6"/>
<path d="M61.5843 30.5251C64.1378 32.0701 66.0609 33.6534 68.9176 33.7021C71.7743 33.7508 74.6611 33.931 76.5981 31.527L67.5311 20.9266L61.5843 30.5251Z" fill="#F25549"/>
<path d="M71.5893 3.92389C84.7302 5.67576 87.0711 14.6794 82.7338 30.1271L81.3001 29.9737C79.2482 27.2365 74.1046 21.9059 65.6204 22.7577C64.8029 24.6232 63.7817 26.3675 62.6191 27.9748L58.8265 27.5689L67.427 3.79889C68.8232 3.70325 70.2149 3.74067 71.5893 3.92389Z" fill="#F28518"/>
<path d="M58.4214 5.55793C44.0536 9.29092 34.3286 28.5715 56.554 57.7317C90.2624 91.8913 153.243 164.622 173.646 171.911C141.268 178.343 119.979 174.912 99.5767 159.905C19.1173 177.942 -41.9257 58.1001 36.1513 14.9561C29.0548 13.6661 20.5422 4.6445 17.1418 0.00244141L25.5065 1.56129L63.6354 4.89522C61.7443 5.192 60.0052 5.39941 58.4214 5.55793Z" fill="#000E8C"/>
<path d="M61.7812 10.7236C63.6134 10.7238 65.0809 12.1889 65.0811 13.9746C65.0811 15.7605 63.6136 17.2263 61.7812 17.2266C59.9488 17.2266 58.4805 15.7606 58.4805 13.9746C58.4806 12.1888 59.9489 10.7236 61.7812 10.7236Z" fill="#000E8C" stroke="#FFCC19" stroke-width="1.73627"/>
<path d="M443.421 138.161C444.655 138.128 447.819 138.161 449.049 138.161H452.316H453.947V133.555V59.8712C453.947 55.266 453.99 55.9663 453.289 55.266C452.631 54.6081 452.631 54.6081 452.318 54.4839C450 53.9502 450.038 53.9502 448.684 53.9502C447.331 53.9502 446.713 54.1285 445.855 54.4839C445.114 54.7212 444.449 55.0952 444.079 55.9239C443.832 56.6346 443.421 57.9113 443.421 59.2134V133.555V138.161Z" fill="#3AA6A6"/>
<path d="M241.082 48.6865C243.99 48.6865 246.348 46.3301 246.348 43.4233C246.348 40.5166 243.99 38.1602 241.082 38.1602C238.174 38.1602 235.816 40.5166 235.816 43.4233C235.816 46.3301 238.174 48.6865 241.082 48.6865Z" fill="#F28518"/>
<path d="M447.799 48.0079C448.722 45.9663 449.831 44.1858 451.125 42.6657C452.353 41.1228 453.642 39.8628 454.995 38.8858C456.345 37.9088 457.632 37.2372 458.858 36.8725C460.016 36.4843 460.301 36.4768 461.407 36.5275C461.863 36.6853 462.32 37.3341 462.32 37.3341C462.939 38.4505 463.419 40.0632 463.214 40.5163C463.009 40.9694 462.691 40.9409 461.873 41.2487C461.028 41.6126 460.052 42.0957 458.945 42.6993C457.749 43.3362 455.784 44.2941 454.605 45.3944C453.442 46.48 453.293 46.7038 452.03 48.5988L451.973 48.6839L447.799 48.0079Z" fill="#F28518"/>
<path d="M443.421 131.581H453.947V144.739L443.421 138.16V134.871V132.897V131.581Z" fill="#3AA6A6"/>
<path d="M235.526 138.161C236.76 138.128 239.924 138.161 241.154 138.161H244.421H246.053V133.555V59.8712C246.053 55.266 246.095 55.9663 245.395 55.266C244.737 54.6081 244.737 54.6081 244.424 54.4839C242.105 53.9502 242.143 53.9502 240.79 53.9502C239.437 53.9502 238.819 54.1285 237.96 54.4839C237.219 54.7212 236.554 55.0952 236.184 55.9239C235.937 56.6346 235.526 57.9113 235.526 59.2134V133.555V138.161Z" fill="#3AA6A6"/>
<path d="M235.526 131.581H246.053V144.739L235.526 138.16V134.871V132.897V131.581Z" fill="#3AA6A6"/>
<path d="M212.118 2.63402C212.118 1.18064 213.02 0 214.473 0H219.736C221.19 0 222.047 1.18064 222.047 2.63402C222.047 4.0874 221.19 5.26315 219.736 5.26315H214.473C213.02 5.26315 212.118 4.0874 212.118 2.63402Z" fill="#3AA6A6"/>
<path fill-rule="evenodd" clip-rule="evenodd" d="M212.118 67.0332C209.21 63.1578 208.867 62.2528 204.605 59.2105C198.33 54.7308 188.912 53.8261 181.839 53.9498C175.945 54.055 170.724 54.9529 165.922 56.9016C161.242 58.9661 157.165 61.8358 153.696 65.5095C150.339 69.1832 147.763 73.4819 145.967 78.4082C144.169 83.4516 143.322 89.0029 143.43 95.0621C143.538 101.237 144.577 106.754 146.554 111.613C148.53 116.588 151.258 120.854 154.74 124.404C158.221 127.956 162.339 130.624 167.083 132.402C171.953 134.296 177.272 135.194 183.047 135.09C188.35 134.996 193.229 133.919 197.671 131.859C202.237 129.912 206.136 127.109 209.373 123.436C210.324 122.358 211.198 121.213 212.015 120.016L212.147 134.153C212.176 136.017 212.613 137.29 213.45 137.974C214.29 138.658 215.653 138.986 217.537 138.95C218.715 138.929 219.596 138.74 220.178 138.38C220.879 138.132 221.344 137.662 221.568 136.958C221.91 136.25 222.069 135.259 222.047 133.975V2.63402H212.118V67.0332ZM197.851 122.071C202.287 119.427 205.757 115.696 208.269 110.873C210.222 107.207 211.372 103.056 211.739 98.4266L211.64 90.7161C211.143 85.8069 209.834 81.3924 207.676 77.4924C205 72.7648 201.397 69.099 196.873 66.4963C192.462 63.895 187.429 62.6437 181.772 62.7437C175.994 62.845 170.946 64.274 166.639 67.0332C162.319 69.7911 158.969 73.5792 156.579 78.399C154.188 83.22 153.048 88.8332 153.159 95.2424C153.277 101.65 154.553 107.159 156.993 111.778C159.551 116.513 163.037 120.124 167.443 122.609C171.851 125.212 176.943 126.463 182.717 126.359C188.374 126.259 193.424 124.831 197.851 122.071Z" fill="#3AA6A6"/>
<path fill-rule="evenodd" clip-rule="evenodd" d="M212.118 67.0332C209.21 63.1578 208.867 62.2528 204.605 59.2105C198.33 54.7308 188.912 53.8261 181.839 53.9498C175.945 54.055 170.724 54.9529 165.922 56.9016C161.242 58.9661 157.165 61.8358 153.696 65.5095C150.339 69.1832 147.763 73.4819 145.967 78.4082C144.169 83.4516 143.322 89.0029 143.43 95.0621C143.538 101.237 144.577 106.754 146.554 111.613C148.53 116.588 151.258 120.854 154.74 124.404C158.221 127.956 162.339 130.624 167.083 132.402C171.953 134.296 177.272 135.194 183.047 135.09C188.35 134.996 193.229 133.919 197.671 131.859C202.237 129.912 206.136 127.109 209.373 123.436C210.324 122.358 211.198 121.213 212.015 120.016L212.147 134.153C212.176 136.017 212.613 137.29 213.45 137.974C214.29 138.658 215.653 138.986 217.537 138.95C218.715 138.929 219.596 138.74 220.178 138.38C220.879 138.132 221.344 137.662 221.568 136.958C221.91 136.25 222.069 135.259 222.047 133.975V2.63402H212.118V67.0332ZM197.851 122.071C202.287 119.427 205.757 115.696 208.269 110.873C210.222 107.207 211.372 103.056 211.739 98.4266L211.64 90.7161C211.143 85.8069 209.834 81.3924 207.676 77.4924C205 72.7648 201.397 69.099 196.873 66.4963C192.462 63.895 187.429 62.6437 181.772 62.7437C175.994 62.845 170.946 64.274 166.639 67.0332C162.319 69.7911 158.969 73.5792 156.579 78.399C154.188 83.22 153.048 88.8332 153.159 95.2424C153.277 101.65 154.553 107.159 156.993 111.778C159.551 116.513 163.037 120.124 167.443 122.609C171.851 125.212 176.943 126.463 182.717 126.359C188.374 126.259 193.424 124.831 197.851 122.071Z" fill="#3AA6A6"/>
<path fill-rule="evenodd" clip-rule="evenodd" d="M212.118 67.0332C209.21 63.1578 208.867 62.2528 204.605 59.2105C198.33 54.7308 188.912 53.8261 181.839 53.9498C175.945 54.055 170.724 54.9529 165.922 56.9016C161.242 58.9661 157.165 61.8358 153.696 65.5095C150.339 69.1832 147.763 73.4819 145.967 78.4082C144.169 83.4516 143.322 89.0029 143.43 95.0621C143.538 101.237 144.577 106.754 146.554 111.613C148.53 116.588 151.258 120.854 154.74 124.404C158.221 127.956 162.339 130.624 167.083 132.402C171.953 134.296 177.272 135.194 183.047 135.09C188.35 134.996 193.229 133.919 197.671 131.859C202.237 129.912 206.136 127.109 209.373 123.436C210.324 122.358 211.198 121.213 212.015 120.016L212.147 134.153C212.176 136.017 212.613 137.29 213.45 137.974C214.29 138.658 215.653 138.986 217.537 138.95C218.715 138.929 219.596 138.74 220.178 138.38C220.879 138.132 221.344 137.662 221.568 136.958C221.91 136.25 222.069 135.259 222.047 133.975V2.63402H212.118V67.0332ZM197.851 122.071C202.287 119.427 205.757 115.696 208.269 110.873C210.222 107.207 211.372 103.056 211.739 98.4266L211.64 90.7161C211.143 85.8069 209.834 81.3924 207.676 77.4924C205 72.7648 201.397 69.099 196.873 66.4963C192.462 63.895 187.429 62.6437 181.772 62.7437C175.994 62.845 170.946 64.274 166.639 67.0332C162.319 69.7911 158.969 73.5792 156.579 78.399C154.188 83.22 153.048 88.8332 153.159 95.2424C153.277 101.65 154.553 107.159 156.993 111.778C159.551 116.513 163.037 120.124 167.443 122.609C171.851 125.212 176.943 126.463 182.717 126.359C188.374 126.259 193.424 124.831 197.851 122.071Z" fill="#3AA6A6"/>
<path fill-rule="evenodd" clip-rule="evenodd" d="M212.118 67.0332C209.21 63.1578 208.867 62.2528 204.605 59.2105C198.33 54.7308 188.912 53.8261 181.839 53.9498C175.945 54.055 170.724 54.9529 165.922 56.9016C161.242 58.9661 157.165 61.8358 153.696 65.5095C150.339 69.1832 147.763 73.4819 145.967 78.4082C144.169 83.4516 143.322 89.0029 143.43 95.0621C143.538 101.237 144.577 106.754 146.554 111.613C148.53 116.588 151.258 120.854 154.74 124.404C158.221 127.956 162.339 130.624 167.083 132.402C171.953 134.296 177.272 135.194 183.047 135.09C188.35 134.996 193.229 133.919 197.671 131.859C202.237 129.912 206.136 127.109 209.373 123.436C210.324 122.358 211.198 121.213 212.015 120.016L212.147 134.153C212.176 136.017 212.613 137.29 213.45 137.974C214.29 138.658 215.653 138.986 217.537 138.95C218.715 138.929 219.596 138.74 220.178 138.38C220.879 138.132 221.344 137.662 221.568 136.958C221.91 136.25 222.069 135.259 222.047 133.975V2.63402H212.118V67.0332ZM197.851 122.071C202.287 119.427 205.757 115.696 208.269 110.873C210.222 107.207 211.372 103.056 211.739 98.4266L211.64 90.7161C211.143 85.8069 209.834 81.3924 207.676 77.4924C205 72.7648 201.397 69.099 196.873 66.4963C192.462 63.895 187.429 62.6437 181.772 62.7437C175.994 62.845 170.946 64.274 166.639 67.0332C162.319 69.7911 158.969 73.5792 156.579 78.399C154.188 83.22 153.048 88.8332 153.159 95.2424C153.277 101.65 154.553 107.159 156.993 111.778C159.551 116.513 163.037 120.124 167.443 122.609C171.851 125.212 176.943 126.463 182.717 126.359C188.374 126.259 193.424 124.831 197.851 122.071Z" fill="#3AA6A6"/>
<path fill-rule="evenodd" clip-rule="evenodd" d="M327.336 57.5293C327.336 56.2135 327.875 54.838 329.191 54.2398C331.166 53.5819 332.94 53.6609 334.675 54.2307C336.056 54.684 337.09 55.6635 337.09 57.5293L337.185 133.018C337.185 139.028 336.244 144.389 334.358 149.105C332.589 153.817 328.42 159.862 325 163.158C321.052 166.447 321.052 166.447 321.052 166.447L319.079 167.763L316.447 169.079L314.473 169.737L312.5 170.395L309.21 171.052L306.25 171.381L303.289 171.71C303.289 171.71 300 171.71 296.71 171.71C295.901 171.71 290.832 171.71 290.131 171.71L278.947 163.158C281.441 163.158 284.372 163.158 287.5 163.158C288.933 163.158 299.535 163.158 300.658 163.158C305.139 163.158 308.028 162.097 311.567 160.685C315.217 159.39 317.09 157.471 319.681 154.761C322.278 152.051 324.22 148.751 325.518 144.864C326.933 141.092 327.638 136.735 327.638 131.785L327.586 120.881C324.774 124.905 321.316 128.189 317.208 130.725C311.786 134.139 305.182 135.161 298.11 135.161C292.217 135.161 287.202 134.906 282.369 133.021C277.656 131.018 273.528 128.19 269.991 124.539C266.573 120.884 263.923 116.586 262.032 111.636C260.148 106.572 259.205 100.972 259.205 94.8443C259.205 88.5996 260.146 83.0048 262.032 78.0535C263.923 72.9891 266.573 68.6285 269.991 64.9772C273.41 61.3246 277.475 58.5549 282.194 56.6693C287.028 54.668 292.156 53.9497 297.931 53.9497L298.145 53.9497C303.379 53.9494 308.717 53.949 313.14 55.9234C317.624 57.9247 320.394 59.2129 324.635 62.3456C325.441 62.9411 326.133 63.9725 326.801 64.9671L326.802 64.9685C326.981 65.2355 327.159 65.4997 327.336 65.7522V57.5293ZM312.66 122.071C317.096 119.427 320.566 115.696 323.078 110.873C325.031 107.207 326.181 103.056 326.548 98.4266L326.449 90.7161C325.952 85.8069 324.643 81.3924 322.485 77.4924C319.809 72.7648 316.206 69.099 311.682 66.4963C307.271 63.895 302.238 62.6437 296.581 62.7437C290.803 62.845 285.755 64.274 281.448 67.0332C277.128 69.7911 273.778 73.5792 271.388 78.399C268.998 83.22 267.857 88.8332 267.968 95.2424C268.087 101.65 269.362 107.159 271.802 111.778C274.36 116.513 277.846 120.124 282.252 122.609C286.66 125.212 291.752 126.463 297.526 126.359C303.183 126.259 308.233 124.831 312.66 122.071Z" fill="#3AA6A6"/>
<path d="M212.123 131.579H222.047V144.737L212.147 138.158L212.123 131.579Z" fill="#3AA6A6"/>
<path d="M419.415 127.631L429.08 57.8947V144.369L419.415 137.79V127.631Z" fill="#3AA6A6"/>
<path fill-rule="evenodd" clip-rule="evenodd" d="M420.854 137.633C421.56 138.457 422.742 138.869 424.393 138.869C425.571 138.869 426.514 138.693 427.222 138.34C427.931 137.985 428.399 137.395 428.634 136.573C428.991 135.627 429.166 134.449 429.166 133.037V59.9623C429.166 59.7183 429.169 59.5012 429.171 59.3042C429.185 58.1691 429.191 56.3843 428.63 55.2631C428.305 54.6131 428.023 54.2999 427.314 53.9473C426.818 53.5506 426.128 53.5608 425.222 53.5743C425.05 53.5768 424.869 53.5795 424.681 53.5795C422.79 53.5795 421.325 53.8781 420.5 54.94L420.446 55.0115C419.776 55.9031 419.44 57.6663 419.44 59.9623V71.3531C418.973 70.73 418.495 70.0749 418.007 69.4055L418.005 69.4039C415.907 66.5268 413.614 63.3839 411.13 61.3755C408.18 58.9005 404.705 56.9557 400.696 55.5439C396.803 54.1308 392.041 53.9473 386.503 53.9473C380.842 53.9473 375.582 54.5413 370.632 56.7821C365.801 58.9018 361.497 61.9071 357.722 65.7952C354.068 69.5663 351.18 73.9834 349.056 79.0505C347.054 83.9992 346.052 89.361 346.052 95.1333C346.052 101.143 347.054 106.743 349.056 111.924C351.18 116.993 354.545 121.403 358.198 125.29C361.855 129.181 365.21 130.944 370.046 133.185C375.514 134.648 380.724 135.158 386.503 135.158C392.751 135.158 398.351 134.648 402.959 133.185C408.225 131.211 411.437 129.316 414.149 126.606C416.975 123.778 418.141 122.118 419.439 119.878V133.037C419.674 135.275 420.147 136.808 420.854 137.633ZM401.901 122.071C406.337 119.427 409.807 115.696 412.319 110.873C414.272 107.207 415.422 103.056 415.789 98.4266L415.69 90.7161C415.193 85.8069 413.884 81.3924 411.726 77.4924C409.05 72.7648 405.447 69.099 400.923 66.4963C396.512 63.895 391.479 62.6437 385.822 62.7437C380.044 62.845 374.996 64.274 370.689 67.0332C366.369 69.7911 363.019 73.5792 360.629 78.399C358.239 83.22 357.098 88.8332 357.209 95.2424C357.328 101.65 358.603 107.159 361.043 111.778C363.601 116.513 367.087 120.124 371.493 122.609C375.901 125.212 380.993 126.463 386.767 126.359C392.424 126.259 397.474 124.831 401.901 122.071Z" fill="#3AA6A6"/>
</svg>
