<svg width="632" height="504" viewBox="0 0 632 504" fill="none" xmlns="http://www.w3.org/2000/svg" xmlns:xlink="http://www.w3.org/1999/xlink">
<g clip-path="url(#clip0_1_992)">
<rect width="690" height="504" rx="10" fill="white"/>
<rect x="-288" y="-39.2169" width="1276.08" height="932.093" rx="18.4939" transform="rotate(-12.8032 -288 -39.2169)" fill="url(#pattern0_1_992)"/>
</g>
<defs>
<clipPath id="clip0_1_992">
<rect width="632" height="504" fill="white"/>
</clipPath>
<pattern id="pattern0_1_992" patternUnits="userSpaceOnUse" patternTransform="matrix(137.728 0 0 254.68 297.067 -39.2169)" preserveAspectRatio="none" viewBox="0 0 238.821 441.617" width="1" height="1">
<use xlink:href="#pattern0_1_992_inner" transform="translate(-238.821 0)"/>
<g id="pattern0_1_992_inner">
<path d="M89.0768 0C141.34 0.000114763 183.709 42.3682 183.709 94.6318V102.519C183.709 154.782 141.34 197.15 89.0768 197.15H71.691V151.6C74.6055 152.089 77.5996 152.344 80.653 152.344C110.348 152.344 134.421 128.271 134.421 98.5752C134.421 68.8799 110.348 44.8068 80.653 44.8066C77.5996 44.8066 74.6054 45.0609 71.691 45.5498V0H89.0768Z" fill="#9A92FF"/>
<circle cx="79.7567" cy="99.4713" r="22.4034" fill="#9A92FF"/>
<path d="M70.7957 0C78.2197 0.000257152 101.264 9.13417 101.264 21.5068C101.264 27.9972 119.118 37.5577 112.017 42.1182C107.711 44.8835 98.7388 45.1489 87.9041 45.292C85.5326 44.9723 83.1121 44.8066 80.6531 44.8066C77.3015 44.8066 74.0214 45.1134 70.8396 45.7002C70.8249 45.7009 70.8103 45.7024 70.7957 45.7031C63.3718 45.7031 57.3533 34.7764 57.3533 22.4033C57.3533 10.0303 63.3718 0 70.7957 0Z" fill="#9A92FF"/>
<path d="M69.6375 151.214C73.1932 151.954 76.8777 152.344 80.6531 152.344C84.2722 152.344 87.8076 151.985 91.2263 151.303C93.3343 151.335 96.0064 151.379 99.4714 151.447C115.806 153.418 121.876 159.099 121.876 168.473C121.876 181.341 83.7832 197.15 74.3796 197.15C64.9762 197.15 57.3533 186.718 57.3533 173.85C57.3534 163.24 62.5558 153.796 69.6375 151.214Z" fill="#9A92FF"/>
<path d="M22.4033 13.4421C34.7764 13.4421 44.8066 32.4998 44.8066 56.0085C44.8066 56.857 44.7914 57.6997 44.7656 58.5359C33.9869 68.2034 27.1341 82.1595 26.8916 97.7205C25.4415 98.2807 23.9405 98.575 22.4033 98.575C10.0303 98.575 0 99.6804 0 76.1716C4.77418e-05 52.6628 10.0303 13.4424 22.4033 13.4421Z" fill="#9A92FF"/>
<path d="M0.583462 82.9251C11.2786 82.9251 21.5358 78.6765 29.0984 71.1138C36.661 63.5512 40.9097 53.2941 40.9097 42.5989C40.9097 31.9037 36.661 21.6466 29.0984 14.084C21.5358 6.52135 11.2786 2.27271 0.583466 2.27271L0.583462 42.5989V82.9251Z" fill="#9A92FF"/>
</g>
<use xlink:href="#pattern0_1_992_inner" transform="translate(-119.411 220.808)"/>
<use xlink:href="#pattern0_1_992_inner" transform="translate(119.411 220.808)"/>
</pattern></defs>
</svg>
