<svg width="792" height="150" viewBox="0 0 792 150" fill="none" xmlns="http://www.w3.org/2000/svg">
<rect x="778.787" y="46.7024" width="12.2728" height="10.9091" rx="5.45457" fill="#9A92FF"/>
<path d="M-6.10352e-05 61.3639C8.1373 61.3639 15.9414 58.1313 21.6953 52.3774C27.4493 46.6234 30.6819 38.8193 30.6819 30.6819C30.6819 22.5446 27.4493 14.7405 21.6954 8.98654C15.9414 3.23255 8.1373 1.22871e-06 -5.53131e-05 0L-6.10352e-05 30.6819V61.3639Z" fill="#9A92FF"/>
<path d="M64.7722 0C106.193 0 139.772 33.5789 139.772 75C139.772 116.421 106.193 149.999 64.7722 149.999H54.5457V115.341C56.7632 115.713 59.0408 115.909 61.364 115.909C83.9575 115.909 102.273 97.5935 102.273 75C102.273 52.4066 83.9574 34.0909 61.364 34.0908C59.0408 34.0908 56.7631 34.2871 54.5457 34.6592V0H64.7722Z" fill="#9A92FF"/>
<circle cx="60.6825" cy="75.6819" r="17.0455" fill="#9A92FF"/>
<path d="M53.8645 0C59.513 0.000183185 77.0456 6.94964 77.0461 16.3633C77.0461 21.3014 90.6306 28.5761 85.2278 32.0459C81.9495 34.151 75.1164 34.3511 66.8665 34.46C65.0668 34.218 63.2304 34.0908 61.3645 34.0908C58.8198 34.0908 56.3294 34.3249 53.9133 34.7695C53.897 34.7703 53.8808 34.7716 53.8645 34.7725C48.2162 34.7725 43.6371 26.4597 43.637 17.0459C43.637 7.63191 48.2161 0 53.8645 0Z" fill="#9A92FF"/>
<path d="M52.9832 115.049C55.6884 115.612 58.4916 115.909 61.364 115.909C64.1154 115.909 66.8029 115.635 69.4021 115.117C71.007 115.142 73.0424 115.175 75.6824 115.227C88.1105 116.726 92.7273 121.049 92.7273 128.182C92.7265 137.972 63.7451 149.999 56.5906 149.999C49.4362 149.999 43.6366 142.063 43.6365 132.273C43.6365 124.199 47.5948 117.014 52.9832 115.049Z" fill="#9A92FF"/>
<path d="M17.0469 10.2273C26.4607 10.2277 34.0918 24.7277 34.0918 42.614C34.0918 43.2596 34.0802 43.9007 34.0605 44.5369C25.8598 51.892 20.6478 62.5094 20.4629 74.3484C19.3591 74.7751 18.217 75.0007 17.0469 75.0007C7.6329 75.0007 0.000995962 75.8413 0.000976562 57.9548C0.000976562 40.0683 7.63289 10.2273 17.0469 10.2273Z" fill="#9A92FF"/>
<path d="M196.295 44.6723C200.999 44.6723 205.18 45.5543 208.839 47.3183C212.498 49.0823 215.568 51.565 218.051 54.7664C220.599 57.9024 222.494 61.561 223.735 65.7424C225.042 69.8584 225.695 74.2684 225.695 78.9724C225.695 85.3098 224.552 91.0918 222.265 96.3185C219.978 101.48 216.646 105.596 212.269 108.667C207.957 111.737 202.632 113.273 196.295 113.273H172.873C171.174 113.273 169.737 112.717 168.561 111.607C167.45 110.431 166.895 108.993 166.895 107.295V50.6503C166.895 48.9517 167.45 47.547 168.561 46.4363C169.737 45.2603 171.174 44.6723 172.873 44.6723H196.295ZM195.315 102.003C199.431 102.003 202.796 100.957 205.409 98.8665C208.022 96.7105 209.917 93.9012 211.093 90.4385C212.334 86.9105 212.955 83.0885 212.955 78.9724C212.955 75.9018 212.596 72.9944 211.877 70.2504C211.224 67.4411 210.178 64.9911 208.741 62.9004C207.304 60.7444 205.474 59.0457 203.253 57.8044C201.032 56.563 198.386 55.9424 195.315 55.9424H178.165L179.145 55.0604V103.081L178.557 102.003H195.315ZM244.104 107.295C244.104 108.993 243.549 110.431 242.438 111.607C241.327 112.717 239.923 113.273 238.224 113.273C236.525 113.273 235.121 112.717 234.01 111.607C232.899 110.431 232.344 108.993 232.344 107.295V66.8204C232.344 65.1217 232.899 63.7171 234.01 62.6064C235.121 61.4304 236.525 60.8424 238.224 60.8424C239.923 60.8424 241.327 61.4304 242.438 62.6064C243.549 63.7171 244.104 65.1217 244.104 66.8204V107.295ZM238.126 54.4724C235.905 54.4724 234.337 54.113 233.422 53.3943C232.507 52.6757 232.05 51.4017 232.05 49.5723V47.7103C232.05 45.8157 232.54 44.5416 233.52 43.8883C234.565 43.1696 236.133 42.8103 238.224 42.8103C240.511 42.8103 242.111 43.1696 243.026 43.8883C243.941 44.607 244.398 45.881 244.398 47.7103V49.5723C244.398 51.467 243.908 52.7737 242.928 53.4923C241.948 54.1457 240.347 54.4724 238.126 54.4724ZM259.13 113.273C257.431 113.273 256.027 112.717 254.916 111.607C253.805 110.431 253.25 108.993 253.25 107.295V66.8204C253.25 65.1217 253.805 63.7171 254.916 62.6064C256.027 61.4304 257.431 60.8424 259.13 60.8424C260.829 60.8424 262.233 61.4304 263.344 62.6064C264.455 63.7171 265.01 65.1217 265.01 66.8204V76.0324L264.324 69.4664C265.043 67.8984 265.958 66.5264 267.068 65.3504C268.244 64.1091 269.551 63.0964 270.988 62.3124C272.426 61.463 273.961 60.8424 275.594 60.4504C277.228 60.0584 278.861 59.8624 280.494 59.8624C282.454 59.8624 284.088 60.4177 285.394 61.5284C286.766 62.6391 287.452 63.9457 287.452 65.4484C287.452 67.6044 286.897 69.1724 285.786 70.1524C284.676 71.0671 283.467 71.5244 282.16 71.5244C280.919 71.5244 279.776 71.2958 278.73 70.8384C277.75 70.3811 276.607 70.1524 275.3 70.1524C274.124 70.1524 272.916 70.4464 271.674 71.0344C270.498 71.5571 269.388 72.4064 268.342 73.5824C267.362 74.7584 266.546 76.2284 265.892 77.9924C265.304 79.6911 265.01 81.7165 265.01 84.0685V107.295C265.01 108.993 264.455 110.431 263.344 111.607C262.233 112.717 260.829 113.273 259.13 113.273ZM315.297 114.253C309.744 114.253 304.909 113.109 300.793 110.823C296.743 108.471 293.607 105.302 291.385 101.317C289.229 97.3312 288.151 92.8232 288.151 87.7925C288.151 81.9125 289.327 76.9144 291.679 72.7984C294.097 68.6171 297.233 65.4157 301.087 63.1944C304.942 60.973 309.025 59.8624 313.337 59.8624C316.669 59.8624 319.805 60.5484 322.745 61.9204C325.751 63.2924 328.397 65.1871 330.683 67.6044C332.97 69.9564 334.767 72.7004 336.073 75.8364C337.445 78.9724 338.131 82.3045 338.131 85.8325C338.066 87.4005 337.445 88.6745 336.269 89.6545C335.093 90.6345 333.721 91.1245 332.153 91.1245H294.717L291.777 81.3245H327.743L325.587 83.2845V80.6385C325.457 78.7438 324.771 77.0451 323.529 75.5424C322.353 74.0398 320.851 72.8638 319.021 72.0144C317.257 71.0997 315.363 70.6424 313.337 70.6424C311.377 70.6424 309.548 70.9037 307.849 71.4264C306.151 71.9491 304.681 72.8311 303.439 74.0724C302.198 75.3138 301.218 76.9798 300.499 79.0704C299.781 81.1611 299.421 83.8071 299.421 87.0085C299.421 90.5365 300.14 93.5418 301.577 96.0245C303.08 98.4419 304.975 100.304 307.261 101.611C309.613 102.852 312.096 103.473 314.709 103.473C317.127 103.473 319.054 103.277 320.491 102.885C321.929 102.493 323.072 102.035 323.921 101.513C324.836 100.925 325.653 100.435 326.371 100.043C327.547 99.4545 328.658 99.1605 329.703 99.1605C331.141 99.1605 332.317 99.6505 333.231 100.631C334.211 101.611 334.701 102.754 334.701 104.061C334.701 105.825 333.787 107.425 331.957 108.863C330.259 110.3 327.874 111.574 324.803 112.685C321.733 113.73 318.564 114.253 315.297 114.253ZM346.054 61.8224H369.28C370.848 61.8224 372.155 62.345 373.2 63.3904C374.246 64.4357 374.768 65.7424 374.768 67.3104C374.768 68.8131 374.246 70.0871 373.2 71.1324C372.155 72.1124 370.848 72.6024 369.28 72.6024H346.054C344.486 72.6024 343.18 72.0798 342.134 71.0344C341.089 69.9891 340.566 68.6824 340.566 67.1144C340.566 65.6117 341.089 64.3704 342.134 63.3904C343.18 62.345 344.486 61.8224 346.054 61.8224ZM356.54 49.5723C358.239 49.5723 359.611 50.1603 360.656 51.3363C361.767 52.447 362.322 53.8517 362.322 55.5504V99.1605C362.322 100.075 362.486 100.827 362.812 101.415C363.204 102.003 363.694 102.427 364.282 102.689C364.936 102.95 365.622 103.081 366.34 103.081C367.124 103.081 367.843 102.95 368.496 102.689C369.15 102.362 369.901 102.199 370.75 102.199C371.665 102.199 372.482 102.623 373.2 103.473C373.984 104.322 374.376 105.498 374.376 107.001C374.376 108.83 373.364 110.333 371.338 111.509C369.378 112.685 367.255 113.273 364.968 113.273C363.596 113.273 362.061 113.175 360.362 112.979C358.729 112.717 357.161 112.162 355.658 111.313C354.221 110.398 353.012 109.026 352.032 107.197C351.052 105.367 350.562 102.852 350.562 99.6505V55.5504C350.562 53.8517 351.118 52.447 352.228 51.3363C353.404 50.1603 354.842 49.5723 356.54 49.5723ZM433.01 87.1065C433.01 92.4638 431.801 97.2005 429.384 101.317C427.032 105.367 423.83 108.536 419.78 110.823C415.794 113.109 411.319 114.253 406.354 114.253C401.388 114.253 396.88 113.109 392.829 110.823C388.844 108.536 385.643 105.367 383.225 101.317C380.873 97.2005 379.697 92.4638 379.697 87.1065C379.697 81.7491 380.873 77.0451 383.225 72.9944C385.643 68.8784 388.844 65.6771 392.829 63.3904C396.88 61.0384 401.388 59.8624 406.354 59.8624C411.319 59.8624 415.794 61.0384 419.78 63.3904C423.83 65.6771 427.032 68.8784 429.384 72.9944C431.801 77.0451 433.01 81.7491 433.01 87.1065ZM421.25 87.1065C421.25 83.7745 420.564 80.8998 419.192 78.4824C417.885 75.9998 416.088 74.0724 413.802 72.7004C411.58 71.3284 409.098 70.6424 406.354 70.6424C403.61 70.6424 401.094 71.3284 398.807 72.7004C396.586 74.0724 394.789 75.9998 393.417 78.4824C392.111 80.8998 391.457 83.7745 391.457 87.1065C391.457 90.3732 392.111 93.2478 393.417 95.7305C394.789 98.1479 396.586 100.043 398.807 101.415C401.094 102.787 403.61 103.473 406.354 103.473C409.098 103.473 411.58 102.787 413.802 101.415C416.088 100.043 417.885 98.1479 419.192 95.7305C420.564 93.2478 421.25 90.3732 421.25 87.1065ZM446.242 113.273C444.543 113.273 443.139 112.717 442.028 111.607C440.917 110.431 440.362 108.993 440.362 107.295V66.8204C440.362 65.1217 440.917 63.7171 442.028 62.6064C443.139 61.4304 444.543 60.8424 446.242 60.8424C447.941 60.8424 449.345 61.4304 450.456 62.6064C451.567 63.7171 452.122 65.1217 452.122 66.8204V76.0324L451.436 69.4664C452.155 67.8984 453.069 66.5264 454.18 65.3504C455.356 64.1091 456.663 63.0964 458.1 62.3124C459.537 61.463 461.073 60.8424 462.706 60.4504C464.339 60.0584 465.973 59.8624 467.606 59.8624C469.566 59.8624 471.199 60.4177 472.506 61.5284C473.878 62.6391 474.564 63.9457 474.564 65.4484C474.564 67.6044 474.009 69.1724 472.898 70.1524C471.787 71.0671 470.579 71.5244 469.272 71.5244C468.031 71.5244 466.887 71.2958 465.842 70.8384C464.862 70.3811 463.719 70.1524 462.412 70.1524C461.236 70.1524 460.027 70.4464 458.786 71.0344C457.61 71.5571 456.499 72.4064 455.454 73.5824C454.474 74.7584 453.657 76.2284 453.004 77.9924C452.416 79.6911 452.122 81.7165 452.122 84.0685V107.295C452.122 108.993 451.567 110.431 450.456 111.607C449.345 112.717 447.941 113.273 446.242 113.273ZM490.988 107.295C490.988 108.993 490.433 110.431 489.322 111.607C488.212 112.717 486.807 113.273 485.108 113.273C483.41 113.273 482.005 112.717 480.894 111.607C479.784 110.431 479.228 108.993 479.228 107.295V66.8204C479.228 65.1217 479.784 63.7171 480.894 62.6064C482.005 61.4304 483.41 60.8424 485.108 60.8424C486.807 60.8424 488.212 61.4304 489.322 62.6064C490.433 63.7171 490.988 65.1217 490.988 66.8204V107.295ZM485.01 54.4724C482.789 54.4724 481.221 54.113 480.306 53.3943C479.392 52.6757 478.934 51.4017 478.934 49.5723V47.7103C478.934 45.8157 479.424 44.5416 480.404 43.8883C481.45 43.1696 483.018 42.8103 485.108 42.8103C487.395 42.8103 488.996 43.1696 489.91 43.8883C490.825 44.607 491.282 45.881 491.282 47.7103V49.5723C491.282 51.467 490.792 52.7737 489.812 53.4923C488.832 54.1457 487.232 54.4724 485.01 54.4724ZM543.059 59.8624C544.757 59.8624 546.162 60.4177 547.273 61.5284C548.383 62.6391 548.939 64.0764 548.939 65.8404V107.295C548.939 108.993 548.383 110.431 547.273 111.607C546.162 112.717 544.757 113.273 543.059 113.273C541.36 113.273 539.955 112.717 538.845 111.607C537.734 110.431 537.179 108.993 537.179 107.295V102.493L539.335 103.375C539.335 104.224 538.877 105.269 537.963 106.511C537.048 107.687 535.807 108.863 534.239 110.039C532.671 111.215 530.809 112.227 528.653 113.077C526.562 113.861 524.275 114.253 521.793 114.253C517.285 114.253 513.201 113.109 509.543 110.823C505.884 108.471 502.977 105.269 500.821 101.219C498.73 97.1025 497.685 92.3985 497.685 87.1065C497.685 81.7491 498.73 77.0451 500.821 72.9944C502.977 68.8784 505.851 65.6771 509.445 63.3904C513.038 61.0384 517.023 59.8624 521.401 59.8624C524.21 59.8624 526.791 60.287 529.143 61.1364C531.495 61.9857 533.52 63.0637 535.219 64.3704C536.983 65.6771 538.322 67.0164 539.237 68.3884C540.217 69.6951 540.707 70.8057 540.707 71.7204L537.179 72.9944V65.8404C537.179 64.1417 537.734 62.737 538.845 61.6264C539.955 60.4504 541.36 59.8624 543.059 59.8624ZM523.263 103.473C526.137 103.473 528.653 102.754 530.809 101.317C532.965 99.8792 534.631 97.9192 535.807 95.4365C537.048 92.9538 537.669 90.1772 537.669 87.1065C537.669 83.9705 537.048 81.1611 535.807 78.6784C534.631 76.1958 532.965 74.2358 530.809 72.7984C528.653 71.3611 526.137 70.6424 523.263 70.6424C520.453 70.6424 517.971 71.3611 515.815 72.7984C513.659 74.2358 511.96 76.1958 510.719 78.6784C509.543 81.1611 508.955 83.9705 508.955 87.1065C508.955 90.1772 509.543 92.9538 510.719 95.4365C511.96 97.9192 513.659 99.8792 515.815 101.317C517.971 102.754 520.453 103.473 523.263 103.473ZM626.183 40.7523C627.882 40.7523 629.286 41.3076 630.397 42.4183C631.508 43.529 632.063 44.9663 632.063 46.7303V107.295C632.063 108.993 631.508 110.431 630.397 111.607C629.286 112.717 627.882 113.273 626.183 113.273C624.484 113.273 623.08 112.717 621.969 111.607C620.858 110.431 620.303 108.993 620.303 107.295V102.493L622.459 103.375C622.459 104.224 622.002 105.269 621.087 106.511C620.172 107.687 618.931 108.863 617.363 110.039C615.795 111.215 613.933 112.227 611.777 113.077C609.686 113.861 607.4 114.253 604.917 114.253C600.409 114.253 596.325 113.109 592.667 110.823C589.008 108.471 586.101 105.269 583.945 101.219C581.854 97.1025 580.809 92.3985 580.809 87.1065C580.809 81.7491 581.854 77.0451 583.945 72.9944C586.101 68.8784 588.975 65.6771 592.569 63.3904C596.162 61.0384 600.147 59.8624 604.525 59.8624C607.334 59.8624 609.915 60.287 612.267 61.1364C614.619 61.9857 616.644 63.0637 618.343 64.3704C620.107 65.6771 621.446 67.0164 622.361 68.3884C623.341 69.6951 623.831 70.8057 623.831 71.7204L620.303 72.9944V46.7303C620.303 45.0316 620.858 43.627 621.969 42.5163C623.08 41.3403 624.484 40.7523 626.183 40.7523ZM606.387 103.473C609.262 103.473 611.777 102.754 613.933 101.317C616.089 99.8792 617.755 97.9192 618.931 95.4365C620.172 92.9538 620.793 90.1772 620.793 87.1065C620.793 83.9705 620.172 81.1611 618.931 78.6784C617.755 76.1958 616.089 74.2358 613.933 72.7984C611.777 71.3611 609.262 70.6424 606.387 70.6424C603.578 70.6424 601.095 71.3611 598.939 72.7984C596.783 74.2358 595.084 76.1958 593.843 78.6784C592.667 81.1611 592.079 83.9705 592.079 87.1065C592.079 90.1772 592.667 92.9538 593.843 95.4365C595.084 97.9192 596.783 99.8792 598.939 101.317C601.095 102.754 603.578 103.473 606.387 103.473ZM666.552 114.253C660.999 114.253 656.164 113.109 652.048 110.823C647.997 108.471 644.861 105.302 642.64 101.317C640.484 97.3312 639.406 92.8232 639.406 87.7925C639.406 81.9125 640.582 76.9144 642.934 72.7984C645.351 68.6171 648.487 65.4157 652.342 63.1944C656.197 60.973 660.28 59.8624 664.592 59.8624C667.924 59.8624 671.06 60.5484 674 61.9204C677.006 63.2924 679.652 65.1871 681.938 67.6044C684.225 69.9564 686.022 72.7004 687.328 75.8364C688.7 78.9724 689.386 82.3045 689.386 85.8325C689.321 87.4005 688.7 88.6745 687.524 89.6545C686.348 90.6345 684.976 91.1245 683.408 91.1245H645.972L643.032 81.3245H678.998L676.842 83.2845V80.6385C676.712 78.7438 676.026 77.0451 674.784 75.5424C673.608 74.0398 672.106 72.8638 670.276 72.0144C668.512 71.0997 666.618 70.6424 664.592 70.6424C662.632 70.6424 660.803 70.9037 659.104 71.4264C657.405 71.9491 655.935 72.8311 654.694 74.0724C653.453 75.3138 652.473 76.9798 651.754 79.0704C651.035 81.1611 650.676 83.8071 650.676 87.0085C650.676 90.5365 651.395 93.5418 652.832 96.0245C654.335 98.4419 656.229 100.304 658.516 101.611C660.868 102.852 663.351 103.473 665.964 103.473C668.382 103.473 670.309 103.277 671.746 102.885C673.184 102.493 674.327 102.035 675.176 101.513C676.091 100.925 676.908 100.435 677.626 100.043C678.802 99.4545 679.913 99.1605 680.958 99.1605C682.396 99.1605 683.572 99.6505 684.486 100.631C685.466 101.611 685.956 102.754 685.956 104.061C685.956 105.825 685.042 107.425 683.212 108.863C681.514 110.3 679.129 111.574 676.058 112.685C672.988 113.73 669.819 114.253 666.552 114.253ZM745.454 113.273C743.625 113.273 742.122 112.717 740.946 111.607C739.77 110.431 739.182 108.993 739.182 107.295V50.4543H751.922V107.295C751.922 108.993 751.301 110.431 750.06 111.607C748.884 112.717 747.349 113.273 745.454 113.273ZM723.796 55.9424C722.097 55.9424 720.66 55.4197 719.484 54.3744C718.373 53.329 717.818 51.957 717.818 50.2583C717.818 48.5597 718.373 47.2203 719.484 46.2403C720.66 45.195 722.097 44.6723 723.796 44.6723H767.308C769.007 44.6723 770.411 45.195 771.522 46.2403C772.698 47.2857 773.286 48.6577 773.286 50.3563C773.286 52.055 772.698 53.427 771.522 54.4724C770.411 55.4524 769.007 55.9424 767.308 55.9424H723.796Z" fill="#9A92FF"/>
<rect x="778.787" y="63.2352" width="12.2728" height="50.4548" rx="6.13639" fill="#9A92FF"/>
</svg>
