<svg width="199" height="198" viewBox="0 0 199 198" fill="none" xmlns="http://www.w3.org/2000/svg">
<ellipse cx="99.0311" cy="98.5737" rx="99.0311" ry="98.5737" fill="#9A92FF"/>
<path d="M73.3352 60.1489C73.3352 45.6357 61.5153 33.8704 46.9347 33.8704V86.4274C61.5153 86.4274 73.3352 74.6621 73.3352 60.1489Z" fill="white"/>
<path d="M103.525 33.8704C138.693 33.8704 167.204 62.9383 167.204 98.1067C167.204 133.275 138.693 162.343 103.525 162.343H93.8687V132.657C95.7767 132.976 97.7368 133.145 99.7358 133.145C119.176 133.145 134.936 117.458 134.936 98.1067C134.936 78.7558 119.176 63.0688 99.7358 63.0686C97.7368 63.0686 95.7767 63.2363 93.8687 63.5549V33.8704H103.525Z" fill="white"/>
<ellipse cx="99.1491" cy="98.6906" rx="14.6669" ry="14.5992" fill="white"/>
<path d="M93.282 33.8704C98.1422 33.8704 113.229 39.8231 113.229 47.886C113.23 52.1154 124.918 58.3449 120.269 61.3167C117.449 63.1192 111.572 63.2918 104.476 63.385C102.926 63.1773 101.344 63.0686 99.7361 63.0686C97.5445 63.0686 95.3998 63.2691 93.3191 63.6506C93.3068 63.6512 93.2942 63.652 93.282 63.6526C88.422 63.6522 84.4823 56.5325 84.4822 48.47C84.4822 40.4073 88.422 33.8707 93.282 33.8704Z" fill="white"/>
<path d="M92.5261 132.409C94.8534 132.891 97.265 133.145 99.7361 133.145C102.102 133.145 104.412 132.91 106.647 132.467C108.029 132.488 109.782 132.516 112.056 132.561C122.75 133.845 126.722 137.548 126.722 143.657C126.722 152.042 101.785 162.343 95.6287 162.343C89.4727 162.343 84.4824 155.546 84.4822 147.161C84.4822 140.245 87.889 134.091 92.5261 132.409Z" fill="white"/>
<path d="M61.6018 42.6296C69.7021 42.6297 76.2687 55.0485 76.2688 70.3679C76.2688 70.9213 76.2584 71.471 76.2415 72.0164C69.1858 78.3157 64.7015 87.4085 64.5422 97.5476C63.5921 97.9133 62.609 98.1062 61.6018 98.1062C53.5015 98.1062 46.9349 98.8269 46.9348 83.5076C46.9348 68.188 53.5015 42.6296 61.6018 42.6296Z" fill="white"/>
</svg>
