<svg width="233" height="86" viewBox="0 0 233 86" fill="none" xmlns="http://www.w3.org/2000/svg">
<g clip-path="url(#clip0_122_485)">
<path d="M14.9455 68.1818L14.1818 67.8545C13.7455 67.8545 13.3818 67.8182 13.0909 67.7455L12 66.9818C11.5636 66.9818 11.3455 67.1273 11.3455 67.4182C11.2727 67.6364 11.1273 67.7455 10.9091 67.7455L10.0364 67.3091C10.0364 67.3818 9.85454 67.4545 9.49091 67.5273C9.27273 67.1636 8.94545 66.8364 8.50909 66.5455C8.50909 66.5455 8.32727 66.6182 7.96363 66.7636C7.67273 66.6182 7.23636 66.2909 6.65454 65.7818L5.67273 64.8L4.90909 64.9091C4.83636 64.7636 4.72727 64.5818 4.58182 64.3636C4.43636 64.0727 4.29091 63.7818 4.14545 63.4909C4.14545 63.3454 3.92727 63.1273 3.49091 62.8364L3.05454 61.4182C3.05454 61.3454 2.94545 61.2727 2.72727 61.2C2.65454 61.2727 2.50909 61.3091 2.29091 61.3091C2.14545 61.3091 2 61.2 1.85454 60.9818L1.30909 58.6909C1.23636 58.4 1.16363 58.1454 1.09091 57.9273C1.09091 57.6364 1.09091 57.4182 1.09091 57.2727L0.763636 56.8364C0.763636 56.6909 0.727273 56.4727 0.654545 56.1818C0.581818 55.8909 0.509091 55.5273 0.436363 55.0909L0.218182 53.7818C0.290909 53.0545 0.327272 52.5818 0.327272 52.3636C0.327272 52.1454 0.363636 52.1091 0.436363 52.2545L1.30909 51.8182C1.01818 51.6727 0.8 51.6 0.654545 51.6L0.763636 50.7273L0.218182 50.1818C0.145454 49.8182 0.0727273 49.4545 0 49.0909C0 48.6545 0.0363637 48.2909 0.109091 48L0.218182 47.5636H0.763636C0.981818 47.2 1.09091 46.8 1.09091 46.3636L0.327272 45.9273C0.327272 45.7091 0.327272 45.4545 0.327272 45.1636C0.327272 44.8727 0.290909 44.5818 0.218182 44.2909C0.290909 43.6364 0.363636 43.0545 0.436363 42.5454C0.509091 42.0364 0.581818 41.6364 0.654545 41.3454C0.727273 41.2 0.981818 40.9091 1.41818 40.4727C1.2 40.2545 0.981818 40.1091 0.763636 40.0364V39.4909C0.981818 39.2727 1.12727 39.0545 1.2 38.8364C1.34545 38.4727 1.49091 37.8909 1.63636 37.0909C1.70909 37.0182 1.92727 36.9818 2.29091 36.9818L3.05454 37.0909C3.05454 37.0909 3.12727 37.0182 3.27273 36.8727L2.83636 36.1091C2.69091 36.1091 2.58182 36.1454 2.50909 36.2182C2.21818 36.2909 2.03636 36.4727 1.96363 36.7636C1.38182 36.6909 1.09091 36.2909 1.09091 35.5636L1.30909 31.8545C1.67273 31.2727 1.85454 30.6182 1.85454 29.8909L1.52727 28.6909C1.6 28.5454 1.63636 28.3636 1.63636 28.1454C1.63636 27.8545 1.67273 27.5636 1.74545 27.2727L2.50909 26.8364C2.36363 26.8364 2.21818 26.8 2.07273 26.7273L2.18182 25.2C2.25454 25.2 2.32727 25.0909 2.4 24.8727C2.4 24.8 2.18182 24.5454 1.74545 24.1091L2.29091 20.8364C2.50909 20.6182 2.65454 20.4 2.72727 20.1818C2.87273 19.6727 3.05454 19.3091 3.27273 19.0909C3.56363 18.8 3.70909 18.5454 3.70909 18.3273L3.6 18.1091C3.6 18.0364 3.6 17.8545 3.6 17.5636C3.6 17.2727 3.63636 16.8727 3.70909 16.3636C3.70909 16.1454 3.67273 15.9273 3.6 15.7091C3.6 15.4182 3.6 15.1273 3.6 14.8364C3.6 13.7454 3.70909 12.3273 3.92727 10.5818C4 10.5818 4.14545 10.6909 4.36363 10.9091H4.58182C4.65454 10.9091 4.69091 10.8364 4.69091 10.6909L4.47273 9.92727L4.25454 9.05455C4.25454 8.76364 4.36363 8.47273 4.58182 8.18182C4.87273 8.03636 5.16363 7.81818 5.45454 7.52727L5.89091 5.89091C6.10909 5.6 6.61818 5.27273 7.41818 4.90909C7.41818 5.34546 7.6 5.56364 7.96363 5.56364H8.18182C8.54545 5.56364 8.72727 5.34546 8.72727 4.90909L8.4 3.81818L10.2545 2.18182L10.3636 2.07273C10.5091 2.07273 11.0182 2.43637 11.8909 3.16364L12 3.05455C12.1455 2.90909 12.2182 2.76364 12.2182 2.61818C12.2182 2.10909 12.1455 1.92727 12 2.07273L12.1091 1.41818H13.4182L14.1818 1.09091C14.5455 0.945451 14.7636 0.909085 14.8364 0.981812L15.3818 1.2C15.3818 1.27273 15.3818 1.38182 15.3818 1.52728C15.3818 1.67273 15.3455 1.89091 15.2727 2.18182L15.6 2.29091C15.8909 2.29091 16.0727 2.14545 16.1455 1.85454V1.09091C16.1455 0.945451 16.1091 0.799996 16.0364 0.654543C16.0364 0.509086 16.0364 0.399995 16.0364 0.327268C16.4 0.109089 16.8 0.0363632 17.2364 0.109089L18.3273 0.436358L19.4182 0.218179L20.4 0C20.6182 0 20.9818 0.145452 21.4909 0.436358C21.4909 0.509088 21.7091 0.545454 22.1455 0.545454H23.4545L24.7636 0.872722C24.8364 0.945449 24.9091 1.01818 24.9818 1.09091C25.0545 1.16364 25.1636 1.23636 25.3091 1.30909L25.7455 1.2H26.0727C26.5091 1.2 27.2 1.74546 28.1455 2.83636L29.2364 3.16364C29.3818 3.30909 29.5273 3.49091 29.6727 3.70909C30.3273 4 30.7636 4.43637 30.9818 5.01819C31.0545 5.09091 31.0909 5.45455 31.0909 6.10909C31.2364 6.61818 31.4909 7.01818 31.8545 7.30909C31.9273 7.38182 32.0727 7.49091 32.2909 7.63637C32.5091 7.78182 32.8364 7.92727 33.2727 8.07273C33.7091 8.72728 33.8909 9.2 33.8182 9.49091C33.8182 9.56364 33.5273 9.78182 32.9455 10.1454C32.3636 10.5091 32.0727 10.7273 32.0727 10.8C32.0727 10.9454 32.1091 11.1636 32.1818 11.4545C32.2545 11.6727 32.4364 11.8909 32.7273 12.1091L33.4909 12.7636C33.5636 12.7636 33.6 12.8 33.6 12.8727C33.7455 13.0182 33.8182 13.2 33.8182 13.4182L34.2545 13.6364L34.5818 16.5818L34.2545 22.0364C34.1818 22.1091 34.1091 22.1818 34.0364 22.2545C33.9636 22.3273 33.8909 22.4364 33.8182 22.5818C33.8182 22.8727 33.7818 23.2 33.7091 23.5636C33.7091 23.9273 33.6727 24.3636 33.6 24.8727L33.3818 25.3091L32.6182 25.2C32.4 25.2727 32.0364 25.3091 31.5273 25.3091C31.3818 25.3091 31.0909 25.2 30.6545 24.9818C30.2182 24.7636 29.9273 24.6545 29.7818 24.6545C29.2727 24.7273 28.7273 24.8364 28.1455 24.9818C27.5636 25.0545 26.9455 25.1273 26.2909 25.2C26.0727 24.9818 25.8545 24.8364 25.6364 24.7636C25.4909 24.8364 25.2 24.8727 24.7636 24.8727L22.5818 24.5454C22.2182 24.1818 22.0364 23.7818 22.0364 23.3454C22.0364 23.1273 22.2545 22.7636 22.6909 22.2545L22.5818 21.7091C22.6545 21.6364 22.6909 21.5273 22.6909 21.3818C22.6909 21.2364 22.7273 21.0545 22.8 20.8364C22.7273 19.3818 22.9091 17.7818 23.3455 16.0364C23.1273 15.8909 22.8364 15.6 22.4727 15.1636C22.9818 15.0182 23.5636 14.7273 24.2182 14.2909V13.8545L23.8909 13.7454C23.8909 13.7454 23.6 13.9636 23.0182 14.4L22.5818 14.2909L22.6909 12.7636C22.9818 12.6182 23.2364 12.4364 23.4545 12.2182C23.4545 11.7818 23.3455 11.4182 23.1273 11.1273L21.9273 12.2182L20.9455 11.5636C20.5818 11.4182 20.0727 11.3091 19.4182 11.2364C19.3455 11.3091 19.2 11.3454 18.9818 11.3454C18.9091 11.3454 18.6909 11.1636 18.3273 10.8L16.3636 12.3273C15.7818 12.8364 15.4182 13.3818 15.2727 13.9636C14.8364 13.9636 14.6182 14.2909 14.6182 14.9454L14.9455 16.3636C14.9455 16.6545 14.8 16.9091 14.5091 17.1273C14.1455 16.9818 13.8909 16.6182 13.7455 16.0364L13.4182 15.9273L13.2 16.3636C13.2 16.5818 13.4182 16.8727 13.8545 17.2364L14.5091 17.6727C14.5091 18.1091 14.4727 18.4727 14.4 18.7636L14.7273 20.7273L14.1818 22.2545V23.5636L13.5273 24.4364V24.8727C13.5273 25.7454 13.2364 26.3636 12.6545 26.7273C12.9455 26.7273 13.3455 26.9454 13.8545 27.3818L12.4364 30.6545C12.5091 30.8727 12.5091 31.5636 12.4364 32.7273L12 39.6L12.5455 46.3636C12.5455 46.5818 12.3273 46.9818 11.8909 47.5636C11.9636 47.6364 12.0364 47.7454 12.1091 47.8909C12.2545 48.0364 12.4364 48.1818 12.6545 48.3273V48.6545L11.6727 48.9818C11.6727 49.0545 11.7091 49.1636 11.7818 49.3091C11.8545 49.3818 11.9273 49.4909 12 49.6364L12.2182 50.2909C11.7818 50.5818 11.4182 51.3091 11.1273 52.4727C11.4182 52.5454 11.6364 52.9091 11.7818 53.5636C11.9273 54.2182 11.8909 54.6545 11.6727 54.8727C11.7455 54.9454 12.1455 54.9818 12.8727 54.9818V55.5273L12.5455 55.9636C12.6182 56.0364 12.7636 56.1454 12.9818 56.2909C13.2 56.4364 13.4909 56.5818 13.8545 56.7273C13.8545 57.0909 14.0364 57.5636 14.4 58.1454L14.8364 58.0364L15.1636 57.9273C15.1636 57.9273 15.3818 58 15.8182 58.1454H16.1455C16.5091 58.1454 16.8 58.0364 17.0182 57.8182C17.0182 57.7454 17.1273 57.6727 17.3455 57.6C17.4909 57.4545 17.5636 57.3818 17.5636 57.3818V57.2727C17.4182 57.2727 17.3455 57.2727 17.3455 57.2727L17.0182 57.3818C17.0909 57.3091 17.2 57.2727 17.3455 57.2727L17.8909 57.0545L18.6545 56.8364C18.7273 56.8364 18.8 56.8727 18.8727 56.9454C18.8727 57.0182 18.9091 57.0545 18.9818 57.0545C19.2 57.0545 19.3818 56.8727 19.5273 56.5091C19.6727 56.3636 19.7091 56.0727 19.6364 55.6364C20.3636 55.2 20.5091 54.6182 20.0727 53.8909C20.4364 53.0909 20.5818 52.1091 20.5091 50.9454L20.8364 45.9273C21.1273 45.7818 21.4182 45.5636 21.7091 45.2727C22.0727 44.8364 22.2909 44.5454 22.3636 44.4C22.3636 44.4 22.3273 44.4 22.2545 44.4C22.1818 44.4 21.9273 44.1818 21.4909 43.7454C21.4182 43.5273 21.2 43.3091 20.8364 43.0909L18.5455 42.9818C18.4 43.1273 18.2545 43.2 18.1091 43.2L17.4545 42.8727C17.3818 42.8727 17.3091 42.9091 17.2364 42.9818C17.2364 42.9818 17.2 42.9818 17.1273 42.9818L16.5818 43.0909C16.5091 43.0909 16.4 43.0182 16.2545 42.8727C16.1818 42.8 16.0364 42.7636 15.8182 42.7636C15.7455 42.8364 15.4909 42.8727 15.0545 42.8727L14.8364 42.4364L14.9455 41.4545L14.8364 40.8V40.5818C14.8364 40.2909 14.9818 39.9273 15.2727 39.4909C15.5636 39.1273 15.7091 38.8727 15.7091 38.7273L15.2727 37.8545L15.6 37.2L15.2727 36.2182C15.4909 36 15.9273 35.6727 16.5818 35.2364C16.5818 35.1636 16.4727 35.0182 16.2545 34.8C16.2545 34.8 16.0727 34.9091 15.7091 35.1273H15.1636V34.5818C15.2364 34.5091 15.3091 34.4364 15.3818 34.3636C15.4545 34.2182 15.5273 34.1091 15.6 34.0364C15.6 34.0364 15.6727 33.7818 15.8182 33.2727C16.4 32.9091 16.7636 32.7273 16.9091 32.7273L17.5636 33.0545C17.9273 33.2727 18.1455 33.3818 18.2182 33.3818L18.6545 33.2727C18.8 33.2 18.9818 33.1636 19.2 33.1636L23.6727 32.9454C24.1091 33.0182 24.3636 33.2727 24.4364 33.7091L24.7636 34.8C24.9091 34.7273 25.3091 34.5091 25.9636 34.1454C26.4 33.7091 26.7636 33.5636 27.0545 33.7091L28.0364 34.0364C28.1818 33.9636 28.3273 33.9273 28.4727 33.9273C28.6182 33.9273 28.8 33.8909 29.0182 33.8182C29.3818 33.8909 29.7091 34 30 34.1454C30.3636 34.2182 30.7273 34.2909 31.0909 34.3636H31.3091C31.8909 34.3636 32.4 34.1091 32.8364 33.6C33.2 33.7454 33.3455 34.1818 33.2727 34.9091L32.6182 37.5273L32.8364 37.9636C32.9091 38.1818 32.9455 38.4364 32.9455 38.7273C32.8727 39.2364 32.6909 39.4909 32.4 39.4909L32.0727 39.3818C32 39.4545 31.9636 39.5636 31.9636 39.7091C31.9636 39.7091 32.0364 39.7818 32.1818 39.9273H32.6182C32.6182 40.2182 32.5818 40.5454 32.5091 40.9091C32.5091 41.2727 32.4727 41.7091 32.4 42.2182C32.1818 42.4364 32.0364 42.6545 31.9636 42.8727L32.0727 43.2C32.0727 43.5636 32.0727 44.0727 32.0727 44.7273C32.1455 45.3818 32.2182 46.2182 32.2909 47.2364C32.0727 47.4545 31.7455 47.5636 31.3091 47.5636C31.1636 47.4909 31.0182 47.5273 30.8727 47.6727C30.7273 47.8182 30.6909 47.9273 30.7636 48C30.9091 48.1454 31.1273 48.1818 31.4182 48.1091C31.4909 48.0364 31.6 48.0727 31.7455 48.2182C31.8909 49.2364 31.9636 50.1454 31.9636 50.9454C32.0364 51.7454 32.0364 52.4364 31.9636 53.0182L31.6364 54.8727C31.5636 55.3091 31.4909 55.7091 31.4182 56.0727C31.3455 56.3636 31.3091 56.6182 31.3091 56.8364L31.2 57.8182C31.0545 57.8182 30.7273 57.8909 30.2182 58.0364C29.7818 58.1091 29.5636 58.2182 29.5636 58.3636C29.5636 58.5818 30.1455 58.7273 31.3091 58.8V59.2364C31.3091 59.4545 31.3091 59.7091 31.3091 60C31.3091 60.2182 31.2727 60.5091 31.2 60.8727C30.9818 62.1091 30.9091 62.9454 30.9818 63.3818C30.9818 63.5273 30.9091 63.6727 30.7636 63.8182C30.8364 63.9636 30.8727 64.2182 30.8727 64.5818V64.9091C30.5818 65.0545 30.3273 65.2364 30.1091 65.4545C30.0364 65.3818 29.9636 65.3091 29.8909 65.2364C29.8182 65.1636 29.7455 65.0909 29.6727 65.0182C29.5273 65.0182 29.3818 65.0909 29.2364 65.2364L29.1273 66.2182L29.4545 66.3273C29.6727 66.3273 30.0727 66.1455 30.6545 65.7818L30.7636 66.4364L30.3273 67.8545C29.8182 67.7818 29.3091 67.7455 28.8 67.7455C28.3636 67.7455 27.9636 67.7091 27.6 67.6364L26.5091 67.4182C26.5091 67.3455 26.6545 67.3091 26.9455 67.3091C27.0182 67.3818 27.1636 67.3091 27.3818 67.0909L27.4909 66.7636C27.2 66.4727 26.8727 66.2909 26.5091 66.2182C26.1455 66.7273 25.8182 67.0182 25.5273 67.0909C25.3818 67.2364 25.3091 67.3818 25.3091 67.5273C25.0909 67.6727 24.6909 67.6727 24.1091 67.5273C23.9636 67.6727 23.8545 67.1636 23.7818 66L23.6727 64.9091C23.5273 64.7636 23.3091 64.6909 23.0182 64.6909C22.6545 64.6909 22.4364 64.7273 22.3636 64.8L21.3818 65.8909C21.3091 65.9636 21.1636 66.0364 20.9455 66.1091C20.8 66.1818 20.6182 66.2545 20.4 66.3273C20.2545 66.5455 19.9636 66.8364 19.5273 67.2L18.3273 67.6364C18.0364 67.6364 17.7091 67.6364 17.3455 67.6364C16.9818 67.6364 16.5455 67.6727 16.0364 67.7455C15.9636 67.8182 15.7818 67.9273 15.4909 68.0727C15.2 68.2182 15.0182 68.2545 14.9455 68.1818ZM12.6545 11.2364C12.8 11.3091 12.9455 11.2727 13.0909 11.1273C13.2364 10.9818 13.2364 10.8364 13.0909 10.6909C12.9455 10.6909 12.8 10.8727 12.6545 11.2364ZM10.5818 14.8364C10.8 14.8364 11.2727 14.5818 12 14.0727C11.5636 14 11.2364 13.8545 11.0182 13.6364L10.3636 13.0909C10.4364 13.6727 10.4727 14.1091 10.4727 14.4C10.5455 14.6909 10.5818 14.8364 10.5818 14.8364ZM30.8727 14.9454C31.0182 15.0182 31.2364 14.9091 31.5273 14.6182C31.4545 14.5454 31.3455 14.5091 31.2 14.5091C30.9818 14.5091 30.8727 14.6545 30.8727 14.9454ZM28.6909 17.6727C28.7636 17.5273 28.7273 17.3818 28.5818 17.2364C28.5091 17.0909 28.3636 17.1273 28.1455 17.3454C28.1455 17.5636 28.3273 17.6727 28.6909 17.6727ZM27.7091 23.0182H27.8182C28.2545 23.0182 28.6182 22.8 28.9091 22.3636C29.3455 22.3636 29.7091 22.1454 30 21.7091L28.4727 20.0727L27.7091 20.8364C27.8545 21.2727 27.8545 22 27.7091 23.0182ZM11.3455 23.3454L11.4545 22.8H11.2364V23.3454H11.3455ZM11.4545 23.8909L11.5636 23.6727L11.4545 23.5636L11.2364 23.8909H11.4545ZM22.4727 35.8909C22.6909 35.6 22.7273 35.3454 22.5818 35.1273L21.8182 35.0182V35.7818L22.4727 35.8909ZM22.3636 36.9818C22.4364 36.9091 22.6182 36.8727 22.9091 36.8727V36.6545C22.9091 36.5818 22.8727 36.5454 22.8 36.5454C22.8 36.5454 22.8 36.5091 22.8 36.4364C22.5091 36.5091 22.3636 36.6909 22.3636 36.9818ZM7.96363 38.6182C8.03636 38.5454 8.07273 38.4 8.07273 38.1818C8 38.1091 7.85454 38.0727 7.63636 38.0727C7.78182 38.3636 7.89091 38.5454 7.96363 38.6182ZM6.65454 42.7636L6.76363 42.2182C6.54545 42 6.36363 41.5636 6.21818 40.9091C6.21818 40.4727 5.96363 40.2545 5.45454 40.2545H5.01818L4.90909 40.6909C4.90909 40.7636 4.90909 40.8364 4.90909 40.9091C4.98182 40.9091 5.01818 40.9454 5.01818 41.0182L5.12727 41.3454C5.12727 41.4909 5.12727 41.6727 5.12727 41.8909C5.12727 42.0364 5.16363 42.2545 5.23636 42.5454C5.30909 42.4727 5.52727 42.4364 5.89091 42.4364L6.65454 42.7636ZM8.4 44.0727C8.54545 43.9273 8.61818 43.8182 8.61818 43.7454C8.61818 43.5273 8.43636 43.4182 8.07273 43.4182C8 43.6364 8.10909 43.8545 8.4 44.0727ZM24.5455 47.5636L24.9818 47.3454L24.7636 47.0182C24.6909 47.0909 24.6545 47.1636 24.6545 47.2364C24.6545 47.3091 24.6182 47.4182 24.5455 47.5636ZM22.1455 55.4182C21.9273 55.6364 21.7818 55.8545 21.7091 56.0727C21.7091 56.2182 21.8545 56.4364 22.1455 56.7273V55.4182ZM1.74545 56.6182C1.96363 56.6909 2.18182 56.5818 2.4 56.2909C2.25454 56.1454 2.14545 56.0727 2.07273 56.0727C1.85454 56.0727 1.74545 56.2545 1.74545 56.6182ZM19.0909 57.9273V57.4909C19.0182 57.4182 18.8727 57.3818 18.6545 57.3818L18.5455 57.6C18.5455 57.7454 18.5818 57.8545 18.6545 57.9273H19.0909ZM24.8727 57.9273C24.9455 57.7818 24.9091 57.6364 24.7636 57.4909C24.6182 57.3454 24.4727 57.3454 24.3273 57.4909C24.3273 57.6364 24.5091 57.7818 24.8727 57.9273ZM3.16363 59.6727C3.52727 59.5273 3.74545 59.2727 3.81818 58.9091C3.89091 58.7636 3.85454 58.6182 3.70909 58.4727H3.38182L3.16363 59.6727ZM19.5273 59.1273C19.5273 58.8364 19.4545 58.6909 19.3091 58.6909L18.8727 58.5818L18.6545 59.0182L19.5273 59.1273ZM17.7818 63.9273C18.0727 63.9273 18.3273 63.7091 18.5455 63.2727L18.3273 63.0545C17.8182 63.1273 17.4909 63.2364 17.3455 63.3818C17.4182 63.4545 17.4909 63.5273 17.5636 63.6C17.6364 63.6727 17.7091 63.7818 17.7818 63.9273ZM38.0301 68.0727C37.521 68.0727 37.121 68 36.8301 67.8545C36.8301 66.9818 36.9392 65.7455 37.1574 64.1454C37.521 64 37.7392 63.7091 37.8119 63.2727V62.0727C37.8119 61.7091 37.8119 61.2364 37.8119 60.6545C37.8847 60 37.921 59.3091 37.921 58.5818C38.2847 58.4364 38.4665 58.1818 38.4665 57.8182V56.7273C38.4665 56.7273 38.3937 56.5818 38.2483 56.2909V54.2182C38.1028 53.8545 38.0665 53.4545 38.1392 53.0182L38.2483 52.2545C38.2483 52.1091 38.2483 51.9636 38.2483 51.8182C38.321 51.6727 38.3574 51.5636 38.3574 51.4909C38.4301 51.4182 38.5028 51.3454 38.5756 51.2727C38.6483 51.2 38.721 51.0909 38.7937 50.9454C38.9392 50.5091 39.0119 50.1454 39.0119 49.8545C39.0119 49.7818 38.9028 49.6 38.6847 49.3091C38.4665 49.0909 38.3574 48.9091 38.3574 48.7636C38.3574 48.8364 38.5028 48.5818 38.7937 48C39.0119 47.6364 39.121 47.2364 39.121 46.8L41.0847 45.0545C40.8665 44.9818 40.6483 44.8364 40.4301 44.6182L40.321 43.8545C40.321 43.6364 40.2119 43.4182 39.9937 43.2C39.7028 42.9818 39.5574 42.7636 39.5574 42.5454V42C39.5574 41.8545 39.5574 41.6364 39.5574 41.3454C39.5574 40.9818 39.5937 40.6182 39.6665 40.2545C39.7392 40.1818 39.7756 40.0727 39.7756 39.9273C39.7756 39.7818 39.8119 39.6 39.8847 39.3818L39.5574 38.2909C39.7028 38.1454 39.8119 37.9273 39.8847 37.6364C40.0301 37.2727 40.1756 36.9091 40.321 36.5454V36.3273C40.321 36.1818 40.2483 35.8182 40.1028 35.2364V35.1273C40.1028 34.9818 40.1028 34.8364 40.1028 34.6909C40.1756 34.4727 40.2119 34.2182 40.2119 33.9273L40.321 32.7273C40.3937 31.9273 40.4301 31.3454 40.4301 30.9818C40.5028 30.6182 40.5392 30.5091 40.5392 30.6545C40.5392 29.7091 40.5028 29.2727 40.4301 29.3454C40.5028 29.2 40.5756 29.0545 40.6483 28.9091C40.721 28.7636 40.7937 28.5454 40.8665 28.2545L40.9756 26.8364C41.1937 26.6182 41.4119 26.1818 41.6301 25.5273C41.4847 25.1636 41.3392 24.6182 41.1937 23.8909C41.1937 23.8182 41.3028 23.6727 41.521 23.4545C41.7392 23.2364 41.8483 23.0909 41.8483 23.0182L41.3028 22.3636V21.8182C41.2301 21.3818 41.2665 20.9454 41.4119 20.5091C41.7028 20.3636 41.8847 20.1454 41.9574 19.8545V19.5273C41.9574 19.3091 41.9574 19.0182 41.9574 18.6545C41.9574 18.2909 41.921 17.8545 41.8483 17.3454L41.6301 16.6909C41.5574 16.3273 41.6301 16.0364 41.8483 15.8182L42.5028 15.3818C42.4301 15.2364 42.3937 15.0182 42.3937 14.7273C42.3937 14.3636 42.3937 14 42.3937 13.6364C42.3937 13.4909 42.4301 13.3454 42.5028 13.2C42.5756 13.0545 42.6483 12.8364 42.721 12.5454L42.9392 11.6727C42.9392 11.6727 42.8665 11.5273 42.721 11.2364C42.5028 11.0182 42.3937 10.8727 42.3937 10.8C42.3937 10.2909 42.5392 9.85454 42.8301 9.49091C43.121 9.12727 43.2665 8.76364 43.2665 8.4L42.721 7.41818C42.721 7.27273 42.721 7.12727 42.721 6.98182C42.721 6.83636 42.7574 6.65455 42.8301 6.43636C42.9028 6.29091 42.9756 6.14546 43.0483 6C43.121 5.85455 43.1937 5.63636 43.2665 5.34545L43.0483 2.72727C43.0483 2.14545 43.2665 1.81818 43.7028 1.74546C44.0665 1.74546 44.3937 1.85455 44.6847 2.07273C44.9756 2.36364 45.1574 2.50909 45.2301 2.50909L48.0665 1.52728L48.9392 1.63637L49.7028 1.85454L50.2483 1.63637C50.5392 1.49091 50.6847 1.41818 50.6847 1.41818H52.321C52.321 1.49091 52.4301 1.56364 52.6483 1.63637C52.8665 1.70909 53.0483 1.74546 53.1938 1.74546L54.721 1.41818C54.8665 1.27273 55.0483 1.27273 55.2665 1.41818L55.7028 1.52728C55.8483 1.52728 56.2119 1.34546 56.7937 0.981812L57.3392 1.09091L57.4483 3.27273C57.3028 3.70909 57.1574 4.03636 57.0119 4.25455C56.8665 4.54546 56.7937 4.76364 56.7937 4.90909V5.34545C56.5028 5.41818 56.3574 5.74545 56.3574 6.32727L55.921 6.43636C55.4847 5.92727 55.0847 5.6 54.721 5.45454V5.67273C54.721 5.81818 54.8665 6.07273 55.1574 6.43636C55.4483 6.8 55.5938 7.09091 55.5938 7.30909L55.4847 7.41818C55.3392 7.56364 55.2665 7.78182 55.2665 8.07273L56.5756 7.96364C56.5756 7.81818 56.5756 7.67273 56.5756 7.52727C56.6483 7.30909 56.721 7.05455 56.7937 6.76364H57.121C57.2665 7.05455 57.5938 7.49091 58.1028 8.07273L58.2119 8.72727C58.2847 8.8 58.3574 8.87273 58.4301 8.94545C58.5028 9.01818 58.5756 9.12728 58.6483 9.27273C58.6483 9.34546 58.5756 9.45455 58.4301 9.6C58.2847 9.89091 58.2119 10.0727 58.2119 10.1454C58.2119 10.1454 58.5028 10.5454 59.0847 11.3454C59.5938 12.0727 59.8483 12.5091 59.8483 12.6545C59.8483 12.8727 59.6301 13.0909 59.1938 13.3091L58.4301 13.7454V13.9636L59.6301 14.5091C59.7028 14.7273 59.8119 15.1273 59.9574 15.7091C60.1028 15.7818 60.321 16.0364 60.6119 16.4727L60.2847 17.2364C60.0665 17.7454 59.9574 18.0364 59.9574 18.1091L61.2665 19.8545L60.721 20.6182C60.7938 20.6909 61.0483 20.8727 61.4847 21.1636V22.3636C61.6301 22.5818 61.7392 22.9091 61.8119 23.3454V23.5636C61.8119 24 61.7028 24.4364 61.4847 24.8727L62.2483 25.3091L62.9028 27.4909L62.5756 28.3636C62.721 28.5091 62.8301 28.6909 62.9028 28.9091V29.4545C62.9028 29.9636 63.2301 30.4364 63.8847 30.8727L62.6847 32.0727C62.1028 32.6545 61.8119 33.0545 61.8119 33.2727C61.8119 33.6364 62.321 33.8909 63.3392 34.0364C64.3574 34.1818 64.9028 34.5454 64.9756 35.1273C64.9756 35.3454 64.8665 35.5636 64.6483 35.7818C64.8665 36.5091 64.9756 37.0909 64.9756 37.5273C64.9756 37.5273 64.9028 37.6364 64.7574 37.8545C64.6847 38.0727 64.6483 38.2182 64.6483 38.2909L65.6301 40.2545C65.6301 40.4 65.521 40.6545 65.3028 41.0182L65.9574 41.6727C65.9574 42.1091 65.9938 42.4727 66.0665 42.7636C66.2119 42.9091 66.3938 43.1273 66.6119 43.4182C66.8301 43.7091 66.9392 44.1091 66.9392 44.6182C67.0119 44.6909 66.9392 44.9454 66.721 45.3818C66.5028 45.8909 66.3938 46.2182 66.3938 46.3636C66.3938 46.4364 66.6483 46.8364 67.1574 47.5636C67.1574 47.6364 67.1574 47.7818 67.1574 48C67.2301 48.1454 67.3028 48.3273 67.3756 48.5454C67.521 48.6182 67.6665 48.7636 67.8119 48.9818C67.9574 49.1273 68.1028 49.3091 68.2483 49.5273C68.2483 49.8182 68.1028 50 67.8119 50.0727L67.1574 50.4V51.2727C67.3028 51.3454 67.4483 51.4182 67.5938 51.4909C67.8119 51.5636 68.0665 51.6727 68.3574 51.8182C68.5028 51.9636 68.5756 52.4364 68.5756 53.2364L68.3574 53.5636C68.3574 54.0727 68.5756 54.5091 69.0119 54.8727L69.8847 55.2L69.3392 55.9636C69.4119 56.0364 69.4847 56.1091 69.5574 56.1818C69.6301 56.2545 69.7028 56.3636 69.7756 56.5091V57.1636H69.0119C68.9392 57.2364 68.9028 57.2727 68.9028 57.2727C68.9756 57.2727 68.9756 57.3091 68.9028 57.3818L68.6847 57.6C69.121 57.9636 69.5938 58.4727 70.1028 59.1273L70.6483 61.2V62.7273C70.9392 63.1636 71.1938 63.8182 71.4119 64.6909L71.3028 65.0182C70.6483 65.4545 70.0301 65.6727 69.4483 65.6727L68.5756 65.3455L67.1574 65.5636C66.7938 65.6364 66.5028 65.7091 66.2847 65.7818C66.0665 65.8545 65.921 65.8909 65.8483 65.8909L65.3028 65.7818C65.0847 65.7091 64.9392 65.7091 64.8665 65.7818C64.7938 65.7818 64.721 65.7818 64.6483 65.7818C64.5028 65.8545 64.2847 65.9273 63.9938 66C63.7756 66.0727 63.521 66.1091 63.2301 66.1091H62.0301C61.8847 66.1091 61.7028 66.1455 61.4847 66.2182C61.3392 66.3636 61.0847 66.5091 60.721 66.6545C60.0665 66.6545 59.7028 66.1818 59.6301 65.2364C59.6301 65.1636 59.921 64.6182 60.5028 63.6C60.7938 63.0909 61.0119 62.6909 61.1574 62.4C61.3028 62.1091 61.4119 61.8909 61.4847 61.7454L60.5028 62.0727C59.9938 62.2909 59.5938 62.4 59.3028 62.4H59.1938L58.8665 60.5454L58.321 59.3454C58.321 58.8364 58.6119 58.3636 59.1938 57.9273C59.121 57.9273 58.9392 57.7454 58.6483 57.3818C58.3574 57.0909 58.1756 56.7636 58.1028 56.4C58.0301 56.2545 57.921 55.8182 57.7756 55.0909L57.4483 54.7636V54L57.6665 53.5636C57.2301 52.7636 56.5392 52.3636 55.5938 52.3636C55.5938 52.3636 55.4119 52.4364 55.0483 52.5818L54.3937 52.4727C54.1756 52.4 53.9574 52.3636 53.7392 52.3636L52.4301 52.5818C51.9937 52.6545 51.6665 52.7273 51.4483 52.8C51.3028 52.8727 51.1937 52.9091 51.121 52.9091C51.0483 52.9818 50.8665 52.9454 50.5756 52.8C50.2847 52.6545 50.1028 52.5818 50.0301 52.5818L49.5937 52.8C49.1574 52.9454 48.9028 53.0182 48.8301 53.0182L48.721 53.3454C48.7937 53.3454 48.8665 53.3818 48.9392 53.4545C49.0119 53.4545 49.121 53.4909 49.2665 53.5636V54L48.721 53.7818C48.5028 54 48.3937 54.1818 48.3937 54.3273C48.6847 54.5454 48.9392 54.9091 49.1574 55.4182L48.8301 56.2909C48.7574 56.5818 48.6847 56.8727 48.6119 57.1636C48.5392 57.3818 48.4665 57.5636 48.3937 57.7091C48.4665 57.9273 48.5028 58.4364 48.5028 59.2364C48.0665 61.0545 47.8483 61.8909 47.8483 61.7454C47.8483 61.8182 47.8847 61.9636 47.9574 62.1818C48.0301 62.3273 48.1028 62.5454 48.1756 62.8364L48.3937 63.9273C48.3937 63.9273 48.2847 64.1091 48.0665 64.4727C47.8483 64.7636 47.7392 65.0182 47.7392 65.2364V65.4545C47.7392 65.7455 47.8483 66.1091 48.0665 66.5455V66.7636C48.0665 67.1273 47.7028 67.3091 46.9756 67.3091C46.9756 67.3091 46.6847 67.2727 46.1028 67.2L45.121 66.9818C44.9756 67.0545 44.7937 67.1273 44.5756 67.2C44.3574 67.2727 44.1028 67.3091 43.8119 67.3091H42.9392L39.2301 67.9636C39.0119 68.0364 38.7937 68.0727 38.5756 68.0727C38.3574 68.0727 38.1756 68.0727 38.0301 68.0727ZM52.7574 5.12728C52.8301 4.98182 52.7937 4.83636 52.6483 4.69091C52.5756 4.61818 52.3938 4.65455 52.1028 4.8C52.2483 5.01818 52.4665 5.12728 52.7574 5.12728ZM57.9938 16.4727C58.5028 16.4727 58.8301 16.2909 58.9756 15.9273C58.9028 16 58.8301 15.7818 58.7574 15.2727L58.1028 15.3818C57.8847 15.3818 57.7028 15.4909 57.5574 15.7091C57.4847 15.7818 57.521 15.9636 57.6665 16.2545C57.8119 16.4 57.921 16.4727 57.9938 16.4727ZM45.2301 24.8727C45.2301 24.8 45.121 24.6545 44.9028 24.4364L44.6847 24.6545C44.7574 24.7273 44.8301 24.7636 44.9028 24.7636C45.0483 24.7636 45.1574 24.8 45.2301 24.8727ZM52.8665 42.7636L54.3937 42.2182C54.6119 42.1454 54.8665 41.8909 55.1574 41.4545L54.9392 38.2909C54.3574 37.9273 54.1392 36.8727 54.2847 35.1273L53.9574 34.8L53.521 32.8364C53.521 32.9091 53.6301 32.6182 53.8483 31.9636L53.1938 31.4182L54.1756 30.9818L53.3028 30.5454C53.3028 30.1818 53.1938 29.7454 52.9756 29.2364C52.8301 28.8727 52.721 28.5818 52.6483 28.3636C52.5756 28.0727 52.5028 27.8182 52.4301 27.6C52.4301 26.7273 52.6483 26.0727 53.0847 25.6364L52.1028 25.4182L51.121 25.7454V25.9636C51.121 26.2545 50.9028 26.5091 50.4665 26.7273C50.4665 27.3091 50.321 27.6364 50.0301 27.7091C50.0301 28 50.0301 28.3273 50.0301 28.6909C50.1028 29.0545 50.1756 29.4909 50.2483 30C50.2483 30.0727 50.1392 30.2909 49.921 30.6545L50.0301 31.2C50.0301 31.2727 50.0301 31.3818 50.0301 31.5273C50.1028 31.6 50.1392 31.7091 50.1392 31.8545C50.1392 32.0727 50.1028 32.2909 50.0301 32.5091C50.0301 32.7273 50.0301 32.9818 50.0301 33.2727C49.9574 33.7091 49.921 34.1091 49.921 34.4727C49.921 34.7636 49.921 35.0182 49.921 35.2364L50.0301 36.9818C49.9574 37.4909 49.6301 37.9273 49.0483 38.2909L47.7392 39.1636C47.4483 39.3818 47.2301 39.6 47.0847 39.8182C46.9392 39.9636 46.8301 40.1091 46.7574 40.2545H47.8483C47.921 40.1818 48.0665 40.0727 48.2847 39.9273C48.5756 39.7091 48.7574 39.6 48.8301 39.6H48.9392C49.2301 39.6 49.4483 39.8909 49.5937 40.4727C49.6665 41.2727 49.7756 41.7454 49.921 41.8909C51.8119 42.4727 52.7937 42.7636 52.8665 42.7636ZM45.4483 26.5091C45.521 26.3636 45.4847 26.2182 45.3392 26.0727C45.2665 26.0727 45.0847 26.1454 44.7937 26.2909C44.9392 26.5091 45.1574 26.5818 45.4483 26.5091ZM44.0301 38.1818L45.2301 38.0727V37.5273L44.9028 37.0909C44.9028 37.0909 44.6847 37.1636 44.2483 37.3091L43.1574 37.0909C43.3028 37.2364 43.121 37.3818 42.6119 37.5273C42.1028 37.6 41.9937 37.7091 42.2847 37.8545H42.9392C43.3028 38.0727 43.6665 38.1818 44.0301 38.1818ZM62.4665 46.4727L62.6847 46.3636C62.7574 46.3636 62.7938 46.3636 62.7938 46.3636C62.7938 46.2909 62.8301 46.2545 62.9028 46.2545L62.6847 45.9273C62.6847 46.1454 62.6119 46.3273 62.4665 46.4727ZM62.6847 49.6364C62.6119 49.4909 62.5756 49.2364 62.5756 48.8727C62.8665 48.8 63.121 48.5454 63.3392 48.1091C63.1938 48.1091 62.9756 48.1091 62.6847 48.1091C62.4665 48.0364 62.1756 47.9636 61.8119 47.8909C61.521 48.4727 61.3028 48.8 61.1574 48.8727C61.0847 48.9454 61.0483 49.0545 61.0483 49.2V49.5273L61.8119 48.9818L62.0301 49.2L62.1392 49.6364H62.6847ZM58.5392 50.2909C58.6847 50.2909 58.8301 50.2182 58.9756 50.0727C59.121 49.9273 59.0847 49.7818 58.8665 49.6364C58.6483 49.6364 58.5392 49.8545 58.5392 50.2909ZM64.321 56.6182C64.321 56.4727 64.2483 56.3273 64.1028 56.1818C63.9574 56.0364 63.8119 56.1091 63.6665 56.4C63.6665 56.6182 63.8847 56.6909 64.321 56.6182ZM39.4483 63.6L40.321 63.2727C40.9756 63.0545 41.0847 62.8 40.6483 62.5091H40.321C40.0301 62.5091 39.7392 62.6545 39.4483 62.9454V63.6ZM41.7392 65.7818C41.8119 65.6364 41.7756 65.4909 41.6301 65.3455C41.5574 65.2727 41.3756 65.3091 41.0847 65.4545C41.2301 65.6727 41.4483 65.7818 41.7392 65.7818ZM102.963 68.2909C102.89 68.2182 102.745 68.1455 102.527 68.0727C102.309 68 102.018 67.9273 101.654 67.8545H99.6903C99.5449 67.9273 99.254 67.9636 98.8176 67.9636C98.7449 67.8909 98.5994 67.8182 98.3813 67.7455C98.2358 67.6727 98.054 67.6 97.8358 67.5273L96.7449 67.6364C96.3813 67.7091 96.0903 67.7091 95.8722 67.6364C95.7267 67.6364 95.6176 67.6364 95.5449 67.6364C95.1085 67.6364 94.7449 67.4909 94.454 67.2V66.5455C94.2358 65.8182 94.2722 65.3454 94.5631 65.1273C94.4903 65.0545 94.3449 65.0182 94.1267 65.0182C94.054 64.8727 94.054 64.7636 94.1267 64.6909C94.1994 64.5454 94.2358 64.4364 94.2358 64.3636L94.3449 64.0364C94.3449 63.8182 94.1267 63.5636 93.6903 63.2727C93.6903 62.9818 93.9449 62.6909 94.454 62.4V62.2909C94.1631 62.1454 93.9449 61.9636 93.7994 61.7454C93.7267 61.6 93.654 61.2364 93.5813 60.6545C93.5085 60.0727 93.4358 59.3091 93.3631 58.3636C92.854 57.9273 92.5994 57.3454 92.5994 56.6182C92.5994 56.4 92.7813 55.6364 93.1449 54.3273C92.9267 54.1091 92.5631 53.9636 92.054 53.8909C91.9085 53.7454 91.8722 53.6 91.9449 53.4545L92.3813 52.1454C92.3085 52.1454 92.1994 51.9636 92.054 51.6C91.9813 51.4545 91.9085 51.2727 91.8358 51.0545C91.7631 50.8364 91.654 50.5454 91.5085 50.1818C91.5813 49.9636 91.6176 49.4909 91.6176 48.7636C91.6176 48.7636 91.5449 48.6909 91.3994 48.5454C91.3994 48.4 91.3267 48.0727 91.1813 47.5636C91.1085 46.9818 90.9994 46.2909 90.854 45.4909C90.7085 44.6909 90.5631 44 90.4176 43.4182C90.3449 42.8364 90.3085 42.3636 90.3085 42C90.3085 41.4909 90.4176 41.1273 90.6358 40.9091C90.5631 40.7636 90.2358 40.6182 89.654 40.4727C88.7813 40.4727 87.9449 40.7636 87.1449 41.3454L86.5994 44.6182C86.5267 44.6909 86.4176 44.7636 86.2722 44.8364C86.1994 44.9091 86.0903 45.0182 85.9449 45.1636V45.3818C85.9449 45.4545 85.9449 45.6 85.9449 45.8182C86.0176 45.9636 86.0903 46.1454 86.1631 46.3636C86.454 46.3636 86.7813 46.5091 87.1449 46.8L86.9267 48.1091C86.7813 48.6182 86.8176 49.0182 87.0358 49.3091L86.1631 49.2L85.9449 49.6364L86.2722 50.0727C86.4903 50.3636 86.5994 50.5818 86.5994 50.7273L85.8358 53.8909L86.1631 55.2C86.1631 55.4182 86.1267 55.6 86.054 55.7454L85.8358 56.2909C85.9085 56.6545 85.9813 57.0909 86.054 57.6C86.1267 58.0364 86.1994 58.5091 86.2722 59.0182C86.2722 59.1636 86.0176 59.4909 85.5085 60C84.9267 60.7273 84.6358 61.0909 84.6358 61.0909C84.6358 61.3818 84.8903 61.6 85.3994 61.7454C85.9085 61.8182 86.1631 61.8545 86.1631 61.8545L85.8358 66.9818L85.6176 67.4182C85.4722 67.2727 85.1813 67.0545 84.7449 66.7636L84.0903 66.8727C83.8722 66.9455 83.6903 66.9818 83.5449 66.9818L81.9085 66.4364C81.9085 66.4364 81.7631 66.5091 81.4722 66.6545C81.1813 66.8 80.9994 66.8727 80.9267 66.8727C79.9813 66.9455 79.3267 66.9455 78.9631 66.8727C78.8176 66.8 78.5994 66.6909 78.3085 66.5455C78.0176 66.4 77.6903 66.2182 77.3267 66H76.9994C76.7085 66.5091 76.4176 66.7636 76.1267 66.7636L74.8176 66.4364C74.7449 66.5091 74.6358 66.5455 74.4903 66.5455C74.3449 66.5455 74.1994 66.5818 74.054 66.6545C73.4722 66.6545 73.1813 66.4 73.1813 65.8909C73.3994 65.6727 73.654 65.3091 73.9449 64.8C73.8722 64.6545 73.8358 64.2545 73.8358 63.6C73.8358 63.4545 73.8358 63.3091 73.8358 63.1636C73.9085 62.9454 73.9813 62.6909 74.054 62.4L74.2722 61.5273C74.2722 61.4545 74.2722 61.3091 74.2722 61.0909C74.2722 60.8727 74.2358 60.5818 74.1631 60.2182L73.9449 58.9091C74.0176 55.4909 74.2358 52.8364 74.5994 50.9454L74.9267 49.9636C74.9267 49.7454 74.8903 49.5273 74.8176 49.3091L74.5994 48.6545C74.5994 48.5818 74.6722 48.4 74.8176 48.1091C74.6722 47.8909 74.6722 47.6 74.8176 47.2364L75.254 46.3636C75.254 46.2909 75.254 46.1818 75.254 46.0364C75.254 45.8909 75.2176 45.6727 75.1449 45.3818L74.9267 44.4C74.9267 44.3273 75.0358 43.8545 75.254 42.9818C75.4722 42.1091 75.6176 41.6364 75.6903 41.5636C75.3994 41.1273 75.2176 40.6909 75.1449 40.2545C75.2903 40.1091 75.4358 39.9636 75.5813 39.8182C75.7267 39.6727 75.8722 39.4909 76.0176 39.2727C76.0176 38.8364 75.7994 38.3636 75.3631 37.8545L76.0176 26.5091C76.1631 26.3636 76.3085 26.1818 76.454 25.9636C76.6722 25.7454 76.854 25.5273 76.9994 25.3091C76.9267 25.2364 76.7813 25.2 76.5631 25.2L76.2358 23.2364C76.2358 22.5818 76.2722 22.1091 76.3449 21.8182L76.2358 21.4909C76.3085 21.4182 76.4176 21.2364 76.5631 20.9454V20.1818C76.5631 20.0364 76.5267 19.8909 76.454 19.7454C76.454 19.6 76.454 19.4909 76.454 19.4182C76.6722 19.2 76.8903 18.8727 77.1085 18.4364L76.454 16.8V15.4909C76.5267 15.2727 76.6358 15.0182 76.7813 14.7273C76.9267 14.4364 77.0722 14.1091 77.2176 13.7454C77.2176 13.6727 77.1813 13.6364 77.1085 13.6364C77.1085 13.5636 77.1085 13.4909 77.1085 13.4182C77.1085 13.2 77.1449 12.9818 77.2176 12.7636C77.3631 12.5454 77.4722 12.2909 77.5449 12C77.3267 11.7818 77.1085 11.4545 76.8903 11.0182L76.9994 9.6C76.9994 9.30909 77.3631 8.8 78.0903 8.07273C78.7449 7.41819 79.0358 6.87273 78.9631 6.43636L76.6722 5.56364C76.8176 5.2 77.0358 4.98182 77.3267 4.90909L77.1085 1.96363C76.8903 1.6 76.7813 1.34545 76.7813 1.2C77.5085 0.909088 77.9813 0.799996 78.1994 0.872722C78.3449 0.872722 78.5994 1.01818 78.9631 1.30909C79.254 1.6 79.5449 1.74546 79.8358 1.74546C79.9813 1.6 80.1631 1.45455 80.3813 1.30909C80.6722 1.16364 80.9631 1.05455 81.254 0.981812C81.3994 1.12727 81.6176 1.30909 81.9085 1.52728C82.2722 1.67273 82.6358 1.85455 82.9994 2.07273L83.1085 1.63637L83.8722 1.41818C84.2358 1.2 84.454 1.12727 84.5267 1.2C84.6722 1.2 84.9994 1.41818 85.5085 1.85454C86.0176 2.36364 86.3449 2.61818 86.4903 2.61818C86.6358 2.61818 86.9631 2.43637 87.4722 2.07273C87.8358 1.92727 88.1267 1.81818 88.3449 1.74546C88.6358 1.67273 88.854 1.67273 88.9994 1.74546L89.4358 1.85454C89.4358 1.85454 89.5813 1.78182 89.8722 1.63637C90.0176 1.49091 90.1631 1.41818 90.3085 1.41818C90.5994 1.41818 90.9994 1.78182 91.5085 2.50909C91.654 2.50909 91.8358 2.36364 92.054 2.07273C92.2722 1.85455 92.4176 1.78182 92.4903 1.85454L94.2358 2.61818C94.3813 2.61818 94.5267 2.61818 94.6722 2.61818C94.8176 2.54546 94.9631 2.47273 95.1085 2.4L95.654 3.05455L97.9449 3.38182C98.0176 3.45454 98.0903 3.52727 98.1631 3.6C98.2358 3.67273 98.3449 3.74546 98.4903 3.81818C99.5813 3.89091 100.49 4 101.218 4.14546L103.181 5.45454C103.181 5.45454 103.254 5.6 103.4 5.89091V6C103.4 6.50909 103.763 6.98182 104.49 7.41818L106.236 8.4V9.38182L106.781 10.5818C106.709 11.0182 106.6 11.4909 106.454 12C106.309 12.4364 106.163 12.9091 106.018 13.4182C106.018 13.4909 106.054 13.5273 106.127 13.5273L106.672 12.9818C106.963 12.6909 107.218 12.5454 107.436 12.5454L107.654 12.6545C107.727 12.7273 107.8 12.9454 107.872 13.3091C107.945 13.6727 108.054 14.1818 108.2 14.8364L108.527 15.3818V16.4727L108.2 16.8C108.345 17.4545 108.381 17.8182 108.309 17.8909C108.09 17.9636 107.872 18.1818 107.654 18.5454C107.654 18.5454 107.727 18.6182 107.872 18.7636C107.945 18.8364 108.2 18.8727 108.636 18.8727V19.0909C108.636 19.2364 108.563 19.6 108.418 20.1818H108.309C108.236 20.1818 108.127 20.4364 107.981 20.9454C107.836 21.4545 107.836 21.7091 107.981 21.7091C108.2 21.7091 108.381 21.6364 108.527 21.4909C108.6 21.3454 108.636 21.1636 108.636 20.9454C108.636 20.7273 108.636 20.6909 108.636 20.8364L108.527 22.4727C108.454 22.5454 108.345 22.7273 108.2 23.0182C108.2 23.3091 108.163 23.7091 108.09 24.2182C108.09 24.7273 108.054 25.3091 107.981 25.9636L107.436 26.9454C107.29 27.4545 107.181 28.0364 107.109 28.6909L107.218 29.4545C107.145 29.5273 107.109 29.6 107.109 29.6727C107.109 29.7454 107.072 29.8545 107 30C106.927 30.9454 106.6 31.6364 106.018 32.0727V32.5091C106.018 32.6545 105.981 32.8364 105.909 33.0545C105.909 33.2 105.872 33.3818 105.8 33.6C105.509 33.8182 104.636 35.0182 103.181 37.2L102.2 37.6364C101.763 37.8545 101.472 38.1818 101.327 38.6182C101.545 38.9818 101.727 39.4545 101.872 40.0364C101.872 40.5454 101.69 40.8 101.327 40.8C100.89 40.8 100.672 40.8364 100.672 40.9091C100.672 41.1273 100.927 41.2364 101.436 41.2364C101.8 41.2364 101.981 41.4545 101.981 41.8909L101.872 43.2C100.563 43.4182 99.9085 43.6364 99.9085 43.8545C99.9085 44 100.672 44.1454 102.2 44.2909C102.127 44.3636 102.018 44.6909 101.872 45.2727L102.418 45.6L103.072 48.3273L103.509 49.0909C103 49.4545 102.563 49.9636 102.2 50.6182L102.418 51.0545C102.781 51.2727 103.109 51.6364 103.4 52.1454C103.545 52.3636 103.654 52.7273 103.727 53.2364L104.49 53.7818C104.49 53.9273 104.49 54.1091 104.49 54.3273C104.49 54.5454 104.527 54.7636 104.6 54.9818C104.527 55.1273 104.49 55.4909 104.49 56.0727C104.709 56.2909 104.818 56.5818 104.818 56.9454L105.036 59.3454C105.109 59.4182 105.181 59.5636 105.254 59.7818C105.327 60 105.4 60.2909 105.472 60.6545C105.109 61.0182 104.927 61.3454 104.927 61.6364C104.854 62.0727 105 62.2909 105.363 62.2909C105.436 62.2909 105.618 62.2182 105.909 62.0727L106.018 63.9273C106.018 63.9273 106.381 64.7636 107.109 66.4364C107.181 66.5091 107.218 66.7273 107.218 67.0909C107.218 67.8909 106.927 68.2909 106.345 68.2909C105.69 68.2909 105.254 68.1818 105.036 67.9636C104.818 67.6727 104.672 67.5273 104.6 67.5273C104.236 67.8182 103.69 68.0727 102.963 68.2909ZM92.1631 5.89091C92.2358 5.74546 92.1994 5.6 92.054 5.45454C91.9085 5.30909 91.7631 5.30909 91.6176 5.45454C91.6176 5.6 91.7994 5.74546 92.1631 5.89091ZM79.8358 11.3454L80.2722 11.0182C80.2722 10.9454 80.1267 10.9454 79.8358 11.0182C79.7631 11.0182 79.7631 11.1273 79.8358 11.3454ZM81.1449 12.2182C81.3631 12.2909 81.5813 12.1818 81.7994 11.8909C81.654 11.7454 81.5449 11.6727 81.4722 11.6727C81.254 11.6727 81.1449 11.8545 81.1449 12.2182ZM101.327 13.0909C101.545 13.1636 101.763 13.0545 101.981 12.7636C101.909 12.6909 101.8 12.6545 101.654 12.6545C101.436 12.6545 101.327 12.8 101.327 13.0909ZM91.6176 30.9818L92.7085 30.2182L94.1267 30L94.2358 29.5636L94.0176 28.8C94.0903 28.7273 94.1994 28.6182 94.3449 28.4727C94.5631 28.3273 94.8176 28.1454 95.1085 27.9273C95.1813 27.6364 95.3994 27.3818 95.7631 27.1636C95.7631 26.4364 95.8722 25.3818 96.0903 24C96.0903 23.7091 96.0903 23.3454 96.0903 22.9091C96.1631 22.4727 96.2358 22 96.3085 21.4909C96.3813 21.3454 96.454 21.2 96.5267 21.0545C96.5994 20.8364 96.6722 20.5818 96.7449 20.2909L96.5267 19.8545C96.3813 19.5636 96.3085 19.4182 96.3085 19.4182C96.2358 19.2 96.1994 18.9091 96.1994 18.5454C96.1994 18.3273 96.1994 18.0727 96.1994 17.7818C96.2722 17.4909 96.3449 17.1636 96.4176 16.8L96.5267 15.3818V15.1636C96.5267 14.4364 95.8358 13.9636 94.454 13.7454L93.0358 13.5273L91.8358 13.3091C91.5449 13.3091 91.2176 13.3454 90.854 13.4182C90.5631 13.4182 90.2358 13.4545 89.8722 13.5273C89.4358 13.6727 89.0358 14 88.6722 14.5091L88.5631 14.8364C88.1994 15.2 87.9449 15.5636 87.7994 15.9273C87.7994 16 87.8358 16.1454 87.9085 16.3636C88.054 16.5091 88.1631 16.7636 88.2358 17.1273L88.6722 18.3273C88.5267 18.4727 88.3085 18.7636 88.0176 19.2C87.9449 19.4909 87.8358 19.7818 87.6903 20.0727C87.6176 20.3636 87.5085 20.6909 87.3631 21.0545C87.3631 21.0545 87.5449 21.3091 87.9085 21.8182C88.2722 22.4 88.454 22.6909 88.454 22.6909C88.3813 22.9818 88.2722 23.2727 88.1267 23.5636C88.054 23.7818 87.9813 24.0727 87.9085 24.4364V25.9636L87.7994 27.8182V28.1454C87.7994 28.8 87.9813 29.3091 88.3449 29.6727C88.4903 29.8909 88.7085 30.1091 88.9994 30.3273C89.0722 30.3273 89.254 30.2182 89.5449 30C89.7631 29.7818 89.9085 29.6727 89.9813 29.6727C90.1994 29.6727 90.6722 30.1091 91.3994 30.9818H91.6176ZM99.6903 20.6182C100.127 20.6182 100.709 20.0727 101.436 18.9818C101.218 18.7636 101.072 18.5454 101 18.3273L100.018 18C99.7267 18 99.3631 18.2182 98.9267 18.6545C98.9267 19.2364 99.1813 19.8909 99.6903 20.6182ZM79.9449 22.6909C80.1631 22.7636 80.3813 22.6545 80.5994 22.3636C80.454 22.2182 80.3449 22.1454 80.2722 22.1454C80.054 22.1454 79.9449 22.3273 79.9449 22.6909ZM82.7813 33.2727C82.854 33.2 82.8903 33.0909 82.8903 32.9454C82.8903 32.7273 82.7449 32.6182 82.454 32.6182C82.3813 32.8364 82.4903 33.0545 82.7813 33.2727ZM90.7449 33.0545C90.8903 33.1273 91.1085 33.0182 91.3994 32.7273C91.3267 32.6545 91.1813 32.6182 90.9631 32.6182C90.7449 32.6182 90.6722 32.7636 90.7449 33.0545ZM98.9267 36.5454L99.254 36.3273C99.254 36.1818 99.2176 36.0727 99.1449 36L98.9267 36.5454ZM86.054 38.6182C86.1267 38.4727 86.0903 38.3273 85.9449 38.1818C85.8722 38.0364 85.7267 38.0727 85.5085 38.2909C85.5085 38.5091 85.6903 38.6182 86.054 38.6182ZM94.454 39.8182C94.6722 39.8909 94.854 39.8545 94.9994 39.7091C95.0722 39.6364 95.0358 39.4545 94.8903 39.1636C94.7449 39.1636 94.5994 39.3818 94.454 39.8182ZM99.4722 46.8C99.5449 46.6545 99.5085 46.5091 99.3631 46.3636C99.2903 46.2909 99.1085 46.3273 98.8176 46.4727C98.8176 46.6909 99.0358 46.8 99.4722 46.8ZM95.9813 55.3091C96.1267 55.3091 96.3449 55.2 96.6358 54.9818C96.9267 54.8364 97.1085 54.7636 97.1813 54.7636H97.2903V53.4545L95.9813 53.1273C95.9813 53.4909 96.0176 53.7091 96.0903 53.7818C96.0903 53.7818 96.054 54.0364 95.9813 54.5454C95.9085 54.6909 95.8722 54.9091 95.8722 55.2C95.8722 55.2727 95.9085 55.3091 95.9813 55.3091ZM77.8722 56.7273C78.3085 56.5091 78.5267 56.2909 78.5267 56.0727C78.5267 55.7818 78.2722 55.5273 77.7631 55.3091L76.8903 54.8727L76.6722 55.0909C76.8176 55.3818 76.9994 55.6727 77.2176 55.9636C77.4358 56.1818 77.654 56.4364 77.8722 56.7273ZM77.3267 62.9454C77.3994 62.8 77.3631 62.6545 77.2176 62.5091C77.1449 62.3636 76.9994 62.4 76.7813 62.6182C76.7813 62.8364 76.9631 62.9454 77.3267 62.9454ZM80.054 62.5091H79.7267C79.7994 62.5818 79.9085 62.7636 80.054 63.0545V62.5091ZM127.139 68.0727C127.066 68.0727 126.993 68.0364 126.921 67.9636C126.921 67.3091 126.811 66.7273 126.593 66.2182C126.448 66.2182 126.157 66.4364 125.721 66.8727C125.211 67.3091 124.884 67.5273 124.739 67.5273L121.902 66.7636C121.83 66.8364 121.648 66.8727 121.357 66.8727L119.175 65.8909C119.102 65.8909 118.957 65.8909 118.739 65.8909C118.593 65.8182 118.411 65.7455 118.193 65.6727L116.884 64.9091H116.775L116.448 65.0182C116.23 64.7273 115.83 64.4 115.248 64.0364L114.811 62.5091C114.448 62.2909 114.193 62.0727 114.048 61.8545L113.721 60.7636C113.502 60.6182 113.284 60.4727 113.066 60.3273C112.848 60.1091 112.593 59.8545 112.302 59.5636C112.23 59.4182 112.157 59.2364 112.084 59.0182C112.011 58.8 111.902 58.5454 111.757 58.2545V57.6C111.684 57.4545 111.611 57.3454 111.539 57.2727C111.466 57.1273 111.357 56.9818 111.211 56.8364C110.921 56.3273 110.811 55.7091 110.884 54.9818L111.539 53.0182C111.539 53.0182 111.466 52.8727 111.321 52.5818L110.993 52.0364C110.921 51.8182 110.884 51.5273 110.884 51.1636C110.957 49.8545 111.066 49.3818 111.211 49.7454C111.211 49.7454 111.139 49.6 110.993 49.3091C110.775 49.0909 110.666 48.9091 110.666 48.7636C110.811 47.9636 110.957 47.4182 111.102 47.1273C111.248 46.9818 111.466 46.6909 111.757 46.2545L111.539 45.4909C111.466 45.1273 111.43 44.9454 111.43 44.9454L111.975 44.0727L111.648 43.6364C111.721 43.5636 111.757 43.3454 111.757 42.9818L111.539 41.3454L112.084 40.3636C112.157 40.1454 112.121 39.8545 111.975 39.4909C111.975 39.4182 112.011 39.3818 112.084 39.3818C112.157 39.3818 112.193 39.3091 112.193 39.1636C112.193 39.1636 112.23 38.7636 112.302 37.9636L111.975 34.6909C112.557 34.5454 112.848 34.3273 112.848 34.0364L112.521 32.9454C112.884 32.8 113.248 32.5818 113.611 32.2909C113.975 32 114.375 31.7091 114.811 31.4182C114.811 30.9091 114.593 30.6182 114.157 30.5454C113.866 30.5454 113.684 30.6909 113.611 30.9818L113.393 31.6364C112.666 31.2727 112.375 30.8 112.521 30.2182L112.848 29.5636V28.9091L113.502 28.2545C113.502 28.4 113.502 28.4364 113.502 28.3636C113.502 28.2909 113.539 28.1091 113.611 27.8182L113.502 26.9454C113.43 26.7273 113.393 26.5454 113.393 26.4C113.393 26.2545 113.393 26.1454 113.393 26.0727L113.83 24.7636C113.975 24.4 114.048 23.9636 114.048 23.4545C114.048 22.9454 114.048 22.4364 114.048 21.9273L114.266 21.2727C114.266 20.9818 114.266 20.6545 114.266 20.2909C114.266 19.9273 114.23 19.5636 114.157 19.2C114.302 18.4727 114.484 18 114.702 17.7818C114.993 17.4909 115.139 17.2 115.139 16.9091L115.03 16.3636C115.03 16.2182 114.993 16.1454 114.921 16.1454C114.848 16.0727 114.811 16 114.811 15.9273L115.139 14.5091C115.211 14.5091 115.321 14.4364 115.466 14.2909C115.175 13.5636 115.066 12.8727 115.139 12.2182C115.211 12.0727 115.284 11.9273 115.357 11.7818C115.43 11.6364 115.502 11.4545 115.575 11.2364L115.684 10.2545L116.775 9.38182L117.321 9.49091L116.557 10.0364C116.63 10.1091 116.702 10.2909 116.775 10.5818H117.102L117.43 10.2545V9.49091C117.721 9.34546 118.011 9.09091 118.302 8.72727C118.084 8.21818 117.83 7.92727 117.539 7.85455L117.321 8.07273L116.666 7.96364V7.63637C116.666 7.2 117.211 6.54545 118.302 5.67273C118.375 5.6 118.411 5.38182 118.411 5.01819L119.284 4.36364C119.357 4.21818 119.611 3.92727 120.048 3.49091L122.121 1.96363C122.193 2.03637 122.448 2.14546 122.884 2.29091C122.739 2.21818 123.102 1.96364 123.975 1.52728C124.121 1.45455 124.302 1.41818 124.521 1.41818C124.811 1.34545 125.139 1.34545 125.502 1.41818C125.502 1.41818 125.721 1.49091 126.157 1.63637C126.593 1.63637 126.811 1.45455 126.811 1.09091C126.811 0.727272 126.957 0.545454 127.248 0.545454C127.611 0.690906 127.793 0.799996 127.793 0.872722V1.52728L128.23 1.09091C128.448 0.727272 128.557 0.472725 128.557 0.327268V0.109089C128.557 0.109089 128.957 0.181816 129.757 0.327268L130.411 0.436358C130.993 0.290905 131.175 0.181816 130.957 0.109089C131.248 0.254542 131.539 0.399997 131.83 0.545454C132.193 0.61818 132.521 0.72727 132.811 0.872722C132.884 0.945449 133.102 0.909085 133.466 0.763633L134.23 0.545454L135.757 0.436358L138.811 2.18182L139.902 1.96363C140.266 2.03637 140.448 2.10909 140.448 2.18182C140.521 2.32727 140.557 2.58182 140.557 2.94545L141.211 3.92727L141.321 4.69091C141.393 4.90909 141.648 5.09091 142.084 5.23637C142.23 5.23637 142.448 5.12727 142.739 4.90909C142.884 5.12727 143.03 5.34546 143.175 5.56364C143.321 5.78182 143.43 6 143.502 6.21818L144.375 6.87273L144.702 8.07273V8.18182C144.702 8.61818 144.848 9.01818 145.139 9.38182L145.902 9.49091C146.048 9.63636 146.121 9.81818 146.121 10.0364C146.121 10.3273 146.011 10.7636 145.793 11.3454L145.575 12C146.084 13.3091 146.339 14.1091 146.339 14.4C146.557 14.6182 146.666 14.7636 146.666 14.8364L146.775 15.3818C146.775 15.4545 146.775 15.5636 146.775 15.7091C146.848 15.7818 146.884 15.8545 146.884 15.9273C146.593 16.0727 146.339 16.2545 146.121 16.4727C145.902 16.6909 145.648 16.9454 145.357 17.2364C145.866 17.7454 146.121 18.2909 146.121 18.8727C146.048 19.0182 145.83 19.4182 145.466 20.0727L146.011 21.9273C146.011 22 145.902 22.1454 145.684 22.3636C145.466 22.5818 145.357 22.7273 145.357 22.8C145.502 23.0909 145.611 23.4182 145.684 23.7818C145.757 24.1454 145.83 24.5091 145.902 24.8727C145.757 25.6727 145.393 26.0364 144.811 25.9636L142.193 25.3091H140.121C139.975 25.1636 139.721 25.1636 139.357 25.3091L138.593 25.5273C138.448 25.5273 138.193 25.4182 137.83 25.2L137.066 24.9818H134.775C134.63 24.9818 134.302 24.8 133.793 24.4364C133.939 24.2182 134.048 23.9636 134.121 23.6727C134.193 23.3818 134.193 23.0909 134.121 22.8L134.011 22.2545C134.011 22.1091 133.975 22.0364 133.902 22.0364C133.902 21.9636 133.902 21.8909 133.902 21.8182L135.539 15.7091L135.321 14.4C135.248 14.4727 135.139 14.5091 134.993 14.5091C134.63 14.5091 134.484 14.1454 134.557 13.4182L134.666 12.2182C134.23 11.3454 133.866 10.8727 133.575 10.8C133.575 10.8 133.393 10.9091 133.03 11.1273C132.884 11.2727 132.666 11.3091 132.375 11.2364L130.411 10.4727C130.266 10.4727 130.084 10.4727 129.866 10.4727C129.648 10.4727 129.357 10.5091 128.993 10.5818C128.702 10.6545 128.484 10.8727 128.339 11.2364L128.121 12C127.83 12.0727 127.502 12.3636 127.139 12.8727C127.066 12.9454 126.993 13.0909 126.921 13.3091C126.848 13.4545 126.739 13.6364 126.593 13.8545L126.702 14.4C126.63 14.6909 126.557 15.0182 126.484 15.3818C126.484 15.6727 126.411 16.0364 126.266 16.4727L125.83 17.3454C125.83 17.4182 125.866 17.6364 125.939 18C125.866 18.2909 125.757 18.9454 125.611 19.9636C125.539 20.1091 125.575 20.4364 125.721 20.9454L125.939 22.0364C125.502 22.1091 125.284 22.2909 125.284 22.5818C125.284 22.6545 125.321 22.7636 125.393 22.9091C125.466 23.0545 125.539 23.2364 125.611 23.4545L125.83 24.2182C125.757 24.2909 125.502 24.6909 125.066 25.4182C124.702 26.1454 124.521 26.5454 124.521 26.6182L124.848 27.3818C125.066 27.9636 125.139 28.5091 125.066 29.0182C124.993 29.3091 124.521 29.6 123.648 29.8909C123.939 30.0364 124.193 30.2182 124.411 30.4364C124.411 30.5818 124.375 30.9091 124.302 31.4182C124.23 31.8545 124.121 32.4727 123.975 33.2727C124.121 33.7091 124.193 34.2182 124.193 34.8C124.193 34.8727 124.157 35.0182 124.084 35.2364C124.011 35.3818 123.902 35.6 123.757 35.8909L123.321 36.8727C123.248 37.3818 123.248 37.7818 123.321 38.0727C123.539 39.2364 123.684 39.6727 123.757 39.3818C123.539 39.8909 123.321 40.7273 123.102 41.8909C123.175 42.2545 123.211 42.4364 123.211 42.4364L122.884 44.7273C122.811 44.7273 122.702 44.8364 122.557 45.0545L122.993 45.8182C123.211 46.2545 123.321 46.5091 123.321 46.5818C123.321 46.5818 123.139 46.8364 122.775 47.3454C122.411 47.9273 122.23 48.2182 122.23 48.2182C122.23 48.5091 122.339 48.6545 122.557 48.6545H122.339C122.339 48.9454 122.302 49.2364 122.23 49.5273C122.23 49.8182 122.193 50.1454 122.121 50.5091C122.048 50.8 122.011 51.1636 122.011 51.6C122.011 51.9636 122.011 52.3636 122.011 52.8C121.939 53.0182 121.902 53.4182 121.902 54L123.102 54.8727V55.7454C123.102 55.8182 123.321 55.9273 123.757 56.0727C123.83 56.8 124.121 57.2364 124.63 57.3818L125.393 57.1636C125.83 57.0182 126.048 56.9454 126.048 56.9454H128.884C129.03 56.6545 129.175 56.3636 129.321 56.0727C129.539 55.7091 129.793 55.3818 130.084 55.0909L130.848 54.2182C131.066 54 131.357 53.8545 131.721 53.7818V53.6727C131.721 53.5273 131.648 53.4545 131.502 53.4545L130.957 53.3454C130.957 53.1273 131.102 52.8727 131.393 52.5818C131.03 51.8545 130.884 51.4182 130.957 51.2727C131.102 50.9818 131.211 50.6545 131.284 50.2909C131.43 49.9273 131.539 49.5636 131.611 49.2L131.502 48.6545V48.1091C131.502 47.8909 131.502 47.6364 131.502 47.3454C131.502 46.9818 131.539 46.5818 131.611 46.1454C131.611 46.0727 131.539 45.8909 131.393 45.6V44.1818C131.393 43.6727 131.648 42.9818 132.157 42.1091C132.521 42.1091 132.993 42.1454 133.575 42.2182C134.23 42.2182 134.921 42.2545 135.648 42.3273L137.175 42.7636C137.611 42.8364 137.939 42.9454 138.157 43.0909C138.448 43.2364 138.63 43.3091 138.702 43.3091L139.466 43.0909C139.83 42.9454 140.084 42.9454 140.23 43.0909C140.302 43.0909 140.63 43.1636 141.211 43.3091C141.866 43.3818 142.23 43.4545 142.302 43.5273H143.721L143.939 43.8545L143.284 44.9454C143.284 45.0182 143.284 45.1273 143.284 45.2727C143.284 45.4182 143.248 45.6364 143.175 45.9273C143.539 46.4364 143.721 46.6909 143.721 46.6909L142.521 48.2182L141.43 47.5636L141.975 48.2182L141.866 48.7636H141.321C141.684 49.1273 141.939 49.3454 142.084 49.4182C141.502 49.7091 141.139 50.1818 140.993 50.8364C140.993 51.2 141.066 51.3818 141.211 51.3818L141.866 51.1636C142.521 51.9636 142.811 52.4727 142.739 52.6909C142.739 52.8364 142.521 53.0909 142.084 53.4545L142.411 54.2182C142.411 54.3636 142.375 54.4727 142.302 54.5454L142.084 54.8727C142.084 55.3091 142.084 55.7091 142.084 56.0727C142.084 56.3636 142.048 56.6182 141.975 56.8364L141.211 57.6C141.211 57.7454 141.211 57.9273 141.211 58.1454C141.211 58.2909 141.175 58.5091 141.102 58.8C141.03 58.9454 140.848 59.2364 140.557 59.6727C140.339 60.0364 140.048 60.5091 139.684 61.0909C139.611 61.1636 139.502 61.2364 139.357 61.3091C139.284 61.3818 139.175 61.4909 139.03 61.6364V62.1818C138.884 62.4 138.666 62.6182 138.375 62.8364C138.157 63.0545 137.902 63.3091 137.611 63.6L137.066 63.8182C136.848 63.9636 136.775 64.1454 136.848 64.3636C136.775 64.4364 136.593 64.4727 136.302 64.4727L135.648 65.1273C135.648 65.1273 135.43 65.2 134.993 65.3455C134.848 65.4909 134.63 65.7091 134.339 66C134.121 66.2182 133.83 66.4727 133.466 66.7636C133.102 66.9818 132.739 67.1273 132.375 67.2C132.011 67.3455 131.648 67.3818 131.284 67.3091L130.957 67.2C130.884 67.2 130.702 67.2364 130.411 67.3091C130.121 67.3818 129.684 67.4909 129.102 67.6364L127.139 68.0727ZM142.63 4.8C142.63 4.58182 142.666 4.43636 142.739 4.36364C142.739 4.36364 142.775 4.4 142.848 4.47273V4.8H142.63ZM125.939 5.78182C125.939 5.70909 126.011 5.6 126.157 5.45454L126.375 5.34545C126.302 5.27273 126.121 5.27273 125.83 5.34545L125.939 5.78182ZM127.357 6.32727C127.575 6.47273 127.757 6.32728 127.902 5.89091C127.757 5.74546 127.611 5.74546 127.466 5.89091C127.321 6.03637 127.284 6.18182 127.357 6.32727ZM124.084 7.85455C124.23 7.92727 124.484 7.85455 124.848 7.63637C124.557 7.12727 124.157 7.01818 123.648 7.30909C123.793 7.6 123.939 7.78182 124.084 7.85455ZM119.721 14.2909C119.866 14.2182 120.011 14.1818 120.157 14.1818C120.011 14.1091 119.83 14.0364 119.611 13.9636C119.466 13.8909 119.284 13.7818 119.066 13.6364C119.066 13.2727 119.102 13.0545 119.175 12.9818C119.102 12.7636 118.811 12.4727 118.302 12.1091C118.011 12.0364 117.866 12.2182 117.866 12.6545C117.793 13.1636 117.684 13.4909 117.539 13.6364C118.339 14.0727 118.884 14.2909 119.175 14.2909H119.721ZM122.557 14.4C122.63 14.3273 122.775 14.2545 122.993 14.1818C123.284 14.0364 123.611 13.8545 123.975 13.6364C123.757 13.5636 123.575 13.4909 123.43 13.4182C123.284 13.3454 123.139 13.2727 122.993 13.2L122.448 12.5454C122.448 12.6182 122.448 12.7636 122.448 12.9818C122.521 13.1273 122.557 13.2727 122.557 13.4182V14.4ZM143.175 16.5818C143.248 16.5091 143.175 16.3273 142.957 16.0364C142.884 16.0364 142.775 16.1091 142.63 16.2545L142.957 16.3636C143.03 16.3636 143.066 16.4 143.066 16.4727C143.139 16.5454 143.175 16.5818 143.175 16.5818ZM139.684 18.1091C139.83 17.8182 139.902 17.6364 139.902 17.5636C139.902 17.2727 139.757 17.0182 139.466 16.8L139.139 17.4545C139.139 17.6727 139.321 17.8909 139.684 18.1091ZM138.157 22.0364L138.375 20.9454L137.939 21.1636L138.157 22.0364ZM140.557 21.9273C140.63 21.7818 140.593 21.6364 140.448 21.4909C140.375 21.4182 140.23 21.4182 140.011 21.4909C140.011 21.7818 140.193 21.9273 140.557 21.9273ZM118.848 43.2C119.066 43.2 119.211 42.9818 119.284 42.5454C119.066 42.4727 118.884 42.5091 118.739 42.6545C118.666 42.7273 118.702 42.9091 118.848 43.2ZM117.539 46.6909L118.411 46.5818H119.284L119.502 45.7091L118.411 45.6C117.83 46.0364 117.539 46.4 117.539 46.6909ZM139.248 47.5636C139.611 47.2 139.721 46.9454 139.575 46.8L138.593 46.6909C138.521 47.2 138.521 47.4545 138.593 47.4545L139.248 47.5636ZM139.139 48.6545L139.357 48.5454H139.684V48.3273C139.684 48.2545 139.648 48.2182 139.575 48.2182C139.575 48.2182 139.575 48.1818 139.575 48.1091C139.284 48.1818 139.139 48.3636 139.139 48.6545ZM133.139 55.9636C133.284 55.8909 133.43 55.6727 133.575 55.3091C133.43 55.2364 133.284 55.2727 133.139 55.4182C132.993 55.5636 132.993 55.7454 133.139 55.9636ZM126.266 59.8909C126.339 59.7454 126.302 59.6 126.157 59.4545C126.011 59.3091 125.866 59.3091 125.721 59.4545C125.721 59.6 125.902 59.7454 126.266 59.8909ZM121.466 85.5273C120.521 85.4545 119.684 85.3091 118.957 85.0909C118.23 84.8727 117.648 84.6909 117.211 84.5455C117.066 84.1818 117.066 84 117.211 84C117.284 83.9273 117.393 83.7818 117.539 83.5636C117.684 83.3455 117.866 83.1636 118.084 83.0182C118.011 82.9455 117.975 82.6909 117.975 82.2545C118.048 80.9455 118.375 80.4364 118.957 80.7273L120.375 80.9455C120.521 81.0182 120.702 81.0909 120.921 81.1636C121.139 81.2364 121.393 81.2727 121.684 81.2727H124.411C124.557 81.2727 124.666 81.2 124.739 81.0545C124.811 80.9818 124.884 80.9455 124.957 80.9455L125.721 81.2727C125.866 81.1273 125.939 80.9455 125.939 80.7273C126.011 80.5091 126.121 80.3273 126.266 80.1818L126.593 79.4182C126.593 79.3455 126.521 79.2364 126.375 79.0909C126.302 79.0182 126.266 78.9455 126.266 78.8727C126.121 78.5091 126.048 78.3273 126.048 78.3273L126.266 77.7818C126.411 77.7091 126.448 77.5636 126.375 77.3455C126.302 77.2 126.193 77.0909 126.048 77.0182C125.975 77.0182 125.866 76.9818 125.721 76.9091C125.575 76.9091 125.357 76.8727 125.066 76.8L124.411 76.1455C124.411 76.1455 124.193 76.1091 123.757 76.0364C123.393 76.0364 122.848 76 122.121 75.9273L121.139 76.0364C121.066 76.0364 120.957 76 120.811 75.9273C120.666 75.9273 120.557 75.9273 120.484 75.9273C120.411 75.9273 120.266 75.9273 120.048 75.9273C119.83 76 119.684 76 119.611 75.9273L118.957 74.4C118.811 74.2545 118.739 74.2182 118.739 74.2909C118.666 74.2182 118.63 74.1455 118.63 74.0727C118.702 74 118.739 73.9636 118.739 73.9636L118.848 73.2C118.921 73.0545 118.957 72.9091 118.957 72.7636C119.03 72.6182 119.139 72.5091 119.284 72.4364C119.43 72.0727 119.502 71.5636 119.502 70.9091C119.648 70.4727 119.902 70.0364 120.266 69.6C120.121 69.5273 120.048 69.2364 120.048 68.7273C120.193 68.2182 120.302 67.6727 120.375 67.0909C120.521 66.5818 120.666 65.8182 120.811 64.8C120.884 64.7273 121.175 64.6909 121.684 64.6909C121.902 64.6909 122.23 64.7273 122.666 64.8C123.102 64.8 123.648 64.8727 124.302 65.0182H125.611C125.757 65.0909 125.902 65.1636 126.048 65.2364C126.193 65.2364 126.266 65.2364 126.266 65.2364L127.248 65.3455C127.321 65.3455 127.357 65.4545 127.357 65.6727C127.357 65.9636 127.321 66.2909 127.248 66.6545C127.248 67.0182 127.175 67.2727 127.03 67.4182C126.957 67.6364 126.63 68.0727 126.048 68.7273C126.193 68.8727 126.266 69.1636 126.266 69.6L125.939 70.5818C125.793 71.0909 125.793 71.3455 125.939 71.3455C127.321 71.3455 127.975 71.3818 127.902 71.4545C127.902 71.5273 128.011 71.5636 128.23 71.5636C128.302 71.5636 128.375 71.5636 128.448 71.5636C128.521 71.6364 128.666 71.6727 128.884 71.6727C128.957 71.6 129.248 71.5636 129.757 71.5636C129.902 71.6364 130.048 71.7091 130.193 71.7818C130.411 71.8545 130.666 71.9636 130.957 72.1091C131.321 72.2545 131.611 72.3636 131.83 72.4364C132.121 72.5818 132.302 72.7636 132.375 72.9818C132.739 73.2 133.066 73.3455 133.357 73.4182C133.721 73.5636 133.939 73.8909 134.011 74.4L134.666 75.7091C134.739 75.7818 134.775 75.9636 134.775 76.2545C134.775 76.6182 134.775 76.8364 134.775 76.9091C134.775 77.0545 134.739 77.3091 134.666 77.6727C134.666 78.0364 134.63 78.3273 134.557 78.5455C134.193 79.0545 134.011 79.3091 134.011 79.3091C133.939 80.1818 133.721 80.7636 133.357 81.0545C133.066 81.4182 132.739 81.8182 132.375 82.2545C132.302 82.3273 132.193 82.4 132.048 82.4727C131.975 82.5455 131.83 82.6909 131.611 82.9091C131.611 83.1273 131.539 83.3818 131.393 83.6727C131.175 83.7455 130.921 83.8182 130.63 83.8909C130.339 83.9636 130.011 84.0727 129.648 84.2182C128.702 84.5818 127.611 84.8727 126.375 85.0909C125.211 85.3818 124.339 85.5273 123.757 85.5273C123.466 85.5273 123.284 85.4182 123.211 85.2C123.066 84.9818 122.848 84.8727 122.557 84.8727C122.266 84.8727 122.121 84.9818 122.121 85.2C121.902 85.4182 121.684 85.5273 121.466 85.5273ZM134.775 76.9091V77.0182C134.775 77.0182 134.775 76.9818 134.775 76.9091ZM169.208 67.9636L167.462 67.6364L166.371 67.8545C166.081 67.8545 165.717 67.8545 165.281 67.8545C164.917 67.8545 164.553 67.8182 164.19 67.7455L163.208 67.3091H162.117C161.681 66.8 160.99 66.4364 160.044 66.2182C159.099 66.1455 158.444 65.7818 158.081 65.1273L157.753 64.8C157.535 64.8727 157.171 64.8364 156.662 64.6909C156.371 64.3273 156.008 63.9273 155.571 63.4909C155.135 63.0545 154.626 62.5454 154.044 61.9636C154.044 61.8182 154.008 61.6364 153.935 61.4182C153.935 61.2 153.899 60.9454 153.826 60.6545C153.608 60.4364 153.353 60.1818 153.062 59.8909C152.844 59.5273 152.59 59.0909 152.299 58.5818C152.444 58.1454 152.444 57.4909 152.299 56.6182L151.971 56.0727V54.9818C151.971 54.6182 151.971 54.1818 151.971 53.6727C151.971 53.1636 151.935 52.6545 151.862 52.1454C151.644 51.9273 151.426 51.6 151.208 51.1636L150.99 49.0909L151.208 47.7818L151.317 46.4727C151.317 46.4 151.244 46.2182 151.099 45.9273V44.7273C151.026 44.5091 150.917 44.1818 150.771 43.7454L151.099 40.5818L150.444 36L150.771 35.2364C150.917 34.7273 150.953 34.3636 150.881 34.1454L150.553 33.1636C150.553 32.7273 150.553 32.1818 150.553 31.5273C150.553 30.8 150.517 29.9636 150.444 29.0182C150.153 28.6545 150.008 28.0364 150.008 27.1636C149.935 26.6545 149.935 26.2909 150.008 26.0727C150.226 25.5636 150.371 25.2727 150.444 25.2L149.899 24.6545C149.826 23.9273 149.79 23.3091 149.79 22.8C149.79 22.2182 149.79 21.6727 149.79 21.1636C149.79 20.6545 149.79 20.2182 149.79 19.8545C149.79 19.4182 149.826 19.0545 149.899 18.7636C150.19 18.1091 150.408 17.7454 150.553 17.6727C150.917 17.6 151.281 17.2 151.644 16.4727L151.753 16.3636C151.753 16.2182 151.462 15.9636 150.881 15.6C150.299 15.2364 150.008 14.9454 150.008 14.7273C150.081 14.5818 150.153 14.4364 150.226 14.2909C150.299 14.1454 150.371 13.9273 150.444 13.6364C150.299 13.0545 150.226 12.4364 150.226 11.7818C150.517 11.4182 150.844 10.9091 151.208 10.2545C151.644 9.6 152.117 8.87273 152.626 8.07273V7.41818C152.699 7.2 152.808 6.94546 152.953 6.65455C153.099 6.36364 153.244 6.07273 153.39 5.78182L154.044 5.34545C154.408 5.12728 154.953 4.69091 155.681 4.03637L156.99 2.83636C156.99 2.83636 157.062 2.83636 157.208 2.83636C157.353 2.83636 157.571 2.8 157.862 2.72727C158.008 2.58182 158.081 2.4 158.081 2.18182C158.299 2.25455 158.481 2.32727 158.626 2.4C158.844 2.47273 159.026 2.47273 159.171 2.4L159.608 2.29091C160.844 1.41818 161.571 0.981812 161.79 0.981812L162.335 1.2C162.335 1.2 162.335 1.23636 162.335 1.30909C162.408 1.30909 162.481 1.30909 162.553 1.30909C163.571 1.30909 164.044 1.05455 163.971 0.545454C164.335 0.32727 164.626 0.218179 164.844 0.218179C165.135 0.363631 165.317 0.581813 165.39 0.872722C165.39 0.945449 165.571 0.981812 165.935 0.981812C166.081 0.836359 166.262 0.72727 166.481 0.654543C166.771 0.509086 167.062 0.399995 167.353 0.327268C167.644 0.399995 167.935 0.509086 168.226 0.654543C168.517 0.72727 168.844 0.799996 169.208 0.872722L170.081 0.763633H170.408C170.626 0.763633 170.808 0.799996 170.953 0.872722C171.171 0.872722 171.39 0.909085 171.608 0.981812C171.681 1.34546 171.935 1.67273 172.371 1.96363H172.699C173.135 1.96363 173.681 2.07273 174.335 2.29091C174.408 2.36364 174.481 2.50909 174.553 2.72727C174.626 2.87273 174.699 3.05454 174.771 3.27273V3.92727L174.99 4.03637C175.281 3.74546 175.608 3.6 175.971 3.6H176.081C176.517 3.6 177.062 4.03637 177.717 4.90909C177.79 4.98182 177.862 5.16364 177.935 5.45454C178.008 5.67273 178.081 5.96364 178.153 6.32727L178.699 6.65455C178.771 6.65455 178.844 6.83637 178.917 7.2C179.062 7.27273 179.353 7.52727 179.79 7.96364L180.553 8.29091C180.553 8.65455 180.408 9.01818 180.117 9.38182C179.826 9.89091 179.681 10.2909 179.681 10.5818V10.9091C179.826 11.4909 180.444 12.1818 181.535 12.9818L182.19 14.5091C182.19 14.5091 182.153 14.6545 182.081 14.9454C182.008 15.1636 181.899 15.5273 181.753 16.0364C181.753 16.2545 181.79 16.4 181.862 16.4727C181.644 17.6364 181.535 18.4 181.535 18.7636L182.081 19.9636C182.081 20.1818 181.826 20.4364 181.317 20.7273C180.808 21.0182 180.553 21.2364 180.553 21.3818V21.4909C180.917 21.6364 181.244 21.8545 181.535 22.1454C181.899 22.3636 182.226 22.6182 182.517 22.9091C182.517 22.9818 182.444 23.1636 182.299 23.4545L182.081 23.8909C182.153 24.1091 182.19 24.5818 182.19 25.3091C182.117 25.6727 182.081 25.8182 182.081 25.7454C182.081 25.6727 182.081 25.7091 182.081 25.8545L182.19 27.8182V27.9273L182.081 28.3636C182.371 28.8 182.626 29.4545 182.844 30.3273V30.5454C182.844 30.7636 182.735 31.0545 182.517 31.4182L182.19 32.0727V32.4C182.19 32.9818 182.299 33.9273 182.517 35.2364L182.081 35.3454C181.862 35.3454 181.753 35.4182 181.753 35.5636C181.753 35.5636 181.935 35.7454 182.299 36.1091C182.299 36.8364 182.481 37.2727 182.844 37.4182C183.135 37.6364 183.281 37.9636 183.281 38.4C183.135 38.7636 183.135 39.3454 183.281 40.1454C183.208 40.5818 182.953 40.8 182.517 40.8C182.371 40.8 182.262 40.7636 182.19 40.6909C182.117 40.6182 182.008 40.5818 181.862 40.5818C181.571 40.7273 181.317 40.9091 181.099 41.1273C181.462 41.3454 181.717 41.4545 181.862 41.4545C182.081 41.4545 182.335 41.3454 182.626 41.1273C182.844 41.2 182.953 41.4909 182.953 42L183.062 43.0909C183.281 43.2364 183.426 43.4909 183.499 43.8545C183.499 44.2182 183.353 44.5454 183.062 44.8364C183.062 44.8364 183.135 44.9091 183.281 45.0545L183.608 45.4909L183.39 46.0364C183.317 46.2545 183.281 46.4364 183.281 46.5818C183.281 46.7273 183.281 46.8364 183.281 46.9091L182.844 47.2364C183.426 48.2545 183.717 48.9454 183.717 49.3091L183.608 49.6364C183.608 49.7091 183.571 49.7818 183.499 49.8545C183.426 49.8545 183.39 49.8909 183.39 49.9636C183.462 50.1091 183.499 50.3273 183.499 50.6182C183.499 50.8364 183.499 51.0909 183.499 51.3818C183.353 51.4545 183.135 51.7091 182.844 52.1454L183.062 54.4364V54.8727C183.062 55.4545 182.953 55.8545 182.735 56.0727L182.408 56.4L182.299 57.4909C181.717 58.2909 181.426 58.6545 181.426 58.5818C181.426 58.6545 181.535 58.7636 181.753 58.9091C181.681 58.9818 181.608 59.0545 181.535 59.1273C181.462 59.1273 181.39 59.2 181.317 59.3454L181.208 60.5454C181.135 60.6182 180.662 61.0545 179.79 61.8545C179.353 62.1454 179.099 62.5818 179.026 63.1636C178.444 63.5273 177.971 63.7818 177.608 63.9273C177.681 63.8545 177.608 63.8182 177.39 63.8182L175.971 65.8909C175.826 65.9636 175.644 66 175.426 66C175.281 66 175.062 66.0364 174.771 66.1091L173.899 66.6545C173.753 66.6545 173.571 66.6545 173.353 66.6545C173.208 66.7273 172.99 66.8 172.699 66.8727L170.735 67.8545C170.59 67.8545 170.481 67.8182 170.408 67.7455C170.335 67.6727 170.19 67.6364 169.971 67.6364L169.208 67.9636ZM171.39 6.76364L171.826 6.43636C171.826 6.36364 171.681 6.36364 171.39 6.43636V6.76364ZM172.808 7.41818C173.026 7.49091 173.244 7.38182 173.462 7.09091C173.39 7.01818 173.244 6.98182 173.026 6.98182C172.881 6.98182 172.808 7.12727 172.808 7.41818ZM167.026 9.92727L167.571 9.81818L167.353 9.38182C166.99 9.52728 166.881 9.70909 167.026 9.92727ZM166.481 58.1454C166.626 58.1454 167.062 57.9273 167.79 57.4909C168.153 57.8545 168.408 58.0364 168.553 58.0364C169.062 57.9636 169.317 57.8182 169.317 57.6V56.8364C169.39 56.6182 169.753 56.3273 170.408 55.9636C170.553 56.0364 170.662 56.3636 170.735 56.9454H171.281L171.499 56.7273C171.935 55.7091 172.153 55.2 172.153 55.2L171.826 54.3273C171.608 53.7454 171.499 53.4545 171.499 53.4545L171.608 52.9091C171.608 52.8364 171.608 52.8 171.608 52.8C171.681 52.7273 171.717 52.6545 171.717 52.5818C171.644 52.3636 171.608 51.8545 171.608 51.0545C171.681 50.1818 171.753 49.7818 171.826 49.8545C171.681 49.2727 171.571 48.7636 171.499 48.3273C171.426 47.8182 171.39 47.4182 171.39 47.1273C171.39 47.0545 171.681 46.7273 172.262 46.1454C172.771 45.7091 173.026 45.4545 173.026 45.3818L172.262 44.5091L172.481 42.4364L172.917 41.5636C172.844 41.4909 172.553 41.3454 172.044 41.1273C171.608 40.9091 171.39 40.7273 171.39 40.5818V40.4727C171.026 39.5273 170.844 38.8 170.844 38.2909L171.171 36.7636L171.39 35.4545L171.062 34.8C171.135 34.2909 171.135 33.6 171.062 32.7273C170.771 32.4364 170.59 32.1818 170.517 31.9636C170.517 31.9636 170.59 31.7091 170.735 31.2L170.953 30.5454C170.881 30.4 170.808 30.2545 170.735 30.1091C170.662 29.9636 170.59 29.7818 170.517 29.5636L170.844 27.2727L171.39 27.0545C171.608 26.9091 171.717 26.7273 171.717 26.5091C171.426 26.4364 171.062 26.2182 170.626 25.8545C170.262 25.3454 170.081 24.9454 170.081 24.6545L170.517 23.7818C170.735 23.2 170.844 22.9091 170.844 22.9091C170.699 22.8364 170.481 22.5818 170.19 22.1454L170.735 20.6182C170.59 20.4727 170.444 20.2909 170.299 20.0727C170.153 19.7818 170.008 19.4909 169.862 19.2C169.862 19.0545 170.008 18.8364 170.299 18.5454C170.226 18.3273 170.19 17.9636 170.19 17.4545C170.19 17.4545 170.262 17.3091 170.408 17.0182C170.553 16.8727 170.626 16.7273 170.626 16.5818L170.081 15.8182L169.971 13.9636C169.971 13.8182 169.862 13.6364 169.644 13.4182C169.499 13.3454 169.317 13.2364 169.099 13.0909C168.953 12.9454 168.735 12.8 168.444 12.6545L167.79 11.4545C167.862 11.5273 167.062 11.6 165.39 11.6727H165.281C165.062 11.6727 164.553 11.3818 163.753 10.8C162.735 10.2182 162.044 9.89091 161.681 9.81818C161.462 9.81818 161.244 10.0364 161.026 10.4727C160.881 10.9091 160.844 11.1636 160.917 11.2364C160.917 11.4545 161.171 11.8182 161.681 12.3273L162.444 13.0909L162.117 14.5091L161.681 15.3818C161.681 15.4545 161.681 15.5636 161.681 15.7091C161.681 15.8545 161.644 16 161.571 16.1454C161.499 16.2182 161.426 16.2909 161.353 16.3636C161.281 16.4364 161.208 16.5091 161.135 16.5818C161.135 16.6545 161.099 16.8 161.026 17.0182C161.026 17.1636 160.99 17.3818 160.917 17.6727L160.699 18.4364C160.699 18.5818 160.808 18.7636 161.026 18.9818C161.244 19.2 161.353 19.3818 161.353 19.5273L161.244 20.8364C161.317 20.9818 161.39 21.2 161.462 21.4909C161.608 21.7818 161.717 22.1091 161.79 22.4727V22.8C161.79 22.8727 161.79 23.0182 161.79 23.2364C161.79 23.4545 161.753 23.7091 161.681 24C161.608 24.2182 161.644 24.4 161.79 24.5454L162.008 24.6545C161.717 24.8 161.644 25.0545 161.79 25.4182C162.008 26.2182 162.081 26.6909 162.008 26.8364L161.681 27.7091C161.753 28 161.79 28.3273 161.79 28.6909C161.79 28.9818 161.826 29.3454 161.899 29.7818C161.681 30 161.462 30.3273 161.244 30.7636L162.335 31.4182C162.481 31.6364 162.59 32 162.662 32.5091C162.662 33.0182 162.517 33.5636 162.226 34.1454C162.008 34.2182 161.79 34.4364 161.571 34.8C161.862 34.9454 162.117 35.2727 162.335 35.7818L161.899 37.4182C161.971 37.5636 162.044 37.7454 162.117 37.9636C162.19 38.1818 162.262 38.4364 162.335 38.7273L162.226 39.0545C162.081 39.2 162.008 39.3091 162.008 39.3818C161.935 39.6727 161.862 40.0364 161.79 40.4727C161.79 40.8364 161.79 41.2 161.79 41.5636C161.935 41.6364 162.044 41.8545 162.117 42.2182C162.117 42.4364 162.117 42.7273 162.117 43.0909C162.19 43.3818 162.262 43.7091 162.335 44.0727L162.99 44.7273C163.135 44.8727 163.208 45.1636 163.208 45.6L162.226 46.0364C161.862 46.1818 161.681 46.5091 161.681 47.0182C161.681 47.0182 162.153 47.4909 163.099 48.4364C163.171 48.5091 163.244 48.5454 163.317 48.5454H163.208L163.099 48.4364C163.026 48.4364 162.881 48.4364 162.662 48.4364C162.953 48.4364 163.099 48.6545 163.099 49.0909C163.026 49.3818 162.917 49.6727 162.771 49.9636C162.699 50.2545 162.59 50.5818 162.444 50.9454C162.444 50.9454 162.626 51.1273 162.99 51.4909C163.281 51.7818 163.426 52 163.426 52.1454C163.426 52.1454 163.317 52.3273 163.099 52.6909C162.881 52.9818 162.771 53.2 162.771 53.3454C162.771 53.3454 162.953 53.6364 163.317 54.2182C163.681 54.8 163.862 55.1273 163.862 55.2C163.862 55.4909 163.644 55.7454 163.208 55.9636V56.4C163.208 57.1273 163.462 57.4545 163.971 57.3818L164.408 57.2727H164.626C165.135 57.2727 165.535 57.4182 165.826 57.7091C166.117 58 166.335 58.1454 166.481 58.1454ZM153.171 10.9091C153.39 10.9818 153.608 10.8364 153.826 10.4727C153.753 10.4 153.644 10.3636 153.499 10.3636C153.281 10.3636 153.171 10.5454 153.171 10.9091ZM157.644 12C157.862 12.0727 158.081 11.9273 158.299 11.5636C158.081 11.4182 157.899 11.4182 157.753 11.5636C157.681 11.6364 157.644 11.7818 157.644 12ZM155.571 15.3818C155.644 15.3818 155.79 15.3818 156.008 15.3818C156.226 15.3818 156.517 15.3454 156.881 15.2727C157.244 15.2727 157.426 15.1273 157.426 14.8364L157.208 14.0727H156.771L155.571 15.3818ZM175.535 17.2364C175.608 17.1636 175.644 17.0182 175.644 16.8C175.499 16.6545 175.317 16.5818 175.099 16.5818L174.99 17.1273L175.535 17.2364ZM175.099 24.4364L176.517 23.4545C176.299 23.3091 176.19 23.1636 176.19 23.0182C176.19 22.5091 176.008 22.1091 175.644 21.8182L175.208 21.9273C175.135 22 175.135 22.2182 175.208 22.5818C175.135 22.8 175.026 23.0545 174.881 23.3454C174.735 23.5636 174.59 23.8545 174.444 24.2182C174.735 24.3636 174.953 24.4364 175.099 24.4364ZM152.735 31.5273C152.808 31.2364 152.771 30.8727 152.626 30.4364L151.862 30.7636L152.735 31.5273ZM152.844 34.4727C153.208 34.3273 153.571 34.0727 153.935 33.7091C153.644 33.4182 153.39 33.2727 153.171 33.2727V33.4909C153.171 33.6364 153.062 33.8909 152.844 34.2545V34.4727ZM179.244 37.3091L180.335 36.9818V36.5454L179.79 36.4364L179.244 37.3091ZM181.317 37.8545C181.608 37.9273 181.899 37.8182 182.19 37.5273L181.535 37.4182C181.39 37.5636 181.317 37.7091 181.317 37.8545ZM179.571 38.2909V38.0727H179.244V38.2909H179.571ZM154.59 43.2L154.699 42.8727L153.935 42.7636L154.59 43.2ZM153.39 46.0364L153.935 45.8182L153.39 45.7091V46.0364ZM174.444 49.2C174.59 49.2 174.481 49.0909 174.117 48.8727C174.117 48.8727 174.044 48.9454 173.899 49.0909C173.971 49.1636 174.153 49.2 174.444 49.2ZM157.317 51.3818C157.681 51.3818 158.117 51.2 158.626 50.8364V50.4C158.262 49.9636 157.971 49.6727 157.753 49.5273L156.771 50.9454C156.771 51.0909 156.844 51.2364 156.99 51.3818H157.317ZM177.39 50.7273L177.281 50.1818C177.135 50.1818 177.026 50.2182 176.953 50.2909C176.953 50.2909 176.99 50.3636 177.062 50.5091C177.208 50.6545 177.317 50.7273 177.39 50.7273ZM174.662 50.9454C174.662 50.8 174.59 50.6545 174.444 50.5091C174.371 50.3636 174.226 50.4 174.008 50.6182C174.153 50.8364 174.371 50.9454 174.662 50.9454ZM154.044 51.6C154.481 51.8909 154.808 51.7454 155.026 51.1636C154.59 51.3091 154.262 51.4545 154.044 51.6ZM154.153 55.9636C153.935 55.6 153.826 55.3454 153.826 55.2L153.39 55.3091L153.499 55.7454C153.644 55.8909 153.862 55.9636 154.153 55.9636ZM154.59 55.8545L155.135 55.7454C155.208 55.6727 155.171 55.4909 155.026 55.2L154.59 55.4182V55.8545ZM176.953 58.0364C177.317 57.4545 177.462 57.0909 177.39 56.9454H176.844L176.408 57.7091L176.953 58.0364ZM163.862 60.3273L163.753 60H163.535L163.753 60.3273H163.862ZM163.208 65.3455C163.426 64.9818 163.608 64.8 163.753 64.8C164.117 64.8 164.444 64.9091 164.735 65.1273L164.953 64.8L164.408 63.7091C164.335 63.4909 164.19 63.3818 163.971 63.3818C163.826 63.3818 163.644 63.4545 163.426 63.6C163.208 63.7454 162.917 64.0727 162.553 64.5818C162.481 64.6545 162.444 64.8 162.444 65.0182C162.444 65.2364 162.517 65.3455 162.662 65.3455H163.208ZM192.503 68.4C192.358 68.4 192.248 68.3636 192.176 68.2909L191.739 68.0727C191.521 68.0727 191.23 68.0727 190.867 68.0727C190.576 68.0727 190.248 68.0364 189.885 67.9636C189.812 67.8909 189.776 67.7091 189.776 67.4182C189.776 67.5636 189.812 67.4545 189.885 67.0909C189.958 66.7273 190.067 66.1091 190.212 65.2364V64.8C190.212 64.4364 190.176 64.1454 190.103 63.9273L189.776 62.9454C189.776 62.9454 189.848 62.8 189.994 62.5091L190.212 61.9636C190.139 61.8182 190.103 61.4909 190.103 60.9818L190.321 60.4364V59.5636L190.648 58.4727L189.885 58.0364L190.43 56.8364L190.103 56.1818C190.248 55.8182 190.467 55.4909 190.758 55.2V55.0909C190.394 54.8 189.994 54.3636 189.558 53.7818L189.667 52.4727C189.885 52.2545 190.03 52.0727 190.103 51.9273C190.103 51.4909 190.067 51.2 189.994 51.0545L189.667 50.4C189.667 50.2545 189.776 49.9636 189.994 49.5273C190.212 49.1636 190.321 48.8727 190.321 48.6545L189.776 47.7818C189.558 47.5636 189.412 47.3454 189.339 47.1273V45.2727C189.485 45.2 189.667 45.0545 189.885 44.8364C189.739 44.5454 189.485 44.2545 189.121 43.9636C189.267 43.8182 189.339 43.6 189.339 43.3091C189.339 43.0909 189.303 42.8364 189.23 42.5454C189.158 42.2545 189.048 41.9636 188.903 41.6727C189.63 41.2364 190.139 41.0909 190.43 41.2364L190.758 41.1273C190.83 40.9818 190.867 40.9091 190.867 40.9091C190.867 40.8364 190.867 40.8 190.867 40.8C190.867 40.5091 190.648 40.2182 190.212 39.9273H189.23C189.23 39.8545 189.194 39.8182 189.121 39.8182C189.121 39.7454 189.121 39.6727 189.121 39.6C189.121 39.3091 189.23 38.9454 189.448 38.5091L189.339 37.7454C189.267 37.6727 189.23 37.1273 189.23 36.1091C189.23 35.7454 189.23 35.3454 189.23 34.9091C189.23 34.4727 189.194 34 189.121 33.4909C189.558 33.4909 189.848 33.4182 189.994 33.2727C189.848 33.2 189.703 32.9091 189.558 32.4V32.1818C189.558 31.9636 189.412 31.6727 189.121 31.3091V29.5636H189.339C189.558 29.5636 189.812 29.4909 190.103 29.3454C190.467 29.1273 190.648 28.9818 190.648 28.9091C190.648 28.5454 189.994 28.4364 188.685 28.5818C189.048 28 189.158 27.5636 189.012 27.2727L188.685 26.6182C188.685 26.4 188.83 26.1818 189.121 25.9636L189.339 25.4182V24.9818L188.576 22.0364C188.576 21.6 188.903 21.0182 189.558 20.2909C189.558 20.1454 189.485 20 189.339 19.8545C189.703 19.7091 189.958 19.5636 190.103 19.4182V19.2C189.812 19.0545 189.558 18.9818 189.339 18.9818C188.903 18.3273 188.685 17.8545 188.685 17.5636C188.685 17.4182 188.758 17.2727 188.903 17.1273C188.976 17.0545 189.012 16.9091 189.012 16.6909L188.903 13.9636C188.685 13.8182 188.503 13.5273 188.358 13.0909C188.358 13.0909 188.539 12.6545 188.903 11.7818C188.758 9.89091 188.612 8.43636 188.467 7.41818C188.394 6.32727 188.358 5.67273 188.358 5.45454C188.358 5.23637 188.285 4.83637 188.139 4.25455C187.994 3.67273 187.921 3.38182 187.921 3.38182L188.03 2.61818C188.176 2.47273 188.394 2.36364 188.685 2.29091H189.448C189.448 2.21818 189.594 2.14546 189.885 2.07273C190.03 2.07273 190.176 2.47273 190.321 3.27273C190.321 3.63636 190.503 3.81818 190.867 3.81818C191.303 3.81818 191.448 3.38182 191.303 2.50909L192.83 2.18182C193.048 2.4 193.376 2.61818 193.812 2.83636C194.176 2.83636 194.358 2.65455 194.358 2.29091V1.96363L195.23 1.85454L195.885 2.07273C196.83 2.07273 197.339 2.07273 197.412 2.07273V1.96363C197.412 1.96363 197.412 2 197.412 2.07273V2.18182C197.412 2.61818 197.667 2.94546 198.176 3.16364H198.721C198.867 3.38182 199.048 3.56364 199.267 3.70909H199.594C199.667 3.70909 199.703 3.63636 199.703 3.49091C199.412 3.05454 199.23 2.61818 199.158 2.18182V1.74546L199.376 1.52728C199.667 1.67273 199.848 1.85455 199.921 2.07273L201.012 1.63637C201.23 1.63637 201.485 1.67273 201.776 1.74546L202.867 1.85454L203.194 3.05455C203.558 3.34545 203.958 3.78182 204.394 4.36364C204.321 4.29091 204.248 4.58182 204.176 5.23637C203.958 5.30909 203.848 5.49091 203.848 5.78182C203.848 5.92727 203.885 6.18182 203.958 6.54546C204.03 6.90909 204.139 7.34546 204.285 7.85455L204.83 8.94545V9.49091C205.194 10.4364 205.376 11.6727 205.376 13.2C205.376 14.4364 205.63 15.2727 206.139 15.7091C206.139 16.2909 206.394 17.4909 206.903 19.3091L207.448 20.4C207.158 20.8364 206.903 21.4909 206.685 22.3636C206.758 22.5091 206.794 22.6909 206.794 22.9091C206.794 23.1273 206.794 23.3091 206.794 23.4545C206.867 23.7454 206.903 24.0364 206.903 24.3273C206.976 24.5454 207.012 24.7636 207.012 24.9818C207.012 25.2 207.012 25.4182 207.012 25.6364C207.085 25.8545 207.23 26.0727 207.448 26.2909C207.812 26.7273 208.03 27.9636 208.103 30C208.467 30.1454 208.685 30.3273 208.758 30.5454C208.685 30.8364 208.758 31.0909 208.976 31.3091C209.412 31.5273 209.63 31.6727 209.63 31.7454V32.5091C209.921 33.0182 210.103 33.4182 210.176 33.7091C210.321 33.9273 210.394 34.0364 210.394 34.0364C210.83 34.0364 211.085 33.7091 211.158 33.0545C211.303 32.4 211.412 32.0727 211.485 32.0727C211.703 32.2182 211.958 32.3636 212.248 32.5091C212.539 32.5091 212.685 32.2545 212.685 31.7454C212.685 31.5273 212.539 31.2364 212.248 30.8727C212.03 30.6545 211.921 30.2182 211.921 29.5636C211.921 29.4182 211.921 29.2364 211.921 29.0182C211.994 28.8 212.067 28.5454 212.139 28.2545C212.285 27.9636 212.358 27.7091 212.358 27.4909C212.43 27.2 212.503 26.9454 212.576 26.7273L212.903 26.2909C212.903 26.1454 212.903 25.9636 212.903 25.7454C212.903 25.5273 212.867 25.2727 212.794 24.9818L212.685 23.5636C212.903 23.5636 213.194 23.4182 213.558 23.1273C213.558 23.0545 213.521 23.0182 213.448 23.0182C213.303 22.8727 213.158 22.8 213.012 22.8C212.794 22.4364 212.685 22.1818 212.685 22.0364C212.685 21.8909 212.794 21.6 213.012 21.1636L213.339 20.1818C213.776 19.8182 213.994 19.5636 213.994 19.4182C213.848 19.2727 213.63 18.9818 213.339 18.5454C213.339 18.2545 213.448 18 213.667 17.7818C213.885 17.4182 213.994 17.2364 213.994 17.2364C213.921 17.0182 213.921 16.6545 213.994 16.1454C213.994 16 214.212 15.6727 214.648 15.1636L213.994 14.5091L214.43 13.7454C215.376 12.8 215.848 12.1454 215.848 11.7818C215.848 11.5636 215.703 11.2727 215.412 10.9091C215.048 10.5454 214.867 10.0364 214.867 9.38182V8.72727C215.23 8.14546 215.558 7.6 215.848 7.09091C216.212 6.58182 216.467 6.07273 216.612 5.56364C216.685 5.27273 216.721 5.09091 216.721 5.01819C216.794 4.94546 216.83 4.94546 216.83 5.01819C216.83 4.72728 216.758 4.58182 216.612 4.58182C216.539 4.58182 216.358 4.72728 216.067 5.01819C215.776 4.87273 215.558 4.43636 215.412 3.70909V2.83636C215.485 2.54545 215.558 2.29091 215.63 2.07273C215.776 1.85455 215.885 1.63636 215.958 1.41818L216.939 1.2C217.521 1.2 217.958 1.30909 218.248 1.52728L218.685 1.85454C218.903 1.78182 219.23 1.6 219.667 1.30909L220.43 1.09091L222.176 1.63637V2.83636C222.321 3.27273 222.539 3.49091 222.83 3.49091C223.267 3.34545 223.485 3.12727 223.485 2.83636L223.376 2.29091C223.303 2.14546 223.267 1.96364 223.267 1.74546C223.267 1.6 223.303 1.49091 223.376 1.41818L224.248 1.09091C224.394 0.799998 224.612 0.61818 224.903 0.545454L226.648 0.981812C226.794 0.981812 226.903 1.01818 226.976 1.09091L227.303 1.30909C227.448 1.16364 227.667 1.05455 227.958 0.981812L230.794 0.872722C230.867 1.01818 230.939 1.2 231.012 1.41818C231.158 1.56364 231.267 1.74546 231.339 1.96363C231.339 1.96363 231.23 2.14545 231.012 2.50909C230.939 2.8 230.867 3.05454 230.794 3.27273C230.794 3.49091 230.794 3.70909 230.794 3.92727C230.794 4.14545 230.939 4.4 231.23 4.69091C231.158 4.76364 231.085 4.83636 231.012 4.90909C231.012 4.98182 230.939 5.09091 230.794 5.23637L230.576 5.89091V7.09091L230.685 7.2L230.576 7.85455C230.648 8 230.685 8.29091 230.685 8.72727C230.758 9.16364 230.794 9.52727 230.794 9.81818C230.794 9.89091 230.794 10.0364 230.794 10.2545C230.867 10.4727 230.939 10.7273 231.012 11.0182L231.23 12L230.903 13.2C230.685 13.7091 230.539 14.1454 230.467 14.5091C230.612 14.7273 230.758 14.9454 230.903 15.1636C230.758 14.9454 230.612 14.7636 230.467 14.6182C230.467 14.6182 230.467 14.5818 230.467 14.5091C229.376 12.8364 228.394 11.4182 227.521 10.2545C226.648 9.01818 225.885 8 225.23 7.2L225.121 7.41818C225.703 8.36364 226.503 9.56364 227.521 11.0182C228.612 12.4727 229.848 14.1454 231.23 16.0364C230.939 15.8909 230.758 15.7091 230.685 15.4909C230.176 15.5636 229.958 15.7818 230.03 16.1454L230.467 16.8C230.394 16.8727 230.394 17.0909 230.467 17.4545C230.612 17.5273 230.721 17.6364 230.794 17.7818C230.939 17.9273 231.085 18.0727 231.23 18.2182L230.794 18.7636C230.721 18.9091 230.648 19.0182 230.576 19.0909C230.576 19.1636 230.576 19.2364 230.576 19.3091C230.576 19.6 230.83 19.7454 231.339 19.7454C231.121 20.8364 230.976 21.3091 230.903 21.1636C230.903 21.1636 231.194 21.4545 231.776 22.0364C231.776 22.1818 231.739 22.3636 231.667 22.5818C231.667 22.8 231.63 23.0545 231.558 23.3454C231.412 23.4909 231.23 23.7091 231.012 24C230.794 24.2182 230.539 24.5091 230.248 24.8727L229.812 25.7454C229.812 26.3273 229.921 26.6909 230.139 26.8364C230.358 26.9091 230.576 26.9818 230.794 27.0545C230.939 26.8364 231.085 26.7273 231.23 26.7273C231.521 26.7273 231.703 26.9454 231.776 27.3818C231.776 27.5273 231.521 27.8545 231.012 28.3636C231.158 28.7273 231.448 29.2 231.885 29.7818L231.012 30.5454C230.576 30.8364 230.358 31.1273 230.358 31.4182L230.576 31.8545H230.903C231.194 31.8545 231.485 31.6 231.776 31.0909H232.212L232.321 31.4182C232.321 31.4182 232.285 31.5273 232.212 31.7454C232.212 31.9636 232.176 32.2909 232.103 32.7273C232.03 33.2364 231.958 33.6727 231.885 34.0364C231.885 34.3273 231.885 34.5454 231.885 34.6909C231.521 35.2 231.339 35.5636 231.339 35.7818C231.194 35.6364 231.085 35.5636 231.012 35.5636C230.867 35.5636 230.794 35.7454 230.794 36.1091C230.794 36.5454 230.976 37.5636 231.339 39.1636C231.485 39.5273 231.594 39.8909 231.667 40.2545C231.739 40.6182 231.812 40.9818 231.885 41.3454C231.958 42.5818 231.994 43.2 231.994 43.2C231.848 43.5636 231.776 43.8182 231.776 43.9636V44.7273C231.776 46.1818 231.594 46.9091 231.23 46.9091C231.23 46.8364 231.194 46.8 231.121 46.8L231.558 47.4545C231.63 47.5273 231.667 47.6364 231.667 47.7818V48.1091C231.885 48.2545 232.067 48.5091 232.212 48.8727L232.43 50.5091V51.1636L232.321 52.2545C232.176 52.4 231.994 52.5091 231.776 52.5818C231.485 52.6545 231.339 52.8364 231.339 53.1273L231.448 54.3273L231.885 54.2182C232.248 54.2182 232.467 54.3636 232.539 54.6545C232.685 54.8 232.685 55.0909 232.539 55.5273L232.321 56.2909C232.394 56.3636 232.503 56.5454 232.648 56.8364C232.648 57.0545 232.612 57.2 232.539 57.2727V57.7091C232.467 57.9273 232.43 58.1091 232.43 58.2545L232.539 61.2C232.758 61.4182 232.903 61.6364 232.976 61.8545L232.648 62.7273C232.721 63.3091 232.758 63.7454 232.758 64.0364C232.758 64.2545 232.794 64.2909 232.867 64.1454C232.721 64.8 232.612 65.1636 232.539 65.2364L232.758 65.5636C232.83 65.7091 232.867 65.8182 232.867 65.8909C232.939 65.9636 232.976 66.0364 232.976 66.1091C232.976 66.6909 232.867 67.0182 232.648 67.0909C232.648 67.0909 232.612 67.0909 232.539 67.0909H232.648C232.648 67.0182 232.648 66.9818 232.648 66.9818L231.776 66.6545H230.794C230.648 66.6545 230.467 66.6909 230.248 66.7636H229.376L228.939 66.6545C228.794 66.6545 228.648 66.6909 228.503 66.7636L228.067 66.8727L226.103 66.4364C226.03 66.4364 225.885 66.5455 225.667 66.7636C225.448 66.9818 225.23 67.0909 225.012 67.0909C224.721 67.0909 224.212 66.8364 223.485 66.3273C223.412 66.4727 223.048 66.7636 222.394 67.2C221.885 67.2 221.63 66.9091 221.63 66.3273L222.067 61.6364V61.0909C221.848 61.0182 221.594 61.0182 221.303 61.0909C221.667 60.8 221.812 60.4364 221.739 60L221.521 59.1273V59.0182C221.521 58.8 221.739 58.5818 222.176 58.3636C222.03 58.1454 221.885 57.8909 221.739 57.6C221.667 57.3818 221.594 57.2 221.521 57.0545C221.521 56.8364 221.521 56.6545 221.521 56.5091C221.594 56.3636 221.63 56.0364 221.63 55.5273L221.303 54.8727C221.739 54.8 222.067 54.5091 222.285 54C222.212 53.8545 221.994 53.7091 221.63 53.5636C221.703 53.2 221.739 52.9091 221.739 52.6909C221.812 52.4 221.812 52.1818 221.739 52.0364L221.303 50.6182L221.521 49.5273L221.739 48.6545L221.085 46.4727C221.085 46.2545 221.267 45.9636 221.63 45.6C221.485 45.5273 221.339 45.4182 221.194 45.2727C221.048 45.1273 220.903 44.9818 220.758 44.8364C220.903 44.4 220.976 43.7454 220.976 42.8727C220.976 42.6545 221.012 42.5091 221.085 42.4364L220.758 41.5636C220.758 40.8364 220.867 40.3636 221.085 40.1454C221.303 39.9273 221.412 39.6364 221.412 39.2727C221.412 38.6909 221.194 38.1454 220.758 37.6364C220.976 37.7818 221.121 37.8182 221.194 37.7454C221.485 37.7454 221.667 37.6364 221.739 37.4182L220.758 37.0909C220.685 37.0182 220.612 36.9454 220.539 36.8727C220.467 36.7273 220.358 36.6182 220.212 36.5454C220.358 36.3273 220.612 36.1091 220.976 35.8909C220.976 36.0364 221.048 36.1818 221.194 36.3273C221.194 36.2545 221.267 36.1454 221.412 36C220.394 35.4182 219.958 35.1273 220.103 35.1273C219.812 35.1273 219.594 35.3091 219.448 35.6727V36.9818C219.158 37.0545 219.012 37.2727 219.012 37.6364V38.2909C218.939 38.3636 218.83 38.5818 218.685 38.9454L218.794 40.4727C218.721 40.5454 218.612 40.6909 218.467 40.9091C218.321 41.0545 218.103 41.2727 217.812 41.5636C218.176 41.8545 218.43 42.4364 218.576 43.3091C218.576 43.6 218.539 43.7818 218.467 43.8545C218.03 44.2909 217.776 44.8364 217.703 45.4909C217.63 45.8545 217.558 46.2182 217.485 46.5818C217.412 46.8727 217.303 47.2 217.158 47.5636L217.703 47.6727V49.3091L217.158 50.1818C217.23 50.2545 217.303 50.5091 217.376 50.9454C217.448 51.1636 217.485 51.3818 217.485 51.6C217.558 51.8182 217.558 52.0364 217.485 52.2545L217.158 52.9091H216.83L216.176 52.5818C215.594 54.1091 215.303 54.7273 215.303 54.4364L216.176 55.3091C216.321 55.7454 216.394 56.2182 216.394 56.7273V57.8182C216.321 57.8909 216.176 58.0364 215.958 58.2545C215.812 58.4 215.667 58.6182 215.521 58.9091C215.376 59.2 215.303 59.6 215.303 60.1091L215.521 60.3273C215.594 60.4 215.63 60.5091 215.63 60.6545L215.303 63.0545C215.303 63.2727 215.158 63.5273 214.867 63.8182V64.1454C214.867 64.4364 214.721 64.6182 214.43 64.6909C214.794 65.3454 215.012 65.8909 215.085 66.3273C215.085 66.4727 215.012 66.6909 214.867 66.9818C214.576 67.0545 214.248 67.1273 213.885 67.2C213.521 67.3455 213.158 67.4909 212.794 67.6364L211.485 67.5273L210.176 67.3091L208.648 67.7455C208.43 67.7455 208.285 67.7091 208.212 67.6364C208.212 67.5636 208.139 67.2727 207.994 66.7636C207.703 66.4727 207.521 66.2182 207.448 66L207.012 64.2545C207.158 64.0364 207.339 63.9273 207.558 63.9273V63.1636C208.139 63.0182 208.467 62.8364 208.539 62.6182C208.467 62.3273 208.321 62.1818 208.103 62.1818C207.667 62.2545 207.448 62.5818 207.448 63.1636H206.794L207.012 60.7636L206.794 59.8909L206.467 59.0182C206.467 58.5091 206.83 58.2545 207.558 58.2545L207.994 58.4727C208.285 58.4727 208.467 58.3273 208.539 58.0364C207.885 57.7454 207.376 57.6 207.012 57.6L206.685 57.7091C206.685 57.6364 206.758 57.4545 206.903 57.1636C206.685 56.9454 206.539 56.8364 206.467 56.8364L205.703 56.9454C205.63 56.8727 205.594 56.5818 205.594 56.0727C205.594 55.6364 205.703 55.2727 205.921 54.9818L206.139 54.4364C205.994 54.2909 205.812 54.1454 205.594 54C205.448 53.8545 205.23 53.6727 204.939 53.4545C204.867 53.3818 204.83 53.2727 204.83 53.1273C204.83 52.9091 204.794 52.6545 204.721 52.3636L205.158 50.4C205.085 50.3273 205.012 50.2545 204.939 50.1818C204.867 50.1091 204.758 50 204.612 49.8545L204.394 48.6545C204.321 48.5818 204.212 48.5091 204.067 48.4364C203.994 48.2909 203.885 48.1091 203.739 47.8909C203.812 47.8182 203.848 47.7091 203.848 47.5636C203.848 47.2727 203.739 46.9818 203.521 46.6909V46.2545L203.848 46.1454C204.576 46.0727 204.939 45.8545 204.939 45.4909C204.939 45.2 204.467 45.0182 203.521 44.9454C203.303 44.3636 203.194 43.8545 203.194 43.4182L203.412 43.0909V42.8727C203.194 42.3636 202.939 42.0364 202.648 41.8909L202.539 41.6727C202.539 41.6 202.576 41.5273 202.648 41.4545L202.212 41.1273C202.794 40.1818 203.085 39.7091 203.085 39.7091C203.085 39.3454 202.867 39.0182 202.43 38.7273C202.43 38.6545 202.612 38.4364 202.976 38.0727L201.558 37.8545C201.339 37.4909 201.194 37.3091 201.121 37.3091C200.758 37.4545 200.539 37.6 200.467 37.7454V38.2909L200.139 38.6182V39.0545C200.212 39.2 200.285 39.3818 200.358 39.6C200.43 39.8182 200.503 40.0727 200.576 40.3636C200.576 40.7273 200.467 41.0182 200.248 41.2364C199.958 41.4545 199.812 41.6 199.812 41.6727L200.794 43.3091C200.867 43.3818 200.903 43.5273 200.903 43.7454C200.903 43.8909 200.939 44.0364 201.012 44.1818C200.939 44.1091 200.867 44.2182 200.794 44.5091C200.503 44.5818 200.321 44.7636 200.248 45.0545L200.139 45.6C200.43 45.8909 200.685 46.0364 200.903 46.0364L201.121 52.4727L200.903 52.8C200.976 53.0182 201.012 53.3818 201.012 53.8909C201.012 54.1091 200.903 54.4364 200.685 54.8727L200.467 55.5273C200.467 55.6 200.467 55.6727 200.467 55.7454C200.539 55.8182 200.612 55.9273 200.685 56.0727C200.83 56.2909 200.83 56.6909 200.685 57.2727C200.976 57.6364 201.048 58.2182 200.903 59.0182C200.976 59.8182 201.012 60.4727 201.012 60.9818C201.085 61.4909 201.085 61.8909 201.012 62.1818C201.158 62.4 201.267 62.6182 201.339 62.8364C201.412 62.9818 201.485 63.1273 201.558 63.2727C201.412 63.7091 201.267 64.1818 201.121 64.6909C201.048 65.1273 200.939 65.6364 200.794 66.2182L201.339 66.9818V67.4182C201.194 67.5636 200.976 67.7091 200.685 67.8545C200.467 68 200.212 68.1455 199.921 68.2909C199.485 68.2909 199.012 68.1455 198.503 67.8545L197.412 67.3091C197.194 67.5273 196.976 67.7091 196.758 67.8545C196.467 67.9273 196.176 67.9636 195.885 67.9636C195.667 68.0364 195.485 68.0727 195.339 68.0727L193.812 67.8545C193.739 67.8545 193.521 67.9636 193.158 68.1818L192.503 68.4ZM220.539 3.16364C220.539 2.87273 220.467 2.65455 220.321 2.50909L220.103 3.16364H220.539ZM197.739 7.2L198.176 6.98182L197.958 6.65455C197.885 6.72727 197.848 6.8 197.848 6.87273C197.848 6.94545 197.812 7.05455 197.739 7.2ZM222.503 8.07273L222.939 7.74546C222.939 7.67273 222.794 7.67273 222.503 7.74546C222.43 7.81818 222.43 7.92727 222.503 8.07273ZM223.921 8.83636C224.139 8.98182 224.321 8.83637 224.467 8.4C224.394 8.32727 224.285 8.29091 224.139 8.29091C223.848 8.29091 223.776 8.47273 223.921 8.83636ZM193.594 10.8C193.812 10.8727 193.994 10.8364 194.139 10.6909C194.285 10.5454 194.212 10.3636 193.921 10.1454C193.703 10.2182 193.594 10.4364 193.594 10.8ZM201.448 13.0909C201.739 12.9454 201.921 12.8364 201.994 12.7636C201.703 12.1818 201.594 11.7454 201.667 11.4545C201.812 11.3091 201.958 11.1636 202.103 11.0182C202.248 10.8 202.394 10.5818 202.539 10.3636C201.958 10.2182 201.558 10.1818 201.339 10.2545C200.903 10.2545 200.648 10.2909 200.576 10.3636C200.212 10.5818 200.03 10.8364 200.03 11.1273C200.03 12.4364 200.503 13.0909 201.448 13.0909ZM199.158 17.4545C199.23 17.3091 199.194 17.1636 199.048 17.0182C198.976 16.9454 198.794 16.9818 198.503 17.1273C198.648 17.3454 198.867 17.4545 199.158 17.4545ZM194.358 20.5091C194.358 20.3636 194.285 20.2182 194.139 20.0727C194.067 19.9273 193.921 19.9636 193.703 20.1818C193.703 20.4 193.921 20.5091 194.358 20.5091ZM225.012 21.9273C225.012 21.8545 224.903 21.7091 224.685 21.4909L224.467 21.7091C224.539 21.7818 224.612 21.8182 224.685 21.8182C224.83 21.8182 224.939 21.8545 225.012 21.9273ZM190.212 22.4727C190.43 22.6182 190.612 22.5091 190.758 22.1454C190.685 22.0727 190.576 22.0364 190.43 22.0364C190.212 22.0364 190.139 22.1818 190.212 22.4727ZM227.848 23.0182C227.776 22.8727 227.667 22.8727 227.521 23.0182L227.848 23.4545V23.0182ZM225.23 23.6727C225.23 23.4545 225.158 23.2727 225.012 23.1273C224.867 23.1273 224.721 23.2 224.576 23.3454C224.576 23.5636 224.794 23.6727 225.23 23.6727ZM202.212 28.5818C202.358 28.4364 202.43 28.2545 202.43 28.0364C202.067 28.1091 201.812 28.2909 201.667 28.5818H202.212ZM202.758 29.6727L202.539 29.3454L201.776 29.6727H202.758ZM206.903 30.3273C206.903 30.1818 206.758 30.1091 206.467 30.1091C206.685 30.3273 206.83 30.4 206.903 30.3273ZM197.739 37.7454C197.812 37.7454 197.885 37.7091 197.958 37.6364L197.521 37.3091C197.448 37.3091 197.376 37.3454 197.303 37.4182L197.739 37.7454ZM207.558 39.4909V38.7273C207.194 39.0909 206.939 39.2727 206.794 39.2727C206.867 39.2727 206.903 39.3454 206.903 39.4909H207.558ZM198.067 39.9273L198.83 39.8182C198.758 39.4545 198.539 39.2364 198.176 39.1636L198.067 39.9273ZM225.448 43.3091C225.812 42.9454 225.994 42.5818 225.994 42.2182V41.8909C225.921 41.7454 225.776 41.6 225.558 41.4545C225.412 41.3091 225.23 41.0909 225.012 40.8L224.794 42C224.794 42.2909 225.012 42.7273 225.448 43.3091ZM213.558 44.1818C214.503 44.0364 215.012 44 215.085 44.0727L214.976 43.2C214.612 42.8364 214.285 42.6909 213.994 42.7636C213.848 42.9091 213.703 43.3818 213.558 44.1818ZM232.103 43.0909C232.103 43.0909 232.067 43.1273 231.994 43.2C232.067 43.2 232.103 43.2 232.103 43.2C232.103 43.1273 232.103 43.0909 232.103 43.0909ZM211.376 47.1273L211.158 46.8H211.048L211.158 47.1273H211.376ZM197.739 49.8545C197.958 49.9273 198.176 49.8182 198.394 49.5273C198.176 49.3091 197.994 49.2727 197.848 49.4182C197.703 49.5636 197.667 49.7091 197.739 49.8545ZM194.248 52.0364C194.321 51.9636 194.358 51.8545 194.358 51.7091C194.358 51.4909 194.212 51.3818 193.921 51.3818C193.848 51.6 193.958 51.8182 194.248 52.0364ZM228.939 57.8182C229.23 57.8182 229.448 57.7454 229.594 57.6C229.23 57.0182 229.158 56.5454 229.376 56.1818C229.521 56.0364 229.667 55.8909 229.812 55.7454C229.958 55.6 230.103 55.4182 230.248 55.2C229.958 55.1273 229.703 55.0909 229.485 55.0909C229.267 55.0182 229.085 54.9818 228.939 54.9818C228.721 54.9818 228.467 55.0545 228.176 55.2C227.812 55.4182 227.63 55.7454 227.63 56.1818C227.776 57.2727 228.212 57.8182 228.939 57.8182ZM198.067 57.0545C198.139 56.9091 198.067 56.7636 197.848 56.6182C197.776 56.4727 197.63 56.5091 197.412 56.7273C197.558 56.9454 197.776 57.0545 198.067 57.0545ZM195.012 65.7818C195.158 65.6364 195.521 65.5273 196.103 65.4545C196.612 65.4545 196.83 65.2 196.758 64.6909L196.648 64.3636L196.212 64.2545L195.23 64.5818C195.158 64.5818 195.121 64.5454 195.121 64.4727H194.903C194.612 64.4727 194.467 64.5818 194.467 64.8C194.467 65.2364 194.648 65.5636 195.012 65.7818Z" fill="#F65C5C"/>
</g>
<defs>
<clipPath id="clip0_122_485">
<rect width="233" height="86" fill="white"/>
</clipPath>
</defs>
</svg>
