<svg width="508" height="247" viewBox="0 0 508 247" fill="none" xmlns="http://www.w3.org/2000/svg">
<path d="M11.707 96V23.3044H1.02244V6.02517H40.3864V23.3044H29.7019V96H11.707ZM46.4434 96V6.02517H82.4333V23.4067H64.7451V40.9415H81.7176V57.8629H64.7451V78.4651H83.6091V96H46.4434ZM111.597 96.818C105.088 96.818 99.8393 94.7901 95.8518 90.7344C91.8984 86.6787 89.9217 81.0042 89.9217 73.7108V32.1997C89.9217 23.4748 91.6428 16.7949 95.085 12.1598C98.5613 7.52475 104.202 5.20722 112.006 5.20722C116.267 5.20722 120.05 5.99109 123.355 7.55883C126.695 9.12658 129.32 11.4782 131.228 14.6137C133.137 17.7151 134.091 21.6344 134.091 26.3718V41.9129H116.198V28.6211C116.198 25.9287 115.858 24.1224 115.176 23.2022C114.494 22.2479 113.438 21.7708 112.006 21.7708C110.336 21.7708 109.212 22.3842 108.632 23.6112C108.053 24.804 107.763 26.4058 107.763 28.4166V73.4552C107.763 75.9431 108.121 77.6983 108.837 78.7207C109.587 79.7432 110.643 80.2544 112.006 80.2544C113.54 80.2544 114.614 79.6239 115.227 78.3629C115.875 77.1019 116.198 75.466 116.198 73.4552V57.2495H134.296V74.2731C134.296 82.18 132.302 87.9227 128.314 91.5013C124.327 95.0457 118.755 96.818 111.597 96.818ZM141.375 96V6.02517H159.881L168.163 49.1211V6.02517H185.544V96H167.958L158.961 51.0126V96H141.375ZM216.038 96.818C208.847 96.818 203.342 94.6538 199.525 90.3255C195.742 85.963 193.851 79.675 193.851 71.4614V28.7234C193.851 21.021 195.725 15.176 199.474 11.1885C203.257 7.20098 208.778 5.20722 216.038 5.20722C223.297 5.20722 228.801 7.20098 232.55 11.1885C236.333 15.176 238.225 21.021 238.225 28.7234V71.4614C238.225 79.675 236.316 85.963 232.499 90.3255C228.716 94.6538 223.229 96.818 216.038 96.818ZM216.191 80.2544C218.918 80.2544 220.281 77.6131 220.281 72.3305V28.4166C220.281 23.9861 218.952 21.7708 216.293 21.7708C213.294 21.7708 211.795 24.0372 211.795 28.57V72.4327C211.795 75.2274 212.135 77.2382 212.817 78.4651C213.499 79.658 214.623 80.2544 216.191 80.2544ZM246.531 96V6.02517H264.526V80.6634H283.032V96H246.531ZM310.663 96.818C303.471 96.818 297.967 94.6538 294.15 90.3255C290.367 85.963 288.476 79.675 288.476 71.4614V28.7234C288.476 21.021 290.35 15.176 294.099 11.1885C297.882 7.20098 303.403 5.20722 310.663 5.20722C317.922 5.20722 323.426 7.20098 327.175 11.1885C330.958 15.176 332.85 21.021 332.85 28.7234V71.4614C332.85 79.675 330.941 85.963 327.124 90.3255C323.341 94.6538 317.854 96.818 310.663 96.818ZM310.816 80.2544C313.543 80.2544 314.906 77.6131 314.906 72.3305V28.4166C314.906 23.9861 313.577 21.7708 310.918 21.7708C307.919 21.7708 306.42 24.0372 306.42 28.57V72.4327C306.42 75.2274 306.76 77.2382 307.442 78.4651C308.124 79.658 309.248 80.2544 310.816 80.2544ZM359.713 96.818C346.865 96.818 340.44 87.616 340.44 69.212V30.4104C340.44 13.6083 347.802 5.20722 362.525 5.20722C368.591 5.20722 373.244 6.43415 376.481 8.88801C379.719 11.3078 381.951 14.8522 383.178 19.5214C384.405 24.1905 385.019 29.8821 385.019 36.5962H367.433V28.6211C367.433 26.6785 367.16 25.0596 366.615 23.7645C366.103 22.4354 365.013 21.7708 363.343 21.7708C361.264 21.7708 359.884 22.4694 359.202 23.8668C358.554 25.2641 358.231 26.7978 358.231 28.4678V72.0749C358.231 74.4947 358.537 76.4714 359.151 78.005C359.798 79.5046 361.042 80.2544 362.883 80.2544C364.791 80.2544 366.052 79.5046 366.666 78.005C367.313 76.4714 367.637 74.4606 367.637 71.9726V59.141H362.832V43.5999H384.814V96H377.606L374.539 88.4339C371.403 94.0233 366.461 96.818 359.713 96.818ZM392.2 96V6.02517H409.582V96H392.2ZM415.332 96L424.023 6.02517H454.543L463.08 96H446.056L444.778 81.4813H433.94L432.816 96H415.332ZM435.218 67.116H443.398L439.462 21.3618H438.644L435.218 67.116Z" fill="#9A92FF"/>
<path d="M3.98752 198V108.025H39.9775V125.407H22.2892V142.942H39.2617V159.863H22.2892V180.465H41.1533V198H3.98752ZM95.1361 198.818C86.9225 198.818 80.9923 196.773 77.3456 192.683C73.733 188.594 71.9267 182.084 71.9267 173.155V164.362H89.7172V175.609C89.7172 177.688 90.0239 179.323 90.6374 180.516C91.2849 181.675 92.3926 182.254 93.9603 182.254C95.5962 182.254 96.7209 181.777 97.3344 180.823C97.9819 179.869 98.3057 178.301 98.3057 176.12C98.3057 173.359 98.033 171.059 97.4877 169.218C96.9424 167.344 95.9881 165.572 94.6249 163.902C93.2957 162.198 91.4383 160.221 89.0526 157.971L80.9753 150.303C74.9429 144.612 71.9267 138.102 71.9267 130.774C71.9267 123.106 73.6989 117.261 77.2434 113.24C80.8219 109.218 85.9853 107.207 92.7334 107.207C100.981 107.207 106.826 109.405 110.268 113.802C113.745 118.198 115.483 124.878 115.483 133.842H97.181V127.656C97.181 126.429 96.8231 125.475 96.1074 124.793C95.4258 124.112 94.4886 123.771 93.2957 123.771C91.8643 123.771 90.8078 124.18 90.1261 124.998C89.4786 125.782 89.1548 126.804 89.1548 128.065C89.1548 129.326 89.4956 130.689 90.1773 132.155C90.8589 133.62 92.2051 135.307 94.2159 137.216L104.594 147.185C106.673 149.161 108.581 151.257 110.319 153.473C112.058 155.654 113.455 158.21 114.511 161.141C115.568 164.038 116.096 167.582 116.096 171.774C116.096 180.227 114.528 186.855 111.393 191.661C108.292 196.432 102.873 198.818 95.1361 198.818ZM143.982 198.818C136.484 198.818 130.963 196.722 127.419 192.53C123.874 188.304 122.102 182.101 122.102 173.922V108.025H139.586V173.206C139.586 174.705 139.671 176.154 139.841 177.551C140.012 178.914 140.404 180.039 141.017 180.925C141.631 181.811 142.619 182.254 143.982 182.254C145.38 182.254 146.385 181.828 146.998 180.976C147.612 180.09 147.987 178.949 148.123 177.551C148.294 176.154 148.379 174.705 148.379 173.206V108.025H165.862V173.922C165.862 182.101 164.09 188.304 160.546 192.53C157.001 196.722 151.48 198.818 143.982 198.818ZM173.811 198V108.025H197.583C202.559 108.025 206.495 109.133 209.392 111.348C212.323 113.563 214.419 116.716 215.68 120.806C216.941 124.895 217.571 129.769 217.571 135.427C217.571 140.88 217.043 145.634 215.987 149.69C214.93 153.711 213.039 156.83 210.312 159.045C207.62 161.26 203.785 162.368 198.81 162.368H191.499V198H173.811ZM191.499 146.213H192.522C195.862 146.213 197.906 145.276 198.656 143.402C199.406 141.527 199.781 138.767 199.781 135.12C199.781 131.712 199.406 129.087 198.656 127.247C197.941 125.373 196.219 124.435 193.493 124.435H191.499V146.213ZM245.815 198.818C238.624 198.818 233.12 196.654 229.303 192.325C225.52 187.963 223.628 181.675 223.628 173.461V130.723C223.628 123.021 225.503 117.176 229.252 113.188C233.035 109.201 238.556 107.207 245.815 107.207C253.075 107.207 258.579 109.201 262.328 113.188C266.111 117.176 268.002 123.021 268.002 130.723V173.461C268.002 181.675 266.094 187.963 262.277 192.325C258.494 196.654 253.006 198.818 245.815 198.818ZM245.969 182.254C248.695 182.254 250.058 179.613 250.058 174.33V130.417C250.058 125.986 248.729 123.771 246.071 123.771C243.072 123.771 241.572 126.037 241.572 130.57V174.433C241.572 177.227 241.913 179.238 242.595 180.465C243.276 181.658 244.401 182.254 245.969 182.254ZM276.309 198V108.025H303.915C308.515 108.025 311.992 109.082 314.343 111.195C316.695 113.274 318.263 116.205 319.047 119.988C319.865 123.737 320.274 128.15 320.274 133.228C320.274 138.136 319.643 142.055 318.382 144.986C317.155 147.917 314.821 149.945 311.378 151.07C314.207 151.649 316.184 153.064 317.308 155.313C318.467 157.528 319.047 160.408 319.047 163.953V198H301.307V162.777C301.307 160.153 300.762 158.534 299.671 157.92C298.615 157.273 296.894 156.949 294.508 156.949V198H276.309ZM294.61 141.357H298.956C301.444 141.357 302.688 138.647 302.688 133.228C302.688 129.718 302.415 127.417 301.87 126.327C301.324 125.236 300.302 124.691 298.802 124.691H294.61V141.357ZM334.97 198V125.304H324.286V108.025H363.65V125.304H352.965V198H334.97ZM369.707 198V108.025H405.697V125.407H388.008V142.942H404.981V159.863H388.008V180.465H406.872V198H369.707Z" fill="#081544"/>
<path d="M13.3723 227.271C12.9449 226.373 12.3261 225.68 11.5156 225.194C10.7052 224.693 9.76212 224.442 8.68644 224.442C7.61077 224.442 6.63824 224.693 5.76886 225.194C4.91421 225.68 4.23639 226.387 3.73539 227.316C3.24913 228.229 3.006 229.29 3.006 230.498C3.006 231.707 3.24913 232.768 3.73539 233.681C4.23639 234.595 4.91421 235.302 5.76886 235.803C6.63824 236.289 7.61077 236.533 8.68644 236.533C10.1894 236.533 11.4272 236.083 12.3997 235.184C13.3723 234.285 13.9396 233.07 14.1017 231.537H7.95705V229.902H16.2456V231.449C16.1278 232.716 15.7299 233.88 15.0521 234.941C14.3743 235.987 13.4828 236.82 12.3776 237.439C11.2725 238.043 10.0421 238.345 8.68644 238.345C7.25712 238.345 5.95305 238.013 4.77423 237.35C3.59541 236.673 2.65972 235.737 1.96716 234.543C1.28934 233.35 0.950425 232.001 0.950425 230.498C0.950425 228.995 1.28934 227.647 1.96716 226.454C2.65972 225.245 3.59541 224.31 4.77423 223.647C5.95305 222.969 7.25712 222.63 8.68644 222.63C10.3221 222.63 11.7661 223.035 13.0186 223.846C14.2858 224.656 15.2068 225.798 15.7815 227.271H13.3723ZM29.9565 231.692C29.9565 232.075 29.9344 232.48 29.8902 232.908H20.2091C20.2828 234.101 20.688 235.037 21.4248 235.715C22.1763 236.378 23.0825 236.709 24.1435 236.709C25.0128 236.709 25.7349 236.51 26.3095 236.113C26.899 235.7 27.3115 235.155 27.5473 234.477H29.7134C29.3892 235.641 28.7409 236.592 27.7683 237.328C26.7958 238.05 25.5875 238.411 24.1435 238.411C22.9941 238.411 21.9626 238.153 21.049 237.638C20.1502 237.122 19.4429 236.393 18.9272 235.45C18.4114 234.492 18.1536 233.387 18.1536 232.134C18.1536 230.882 18.4041 229.784 18.9051 228.841C19.4061 227.898 20.106 227.176 21.0048 226.675C21.9184 226.159 22.9646 225.901 24.1435 225.901C25.2928 225.901 26.3095 226.152 27.1937 226.653C28.0778 227.154 28.7556 227.846 29.2271 228.73C29.7134 229.6 29.9565 230.587 29.9565 231.692ZM27.8788 231.272C27.8788 230.506 27.7094 229.85 27.3705 229.305C27.0316 228.745 26.5674 228.325 25.978 228.045C25.4033 227.75 24.7623 227.603 24.055 227.603C23.0383 227.603 22.1689 227.927 21.4469 228.576C20.7396 229.224 20.3344 230.123 20.2312 231.272H27.8788ZM36.8994 238.411C35.9711 238.411 35.1386 238.257 34.4018 237.947C33.665 237.623 33.083 237.181 32.6557 236.621C32.2283 236.046 31.9926 235.391 31.9484 234.654H34.026C34.085 235.258 34.365 235.752 34.866 236.135C35.3817 236.518 36.0521 236.709 36.8773 236.709C37.6436 236.709 38.2477 236.54 38.6898 236.201C39.1318 235.862 39.3528 235.435 39.3528 234.919C39.3528 234.389 39.1171 233.998 38.6456 233.748C38.174 233.482 37.4446 233.225 36.4574 232.974C35.5585 232.738 34.8217 232.502 34.2471 232.267C33.6871 232.016 33.2009 231.655 32.7883 231.184C32.3904 230.697 32.1915 230.064 32.1915 229.283C32.1915 228.664 32.3757 228.097 32.7441 227.581C33.1125 227.065 33.6356 226.66 34.3134 226.365C34.9912 226.056 35.7648 225.901 36.6342 225.901C37.9751 225.901 39.0581 226.24 39.8833 226.918C40.7085 227.596 41.1505 228.524 41.2095 229.703H39.1981C39.1539 229.069 38.8961 228.561 38.4245 228.178C37.9677 227.795 37.3488 227.603 36.5679 227.603C35.8459 227.603 35.2712 227.758 34.8439 228.067C34.4165 228.377 34.2029 228.782 34.2029 229.283C34.2029 229.681 34.3281 230.012 34.5786 230.277C34.8439 230.528 35.168 230.734 35.5511 230.896C35.949 231.044 36.4942 231.213 37.1868 231.405C38.0561 231.64 38.7634 231.876 39.3086 232.112C39.8538 232.333 40.318 232.672 40.7011 233.129C41.099 233.586 41.3053 234.182 41.32 234.919C41.32 235.582 41.1358 236.179 40.7674 236.709C40.399 237.24 39.8759 237.66 39.1981 237.969C38.535 238.264 37.7688 238.411 36.8994 238.411ZM46.6128 227.758V234.897C46.6128 235.486 46.738 235.906 46.9885 236.157C47.239 236.393 47.6737 236.51 48.2926 236.51H49.7735V238.212H47.9611C46.8412 238.212 46.0013 237.955 45.4413 237.439C44.8814 236.923 44.6014 236.076 44.6014 234.897V227.758H43.0321V226.1H44.6014V223.05H46.6128V226.1H49.7735V227.758H46.6128ZM51.459 232.112C51.459 230.874 51.7095 229.791 52.2105 228.863C52.7115 227.92 53.3967 227.19 54.2661 226.675C55.1502 226.159 56.1301 225.901 57.2058 225.901C58.2667 225.901 59.1877 226.129 59.9686 226.586C60.7496 227.043 61.3317 227.618 61.7148 228.31V226.1H63.7482V238.212H61.7148V235.958C61.3169 236.665 60.7201 237.255 59.9244 237.726C59.1435 238.183 58.2299 238.411 57.1837 238.411C56.108 238.411 55.1355 238.146 54.2661 237.616C53.3967 237.085 52.7115 236.341 52.2105 235.383C51.7095 234.425 51.459 233.335 51.459 232.112ZM61.7148 232.134C61.7148 231.221 61.5306 230.425 61.1622 229.747C60.7938 229.069 60.2928 228.553 59.6592 228.2C59.0403 227.831 58.3551 227.647 57.6036 227.647C56.8521 227.647 56.1669 227.824 55.5481 228.178C54.9292 228.531 54.4355 229.047 54.0672 229.725C53.6988 230.403 53.5146 231.198 53.5146 232.112C53.5146 233.04 53.6988 233.851 54.0672 234.543C54.4355 235.221 54.9292 235.744 55.5481 236.113C56.1669 236.466 56.8521 236.643 57.6036 236.643C58.3551 236.643 59.0403 236.466 59.6592 236.113C60.2928 235.744 60.7938 235.221 61.1622 234.543C61.5306 233.851 61.7148 233.048 61.7148 232.134ZM54.7524 224.796C54.8555 224.044 55.0986 223.47 55.4818 223.072C55.8796 222.674 56.3732 222.475 56.9626 222.475C57.2426 222.475 57.4784 222.527 57.6699 222.63C57.8762 222.718 58.1194 222.851 58.3993 223.028C58.6056 223.175 58.7898 223.293 58.9519 223.381C59.114 223.455 59.2908 223.492 59.4824 223.492C59.7329 223.492 59.9465 223.411 60.1234 223.249C60.3002 223.087 60.4107 222.851 60.4549 222.541H61.6043C61.5158 223.278 61.2727 223.846 60.8749 224.243C60.477 224.641 59.9834 224.84 59.394 224.84C59.114 224.84 58.8635 224.796 58.6425 224.708C58.4362 224.604 58.2004 224.457 57.9352 224.265C57.6994 224.118 57.5079 224.008 57.3605 223.934C57.2279 223.86 57.0658 223.823 56.8742 223.823C56.6237 223.823 56.4101 223.904 56.2333 224.067C56.0712 224.229 55.968 224.472 55.9238 224.796H54.7524ZM72.4298 238.411C71.2952 238.411 70.2638 238.153 69.3354 237.638C68.4219 237.122 67.6998 236.393 67.1694 235.45C66.6536 234.492 66.3958 233.387 66.3958 232.134C66.3958 230.896 66.661 229.806 67.1915 228.863C67.7367 227.905 68.4734 227.176 69.4017 226.675C70.3301 226.159 71.3689 225.901 72.5183 225.901C73.6676 225.901 74.7064 226.159 75.6348 226.675C76.5631 227.176 77.2925 227.898 77.823 228.841C78.3682 229.784 78.6408 230.882 78.6408 232.134C78.6408 233.387 78.3608 234.492 77.8009 235.45C77.2556 236.393 76.5115 237.122 75.5685 237.638C74.6254 238.153 73.5792 238.411 72.4298 238.411ZM72.4298 236.643C73.1519 236.643 73.8297 236.474 74.4633 236.135C75.0969 235.796 75.6053 235.287 75.9884 234.61C76.3863 233.932 76.5852 233.107 76.5852 232.134C76.5852 231.162 76.3936 230.336 76.0105 229.659C75.6274 228.981 75.1264 228.48 74.5075 228.156C73.8886 227.817 73.2182 227.647 72.4962 227.647C71.7594 227.647 71.0816 227.817 70.4627 228.156C69.8585 228.48 69.3723 228.981 69.0039 229.659C68.6355 230.336 68.4513 231.162 68.4513 232.134C68.4513 233.121 68.6281 233.954 68.9818 234.632C69.3502 235.31 69.8364 235.818 70.4406 236.157C71.0447 236.481 71.7078 236.643 72.4298 236.643ZM96.6602 222.807V224.442H92.4606V238.212H90.4492V224.442H86.2276V222.807H96.6602ZM110.187 231.692C110.187 232.075 110.165 232.48 110.121 232.908H100.44C100.514 234.101 100.919 235.037 101.656 235.715C102.407 236.378 103.313 236.709 104.374 236.709C105.244 236.709 105.966 236.51 106.541 236.113C107.13 235.7 107.543 235.155 107.778 234.477H109.944C109.62 235.641 108.972 236.592 107.999 237.328C107.027 238.05 105.818 238.411 104.374 238.411C103.225 238.411 102.194 238.153 101.28 237.638C100.381 237.122 99.6739 236.393 99.1581 235.45C98.6424 234.492 98.3845 233.387 98.3845 232.134C98.3845 230.882 98.635 229.784 99.136 228.841C99.637 227.898 100.337 227.176 101.236 226.675C102.149 226.159 103.196 225.901 104.374 225.901C105.524 225.901 106.541 226.152 107.425 226.653C108.309 227.154 108.987 227.846 109.458 228.73C109.944 229.6 110.187 230.587 110.187 231.692ZM108.11 231.272C108.11 230.506 107.94 229.85 107.601 229.305C107.263 228.745 106.798 228.325 106.209 228.045C105.634 227.75 104.993 227.603 104.286 227.603C103.269 227.603 102.4 227.927 101.678 228.576C100.971 229.224 100.565 230.123 100.462 231.272H108.11ZM112.091 232.134C112.091 230.882 112.341 229.791 112.842 228.863C113.343 227.92 114.036 227.19 114.92 226.675C115.819 226.159 116.843 225.901 117.992 225.901C119.481 225.901 120.704 226.262 121.661 226.984C122.634 227.706 123.275 228.708 123.584 229.99H121.418C121.212 229.253 120.807 228.671 120.203 228.244C119.613 227.817 118.877 227.603 117.992 227.603C116.843 227.603 115.915 228.001 115.207 228.797C114.5 229.578 114.146 230.69 114.146 232.134C114.146 233.593 114.5 234.72 115.207 235.516C115.915 236.312 116.843 236.709 117.992 236.709C118.877 236.709 119.613 236.503 120.203 236.091C120.792 235.678 121.197 235.089 121.418 234.322H123.584C123.26 235.56 122.612 236.555 121.639 237.306C120.667 238.043 119.451 238.411 117.992 238.411C116.843 238.411 115.819 238.153 114.92 237.638C114.036 237.122 113.343 236.393 112.842 235.45C112.341 234.506 112.091 233.401 112.091 232.134ZM132.17 225.879C133.643 225.879 134.837 226.328 135.75 227.227C136.664 228.111 137.121 229.393 137.121 231.073V238.212H135.131V231.361C135.131 230.152 134.829 229.231 134.225 228.598C133.621 227.949 132.796 227.625 131.75 227.625C130.689 227.625 129.842 227.957 129.208 228.62C128.589 229.283 128.28 230.248 128.28 231.515V238.212H126.268V226.1H128.28V227.824C128.677 227.205 129.215 226.726 129.893 226.387C130.586 226.048 131.345 225.879 132.17 225.879ZM145.689 238.411C144.554 238.411 143.523 238.153 142.594 237.638C141.681 237.122 140.959 236.393 140.428 235.45C139.913 234.492 139.655 233.387 139.655 232.134C139.655 230.896 139.92 229.806 140.451 228.863C140.996 227.905 141.732 227.176 142.661 226.675C143.589 226.159 144.628 225.901 145.777 225.901C146.927 225.901 147.965 226.159 148.894 226.675C149.822 227.176 150.552 227.898 151.082 228.841C151.627 229.784 151.9 230.882 151.9 232.134C151.9 233.387 151.62 234.492 151.06 235.45C150.515 236.393 149.771 237.122 148.828 237.638C147.884 238.153 146.838 238.411 145.689 238.411ZM145.689 236.643C146.411 236.643 147.089 236.474 147.722 236.135C148.356 235.796 148.864 235.287 149.247 234.61C149.645 233.932 149.844 233.107 149.844 232.134C149.844 231.162 149.653 230.336 149.27 229.659C148.886 228.981 148.385 228.48 147.767 228.156C147.148 227.817 146.477 227.647 145.755 227.647C145.018 227.647 144.341 227.817 143.722 228.156C143.118 228.48 142.631 228.981 142.263 229.659C141.895 230.336 141.71 231.162 141.71 232.134C141.71 233.121 141.887 233.954 142.241 234.632C142.609 235.31 143.095 235.818 143.7 236.157C144.304 236.481 144.967 236.643 145.689 236.643ZM156.556 221.856V238.212H154.544V221.856H156.556ZM165.266 238.411C164.132 238.411 163.1 238.153 162.172 237.638C161.258 237.122 160.536 236.393 160.006 235.45C159.49 234.492 159.232 233.387 159.232 232.134C159.232 230.896 159.498 229.806 160.028 228.863C160.573 227.905 161.31 227.176 162.238 226.675C163.167 226.159 164.205 225.901 165.355 225.901C166.504 225.901 167.543 226.159 168.471 226.675C169.4 227.176 170.129 227.898 170.659 228.841C171.205 229.784 171.477 230.882 171.477 232.134C171.477 233.387 171.197 234.492 170.637 235.45C170.092 236.393 169.348 237.122 168.405 237.638C167.462 238.153 166.416 238.411 165.266 238.411ZM165.266 236.643C165.988 236.643 166.666 236.474 167.3 236.135C167.933 235.796 168.442 235.287 168.825 234.61C169.223 233.932 169.422 233.107 169.422 232.134C169.422 231.162 169.23 230.336 168.847 229.659C168.464 228.981 167.963 228.48 167.344 228.156C166.725 227.817 166.055 227.647 165.333 227.647C164.596 227.647 163.918 227.817 163.299 228.156C162.695 228.48 162.209 228.981 161.84 229.659C161.472 230.336 161.288 231.162 161.288 232.134C161.288 233.121 161.465 233.954 161.818 234.632C162.187 235.31 162.673 235.818 163.277 236.157C163.881 236.481 164.544 236.643 165.266 236.643ZM167.521 222.519L162.813 225.039V223.536L167.521 220.773V222.519ZM179.117 225.901C180.163 225.901 181.077 226.129 181.858 226.586C182.654 227.043 183.243 227.618 183.626 228.31V226.1H185.66V238.478C185.66 239.583 185.424 240.563 184.952 241.417C184.481 242.287 183.803 242.965 182.919 243.451C182.049 243.937 181.033 244.18 179.869 244.18C178.277 244.18 176.951 243.804 175.89 243.053C174.829 242.301 174.203 241.277 174.011 239.981H176.001C176.222 240.717 176.678 241.307 177.371 241.749C178.064 242.206 178.896 242.434 179.869 242.434C180.974 242.434 181.873 242.088 182.565 241.395C183.272 240.703 183.626 239.73 183.626 238.478V235.936C183.228 236.643 182.639 237.233 181.858 237.704C181.077 238.176 180.163 238.411 179.117 238.411C178.041 238.411 177.062 238.146 176.177 237.616C175.308 237.085 174.623 236.341 174.122 235.383C173.621 234.425 173.37 233.335 173.37 232.112C173.37 230.874 173.621 229.791 174.122 228.863C174.623 227.92 175.308 227.19 176.177 226.675C177.062 226.159 178.041 225.901 179.117 225.901ZM183.626 232.134C183.626 231.221 183.442 230.425 183.074 229.747C182.705 229.069 182.204 228.553 181.571 228.2C180.952 227.831 180.266 227.647 179.515 227.647C178.763 227.647 178.078 227.824 177.459 228.178C176.841 228.531 176.347 229.047 175.979 229.725C175.61 230.403 175.426 231.198 175.426 232.112C175.426 233.04 175.61 233.851 175.979 234.543C176.347 235.221 176.841 235.744 177.459 236.113C178.078 236.466 178.763 236.643 179.515 236.643C180.266 236.643 180.952 236.466 181.571 236.113C182.204 235.744 182.705 235.221 183.074 234.543C183.442 233.851 183.626 233.048 183.626 232.134ZM190.097 224.133C189.714 224.133 189.39 224 189.125 223.735C188.86 223.47 188.727 223.146 188.727 222.762C188.727 222.379 188.86 222.055 189.125 221.79C189.39 221.525 189.714 221.392 190.097 221.392C190.466 221.392 190.775 221.525 191.026 221.79C191.291 222.055 191.424 222.379 191.424 222.762C191.424 223.146 191.291 223.47 191.026 223.735C190.775 224 190.466 224.133 190.097 224.133ZM191.07 226.1V238.212H189.059V226.1H191.07ZM193.746 232.134C193.746 230.882 193.997 229.791 194.498 228.863C194.999 227.92 195.692 227.19 196.576 226.675C197.475 226.159 198.499 225.901 199.648 225.901C201.136 225.901 202.359 226.262 203.317 226.984C204.29 227.706 204.931 228.708 205.24 229.99H203.074C202.868 229.253 202.462 228.671 201.858 228.244C201.269 227.817 200.532 227.603 199.648 227.603C198.499 227.603 197.57 228.001 196.863 228.797C196.156 229.578 195.802 230.69 195.802 232.134C195.802 233.593 196.156 234.72 196.863 235.516C197.57 236.312 198.499 236.709 199.648 236.709C200.532 236.709 201.269 236.503 201.858 236.091C202.448 235.678 202.853 235.089 203.074 234.322H205.24C204.916 235.56 204.267 236.555 203.295 237.306C202.322 238.043 201.107 238.411 199.648 238.411C198.499 238.411 197.475 238.153 196.576 237.638C195.692 237.122 194.999 236.393 194.498 235.45C193.997 234.506 193.746 233.401 193.746 232.134ZM207.172 232.112C207.172 230.874 207.423 229.791 207.924 228.863C208.425 227.92 209.11 227.19 209.979 226.675C210.863 226.159 211.843 225.901 212.919 225.901C213.98 225.901 214.901 226.129 215.682 226.586C216.463 227.043 217.045 227.618 217.428 228.31V226.1H219.461V238.212H217.428V235.958C217.03 236.665 216.433 237.255 215.638 237.726C214.857 238.183 213.943 238.411 212.897 238.411C211.821 238.411 210.849 238.146 209.979 237.616C209.11 237.085 208.425 236.341 207.924 235.383C207.423 234.425 207.172 233.335 207.172 232.112ZM217.428 232.134C217.428 231.221 217.244 230.425 216.875 229.747C216.507 229.069 216.006 228.553 215.372 228.2C214.754 227.831 214.068 227.647 213.317 227.647C212.565 227.647 211.88 227.824 211.261 228.178C210.642 228.531 210.149 229.047 209.78 229.725C209.412 230.403 209.228 231.198 209.228 232.112C209.228 233.04 209.412 233.851 209.78 234.543C210.149 235.221 210.642 235.744 211.261 236.113C211.88 236.466 212.565 236.643 213.317 236.643C214.068 236.643 214.754 236.466 215.372 236.113C216.006 235.744 216.507 235.221 216.875 234.543C217.244 233.851 217.428 233.048 217.428 232.134ZM239.805 231.692C239.805 232.075 239.783 232.48 239.738 232.908H230.057C230.131 234.101 230.536 235.037 231.273 235.715C232.024 236.378 232.931 236.709 233.992 236.709C234.861 236.709 235.583 236.51 236.158 236.113C236.747 235.7 237.16 235.155 237.395 234.477H239.562C239.237 235.641 238.589 236.592 237.616 237.328C236.644 238.05 235.436 238.411 233.992 238.411C232.842 238.411 231.811 238.153 230.897 237.638C229.998 237.122 229.291 236.393 228.775 235.45C228.26 234.492 228.002 233.387 228.002 232.134C228.002 230.882 228.252 229.784 228.753 228.841C229.254 227.898 229.954 227.176 230.853 226.675C231.767 226.159 232.813 225.901 233.992 225.901C235.141 225.901 236.158 226.152 237.042 226.653C237.926 227.154 238.604 227.846 239.075 228.73C239.562 229.6 239.805 230.587 239.805 231.692ZM237.727 231.272C237.727 230.506 237.558 229.85 237.219 229.305C236.88 228.745 236.416 228.325 235.826 228.045C235.251 227.75 234.61 227.603 233.903 227.603C232.886 227.603 232.017 227.927 231.295 228.576C230.588 229.224 230.182 230.123 230.079 231.272H237.727ZM253.237 238.367C252.22 238.367 251.307 238.19 250.496 237.837C249.701 237.468 249.074 236.967 248.617 236.334C248.161 235.685 247.925 234.941 247.91 234.101H250.054C250.128 234.823 250.423 235.435 250.938 235.936C251.469 236.422 252.235 236.665 253.237 236.665C254.195 236.665 254.946 236.429 255.491 235.958C256.051 235.472 256.331 234.853 256.331 234.101C256.331 233.512 256.169 233.033 255.845 232.665C255.521 232.296 255.116 232.016 254.629 231.825C254.143 231.633 253.487 231.427 252.662 231.206C251.646 230.941 250.828 230.675 250.209 230.41C249.605 230.145 249.082 229.732 248.64 229.172C248.212 228.598 247.999 227.831 247.999 226.874C247.999 226.034 248.212 225.29 248.64 224.641C249.067 223.993 249.664 223.492 250.43 223.138C251.211 222.785 252.102 222.608 253.104 222.608C254.548 222.608 255.727 222.969 256.641 223.691C257.569 224.413 258.092 225.371 258.21 226.564H256C255.926 225.975 255.617 225.459 255.072 225.017C254.526 224.56 253.804 224.332 252.905 224.332C252.066 224.332 251.38 224.553 250.85 224.995C250.319 225.422 250.054 226.026 250.054 226.807C250.054 227.367 250.209 227.824 250.518 228.178C250.842 228.531 251.233 228.804 251.69 228.995C252.161 229.172 252.817 229.379 253.657 229.614C254.674 229.894 255.491 230.174 256.11 230.454C256.729 230.72 257.26 231.139 257.702 231.714C258.144 232.274 258.365 233.04 258.365 234.013C258.365 234.764 258.166 235.472 257.768 236.135C257.37 236.798 256.781 237.336 256 237.748C255.219 238.161 254.298 238.367 253.237 238.367ZM272.067 226.1V238.212H270.055V236.422C269.672 237.041 269.134 237.527 268.442 237.881C267.764 238.22 267.013 238.389 266.187 238.389C265.244 238.389 264.397 238.198 263.646 237.815C262.894 237.417 262.297 236.827 261.855 236.046C261.428 235.265 261.214 234.315 261.214 233.195V226.1H263.204V232.93C263.204 234.123 263.506 235.044 264.11 235.693C264.714 236.326 265.539 236.643 266.585 236.643C267.661 236.643 268.508 236.312 269.127 235.648C269.746 234.985 270.055 234.02 270.055 232.753V226.1H272.067ZM277.474 228.332C277.872 227.64 278.461 227.065 279.242 226.608C280.038 226.137 280.959 225.901 282.005 225.901C283.081 225.901 284.054 226.159 284.923 226.675C285.807 227.19 286.5 227.92 287.001 228.863C287.502 229.791 287.752 230.874 287.752 232.112C287.752 233.335 287.502 234.425 287.001 235.383C286.5 236.341 285.807 237.085 284.923 237.616C284.054 238.146 283.081 238.411 282.005 238.411C280.974 238.411 280.06 238.183 279.265 237.726C278.484 237.255 277.887 236.673 277.474 235.98V243.959H275.463V226.1H277.474V228.332ZM285.696 232.112C285.696 231.198 285.512 230.403 285.144 229.725C284.776 229.047 284.275 228.531 283.641 228.178C283.022 227.824 282.337 227.647 281.585 227.647C280.849 227.647 280.163 227.831 279.53 228.2C278.911 228.553 278.41 229.077 278.027 229.769C277.658 230.447 277.474 231.235 277.474 232.134C277.474 233.048 277.658 233.851 278.027 234.543C278.41 235.221 278.911 235.744 279.53 236.113C280.163 236.466 280.849 236.643 281.585 236.643C282.337 236.643 283.022 236.466 283.641 236.113C284.275 235.744 284.776 235.221 285.144 234.543C285.512 233.851 285.696 233.04 285.696 232.112ZM295.682 238.411C294.548 238.411 293.516 238.153 292.588 237.638C291.674 237.122 290.952 236.393 290.422 235.45C289.906 234.492 289.648 233.387 289.648 232.134C289.648 230.896 289.913 229.806 290.444 228.863C290.989 227.905 291.726 227.176 292.654 226.675C293.582 226.159 294.621 225.901 295.771 225.901C296.92 225.901 297.959 226.159 298.887 226.675C299.815 227.176 300.545 227.898 301.075 228.841C301.62 229.784 301.893 230.882 301.893 232.134C301.893 233.387 301.613 234.492 301.053 235.45C300.508 236.393 299.764 237.122 298.821 237.638C297.878 238.153 296.832 238.411 295.682 238.411ZM295.682 236.643C296.404 236.643 297.082 236.474 297.716 236.135C298.349 235.796 298.858 235.287 299.241 234.61C299.639 233.932 299.837 233.107 299.837 232.134C299.837 231.162 299.646 230.336 299.263 229.659C298.88 228.981 298.379 228.48 297.76 228.156C297.141 227.817 296.47 227.647 295.748 227.647C295.012 227.647 294.334 227.817 293.715 228.156C293.111 228.48 292.625 228.981 292.256 229.659C291.888 230.336 291.704 231.162 291.704 232.134C291.704 233.121 291.88 233.954 292.234 234.632C292.602 235.31 293.089 235.818 293.693 236.157C294.297 236.481 294.96 236.643 295.682 236.643ZM306.549 228.067C306.903 227.375 307.404 226.837 308.052 226.454C308.715 226.071 309.518 225.879 310.461 225.879V227.957H309.931C307.676 227.957 306.549 229.18 306.549 231.626V238.212H304.538V226.1H306.549V228.067ZM315.236 227.758V234.897C315.236 235.486 315.362 235.906 315.612 236.157C315.863 236.393 316.297 236.51 316.916 236.51H318.397V238.212H316.585C315.465 238.212 314.625 237.955 314.065 237.439C313.505 236.923 313.225 236.076 313.225 234.897V227.758H311.656V226.1H313.225V223.05H315.236V226.1H318.397V227.758H315.236ZM331.886 231.692C331.886 232.075 331.864 232.48 331.819 232.908H322.138C322.212 234.101 322.617 235.037 323.354 235.715C324.105 236.378 325.012 236.709 326.073 236.709C326.942 236.709 327.664 236.51 328.239 236.113C328.828 235.7 329.241 235.155 329.476 234.477H331.643C331.318 235.641 330.67 236.592 329.698 237.328C328.725 238.05 327.517 238.411 326.073 238.411C324.923 238.411 323.892 238.153 322.978 237.638C322.079 237.122 321.372 236.393 320.856 235.45C320.341 234.492 320.083 233.387 320.083 232.134C320.083 230.882 320.333 229.784 320.834 228.841C321.335 227.898 322.035 227.176 322.934 226.675C323.848 226.159 324.894 225.901 326.073 225.901C327.222 225.901 328.239 226.152 329.123 226.653C330.007 227.154 330.685 227.846 331.156 228.73C331.643 229.6 331.886 230.587 331.886 231.692ZM329.808 231.272C329.808 230.506 329.639 229.85 329.3 229.305C328.961 228.745 328.497 228.325 327.907 228.045C327.333 227.75 326.692 227.603 325.984 227.603C324.967 227.603 324.098 227.927 323.376 228.576C322.669 229.224 322.264 230.123 322.16 231.272H329.808ZM346.335 225.879C347.808 225.879 349.002 226.328 349.915 227.227C350.829 228.111 351.286 229.393 351.286 231.073V238.212H349.297V231.361C349.297 230.152 348.995 229.231 348.39 228.598C347.786 227.949 346.961 227.625 345.915 227.625C344.854 227.625 344.007 227.957 343.373 228.62C342.754 229.283 342.445 230.248 342.445 231.515V238.212H340.433V226.1H342.445V227.824C342.843 227.205 343.38 226.726 344.058 226.387C344.751 226.048 345.51 225.879 346.335 225.879ZM359.854 238.411C358.719 238.411 357.688 238.153 356.76 237.638C355.846 237.122 355.124 236.393 354.593 235.45C354.078 234.492 353.82 233.387 353.82 232.134C353.82 230.896 354.085 229.806 354.616 228.863C355.161 227.905 355.898 227.176 356.826 226.675C357.754 226.159 358.793 225.901 359.942 225.901C361.092 225.901 362.131 226.159 363.059 226.675C363.987 227.176 364.717 227.898 365.247 228.841C365.792 229.784 366.065 230.882 366.065 232.134C366.065 233.387 365.785 234.492 365.225 235.45C364.68 236.393 363.936 237.122 362.993 237.638C362.05 238.153 361.003 238.411 359.854 238.411ZM359.854 236.643C360.576 236.643 361.254 236.474 361.887 236.135C362.521 235.796 363.029 235.287 363.413 234.61C363.81 233.932 364.009 233.107 364.009 232.134C364.009 231.162 363.818 230.336 363.435 229.659C363.052 228.981 362.551 228.48 361.932 228.156C361.313 227.817 360.642 227.647 359.92 227.647C359.184 227.647 358.506 227.817 357.887 228.156C357.283 228.48 356.796 228.981 356.428 229.659C356.06 230.336 355.875 231.162 355.875 232.134C355.875 233.121 356.052 233.954 356.406 234.632C356.774 235.31 357.261 235.818 357.865 236.157C358.469 236.481 359.132 236.643 359.854 236.643ZM376.613 222.807V238.212H374.602V222.807H376.613ZM388.75 222.807V224.442H382.053V229.636H387.49V231.272H382.053V238.212H380.042V222.807H388.75ZM399.291 238.212L395.622 231.913H393.191V238.212H391.179V222.807H396.152C397.317 222.807 398.296 223.006 399.092 223.403C399.903 223.801 400.507 224.339 400.905 225.017C401.302 225.695 401.501 226.468 401.501 227.338C401.501 228.399 401.192 229.334 400.573 230.145C399.969 230.955 399.055 231.493 397.832 231.758L401.7 238.212H399.291ZM393.191 230.3H396.152C397.243 230.3 398.061 230.034 398.606 229.504C399.151 228.959 399.424 228.237 399.424 227.338C399.424 226.424 399.151 225.717 398.606 225.216C398.075 224.715 397.258 224.464 396.152 224.464H393.191V230.3ZM416.739 238.212H414.728L406.638 225.945V238.212H404.627V222.785H406.638L414.728 235.03V222.785H416.739V238.212ZM425.309 230.498C425.309 228.995 425.648 227.647 426.326 226.454C427.004 225.245 427.924 224.302 429.089 223.624C430.267 222.947 431.571 222.608 433.001 222.608C434.681 222.608 436.147 223.013 437.399 223.823C438.652 224.634 439.565 225.783 440.14 227.271H437.731C437.303 226.343 436.685 225.628 435.874 225.127C435.078 224.626 434.121 224.376 433.001 224.376C431.925 224.376 430.96 224.626 430.105 225.127C429.251 225.628 428.58 226.343 428.094 227.271C427.608 228.185 427.365 229.261 427.365 230.498C427.365 231.722 427.608 232.797 428.094 233.726C428.58 234.639 429.251 235.346 430.105 235.847C430.96 236.348 431.925 236.599 433.001 236.599C434.121 236.599 435.078 236.356 435.874 235.869C436.685 235.368 437.303 234.654 437.731 233.726H440.14C439.565 235.199 438.652 236.341 437.399 237.151C436.147 237.947 434.681 238.345 433.001 238.345C431.571 238.345 430.267 238.013 429.089 237.35C427.924 236.673 427.004 235.737 426.326 234.543C425.648 233.35 425.309 232.001 425.309 230.498ZM455.247 238.212H453.235L445.145 225.945V238.212H443.134V222.785H445.145L453.235 235.03V222.785H455.247V238.212ZM467.782 234.786H461.062L459.825 238.212H457.703L463.273 222.895H465.593L471.141 238.212H469.019L467.782 234.786ZM467.207 233.151L464.422 225.371L461.637 233.151H467.207ZM483.051 222.807V224.442H478.851V238.212H476.84V224.442H472.618V222.807H483.051Z" fill="#A9AAB9"/>
</svg>
